# This file uses centimeters as units for non-parametric coordinates.

mtllib Counter04_model.mtl
g default
v 1.752713 -0.414711 0.718236
v -1.752713 -0.414711 0.718236
v -1.752713 -0.414711 1.417342
v 1.051628 -0.414711 0.718236
v 1.051628 -0.414711 1.417342
v 1.752713 -0.414711 -1.417342
v 1.051628 -0.414711 -1.417342
v 1.752713 -0.414711 1.066834
v 1.402206 -0.414711 1.417342
v 1.752713 0.366669 0.718236
v 1.752713 0.366669 -1.417342
v 1.051628 0.366669 -1.417342
v 1.051628 0.366669 0.718236
v -1.752713 0.366669 0.718236
v -1.752713 0.366669 1.417342
v 1.051628 0.366669 1.417342
v 1.402206 0.366669 1.417342
v 1.752713 0.366669 1.066834
v 1.019123 0.366669 0.669074
v -1.792667 0.366669 0.669074
v -1.792667 0.366669 1.449651
v 1.075601 0.366669 1.449651
v 1.792667 0.366669 1.091153
v 1.792667 0.366669 0.734609
v 1.434170 0.366669 1.449651
v 1.792667 0.366669 -1.449651
v 1.019123 0.366669 -1.449651
v 1.019123 0.410161 0.669074
v 1.062451 0.453489 0.712402
v -1.749339 0.453489 0.712402
v -1.792667 0.410161 0.669074
v 1.075601 0.410105 1.449651
v 1.072470 0.453489 1.406379
v -1.792667 0.410161 1.449651
v -1.749339 0.453489 1.406323
v 1.792667 0.410161 1.091153
v 1.749339 0.453489 1.073206
v 1.792667 0.410084 0.734609
v 1.749417 0.453489 0.730945
v 1.434170 0.410161 1.449651
v 1.416223 0.453489 1.406323
v 1.062451 0.453489 -1.406323
v 1.019123 0.410161 -1.449651
v 1.792667 0.410161 -1.449651
v 1.749339 0.453489 -1.406323
vt 0.780704 0.396586
vt 0.103139 0.416805
vt 0.174861 0.396586
vt 0.243491 0.416805
vt 0.437367 0.597209
vt 0.267970 0.416565
vt 0.410218 0.416565
vt 0.174861 0.174916
vt 0.780704 0.174916
vt 0.762010 0.777488
vt 0.762010 0.982418
vt 0.810231 0.103489
vt 0.814864 0.069206
vt 0.598041 0.068728
vt 0.825466 0.033209
vt 0.188928 0.033052
vt 0.188943 0.102415
vt 0.200801 0.023111
vt 0.183794 0.095783
vt 0.819108 0.095783
vt 0.808477 0.144180
vt 0.701278 0.146061
vt 0.701278 0.133325
vt 0.816138 0.133326
vt 0.856867 0.445630
vt 0.818346 0.023111
vt 0.863726 0.455383
vt 0.529104 0.455968
vt 0.519519 0.449426
vt 0.106005 0.103226
vt 0.855735 0.020821
vt 0.865042 0.027361
vt 0.019708 0.033052
vt 0.011918 0.023111
vt 0.106005 0.095783
vt 0.025511 0.146061
vt 0.818346 0.012809
vt 0.200801 0.012809
vt 0.015237 0.133326
vt 0.183794 0.086728
vt 0.819108 0.086728
vt 0.009362 0.086728
vt 0.606954 0.060071
vt 0.826391 0.060072
vt 0.011918 0.012809
vt 0.006884 0.068728
vt 0.701278 0.119788
vt 0.020432 0.060072
vt 0.106005 0.086728
vt 0.015237 0.119788
vt 0.977633 0.017564
vt 0.970983 0.027338
vt 0.979604 0.457933
vt 0.970264 0.457510
vt 0.980577 0.513417
vt 0.971086 0.511110
vt 0.924602 0.571941
vt 0.919826 0.563295
vt 0.026524 0.982418
vt 0.026524 0.777488
vt 0.853955 0.777488
vt 0.853955 0.982418
vt 0.075967 0.396586
vt 0.983959 0.777488
vt 0.437367 0.749410
vt 0.021388 0.749410
vt 0.021388 0.597209
vt 0.983610 0.749410
vt 0.983610 0.597209
vt 0.410218 0.575106
vt 0.267970 0.575106
vt 0.243491 0.573674
vt 0.103139 0.573674
vt 0.867074 0.573938
vt 0.866382 0.564211
vt 0.522236 0.573408
vt 0.529092 0.563654
vt 0.519506 0.570195
vt 0.866947 0.573978
vt 0.922823 0.573042
vt 0.979832 0.516280
vt 0.979771 0.458463
vt 0.980334 0.020786
vt 0.858387 0.017604
vt 0.522241 0.446213
vt 0.854421 0.448734
vt 0.606954 0.047837
vt 0.112898 0.102414
vt 0.701278 0.144180
vt 0.009362 0.103227
vt 0.189072 0.103489
vt 0.616041 0.069206
vt 0.826391 0.047837
vt 0.816138 0.119788
vt 0.009362 0.095783
vt 0.020432 0.047837
vt 0.209594 0.033209
vt 0.983959 0.982418
vt 0.075967 0.174916
vn 1.000000 0.000000 0.000000
vn 1.000000 0.000000 0.000000
vn 1.000000 0.000000 0.000000
vn 1.000000 0.000000 0.000000
vn 0.000000 0.000000 -1.000000
vn 0.000000 0.000000 -1.000000
vn 0.000000 0.000000 -1.000000
vn 0.000000 0.000000 -1.000000
vn -1.000000 0.000000 0.000000
vn -1.000000 0.000000 0.000000
vn -1.000000 0.000000 0.000000
vn -1.000000 0.000000 0.000000
vn 0.000000 0.000000 -1.000000
vn 0.000000 0.000000 -1.000000
vn 0.000000 0.000000 -1.000000
vn 0.000000 0.000000 -1.000000
vn -1.000000 0.000000 0.000000
vn -1.000000 0.000000 0.000000
vn -1.000000 0.000000 0.000000
vn -1.000000 0.000000 0.000000
vn 0.000000 0.000000 1.000000
vn 0.000000 0.000000 1.000000
vn 0.000000 0.000000 1.000000
vn 0.000000 0.000000 1.000000
vn 0.000000 0.000000 1.000000
vn 0.000000 0.000000 1.000000
vn 0.707107 0.000000 0.707107
vn 0.707107 0.000000 0.707107
vn 0.707107 0.000000 0.707107
vn 0.707107 0.000000 0.707107
vn 1.000000 0.000000 0.000000
vn 1.000000 0.000000 0.000000
vn 1.000000 0.000000 0.000000
vn 1.000000 0.000000 0.000000
vn 0.000000 -1.000000 -0.000000
vn 0.000000 -1.000000 -0.000000
vn 0.000000 -1.000000 -0.000000
vn 0.000000 -1.000000 -0.000000
vn 0.000000 -1.000000 0.000001
vn 0.000000 -1.000000 0.000001
vn 0.000000 -1.000000 0.000001
vn 0.000000 -1.000000 0.000001
vn 0.000000 -1.000000 0.000000
vn 0.000000 -1.000000 0.000000
vn 0.000000 -1.000000 0.000000
vn 0.000000 -1.000000 0.000000
vn 0.000000 -1.000000 0.000000
vn 0.000000 -1.000000 0.000000
vn 0.000000 -1.000000 0.000000
vn 0.000000 -1.000000 0.000000
vn 0.000000 -1.000000 -0.000000
vn 0.000000 -1.000000 -0.000000
vn 0.000000 -1.000000 -0.000000
vn 0.000000 -1.000000 -0.000000
vn 0.000000 -1.000000 -0.000000
vn 0.000000 -1.000000 -0.000000
vn 0.000000 -1.000000 -0.000000
vn 0.000000 -1.000000 -0.000000
vn 0.000000 -1.000000 0.000000
vn 0.000000 -1.000000 0.000000
vn 0.000000 -1.000000 0.000000
vn 0.000000 -1.000000 0.000000
vn 0.000000 -1.000000 0.000000
vn 0.000000 -1.000000 0.000000
vn 0.000000 -1.000000 0.000000
vn 0.000000 -1.000000 0.000000
vn 0.000000 -1.000000 0.000000
vn 0.000000 -1.000000 0.000000
vn 0.000000 -1.000000 0.000000
vn 0.000000 -1.000000 0.000000
vn -0.707104 0.707109 0.000000
vn -0.707104 0.707109 0.000000
vn -0.707104 0.707109 0.000000
vn -0.707104 0.707109 0.000000
vn 0.000000 0.707106 -0.707107
vn 0.000000 0.707106 -0.707107
vn 0.000000 0.707106 -0.707107
vn 0.000000 0.707106 -0.707107
vn -0.707107 0.707106 0.000000
vn -0.707107 0.707106 0.000000
vn -0.707107 0.707106 0.000000
vn -0.707107 0.707106 0.000000
vn 0.000000 0.706644 0.707569
vn 0.000000 0.706644 0.707569
vn -0.000000 0.706644 0.707569
vn -0.000000 0.706644 0.707569
vn 0.000000 0.706644 0.707569
vn 0.000000 0.706644 0.707569
vn 0.500001 0.707105 0.500001
vn 0.500001 0.707105 0.500001
vn 0.500001 0.707105 0.500001
vn 0.500001 0.707105 0.500001
vn 0.707739 0.706474 0.000000
vn 0.707739 0.706474 0.000000
vn 0.707739 0.706474 0.000000
vn 0.707739 0.706474 -0.000000
vn 0.707739 0.706474 -0.000000
vn 0.707739 0.706474 -0.000000
vn 0.000000 0.707107 -0.707107
vn 0.000000 0.707107 -0.707107
vn 0.000000 0.707107 -0.707107
vn 0.000000 0.707107 -0.707107
vn 0.000000 0.000000 -1.000000
vn 0.000000 0.000000 -1.000000
vn 0.000000 0.000000 -1.000000
vn 0.000000 0.000000 -1.000000
vn 0.000000 0.000000 1.000000
vn 0.000000 0.000000 1.000000
vn 0.000000 0.000000 1.000000
vn 0.000000 0.000000 1.000000
vn -1.000000 0.000000 0.000000
vn -1.000000 0.000000 0.000000
vn -1.000000 0.000000 0.000000
vn -1.000000 0.000000 0.000000
vn 1.000000 0.000000 0.000000
vn 1.000000 0.000000 0.000000
vn 1.000000 0.000000 0.000000
vn 1.000000 0.000000 0.000000
vn 0.000000 0.000000 1.000000
vn 0.000000 0.000000 1.000000
vn 0.000000 0.000000 -1.000000
vn 0.000000 0.000000 -1.000000
vn 0.000000 0.000000 -1.000000
vn 0.000000 0.000000 -1.000000
vn -1.000000 0.000000 0.000000
vn -1.000000 0.000000 0.000000
vn -1.000000 0.000000 0.000000
vn -1.000000 0.000000 0.000000
vn 1.000000 0.000000 0.000000
vn 1.000000 0.000000 0.000000
vn 0.707107 0.000000 0.707107
vn 0.707107 0.000000 0.707107
vn 0.707107 0.000000 0.707107
vn 0.707107 0.000000 0.707107
vn 0.000000 1.000000 0.000000
vn 0.000000 1.000000 0.000000
vn 0.000000 1.000000 0.000000
vn 0.000000 1.000000 0.000000
vn 0.000000 1.000000 0.000000
vn 0.000000 1.000000 0.000000
vn 0.000000 1.000000 0.000000
vn 0.000000 1.000000 0.000000
vn 0.000000 1.000000 0.000000
s off
g Counter04_LP
usemtl initialShadingGroup
f 11/1/1 10/3/2 1/8/3 6/9/4
f 6/6/5 7/7/6 12/70/7 11/71/8
f 4/5/9 13/65/10 12/66/11 7/67/12
f 14/68/13 13/65/14 4/5/15 2/69/16
f 2/2/17 3/4/18 15/72/19 14/73/20
s 1
f 5/10/21 16/11/22 15/59/23 3/60/24
f 9/61/25 17/62/26 16/11/22 5/10/21
s off
f 18/98/27 17/62/28 9/61/29 8/64/30
f 10/3/31 18/63/32 8/99/33 1/8/34
f 13/15/35 14/97/36 20/18/37 19/26/38
f 15/12/39 16/91/40 22/19/41 21/20/42
f 14/16/43 15/33/44 21/34/45 20/18/46
f 18/21/47 10/89/48 24/23/49 23/24/50
f 16/17/51 17/88/52 25/35/53 22/19/54
f 11/13/55 12/92/56 27/43/57 26/44/58
f 12/14/59 13/46/60 19/48/61 27/43/62
f 10/22/63 11/36/64 26/39/65 24/23/66
f 17/30/67 18/90/68 23/95/69 25/35/70
f 28/25/71 29/27/72 42/28/73 43/85/74
f 29/27/75 28/86/76 31/31/77 30/32/78
f 30/32/79 31/84/80 34/51/81 35/52/82
s 2
f 32/53/83 33/54/84 35/52/85 34/83/86
f 33/54/84 32/82/83 40/55/87 41/56/88
s off
f 36/57/89 37/58/90 41/56/91 40/81/92
s 3
f 37/58/93 36/80/94 38/74/95 39/75/96
f 39/75/96 38/79/95 44/76/97 45/77/98
s off
f 43/29/99 42/28/100 45/77/101 44/78/102
f 28/37/103 19/26/104 20/18/105 31/38/106
s 4
f 21/20/107 22/19/108 32/40/109 34/41/110
s off
f 20/18/111 21/34/112 34/45/113 31/38/114
s 5
f 36/94/115 23/24/116 24/23/117 38/47/118
s 4
f 22/19/108 25/35/119 40/49/120 32/40/109
s off
f 26/44/121 27/43/122 43/87/123 44/93/124
f 27/43/125 19/48/126 28/96/127 43/87/128
s 5
f 38/47/118 24/23/117 26/39/129 44/50/130
s off
f 36/42/131 40/49/132 25/35/133 23/95/134
s 6
f 30/32/135 35/52/136 33/54/137 29/27/138
f 29/27/138 33/54/137 41/56/139
f 29/27/138 39/75/140 45/77/141 42/28/142
f 29/27/138 37/58/143 39/75/140
f 29/27/138 41/56/139 37/58/143
