# This file uses centimeters as units for non-parametric coordinates.

mtllib Bin01_model.mtl
g default
v -0.333995 -0.581478 -0.260701
v -0.333995 -0.581478 0.260701
v -0.333995 0.515087 -0.260701
v -0.333995 0.515087 0.260701
v 0.333995 0.515087 -0.260701
v 0.333995 0.515087 0.260701
v 0.333995 -0.581478 -0.260701
v 0.333995 -0.581478 0.260701
v -0.310973 0.515087 -0.260701
v -0.310973 0.515087 0.260701
v -0.310973 -0.581478 0.260701
v -0.310973 -0.581478 -0.260701
v 0.310973 -0.581478 -0.260701
v 0.310973 -0.581478 0.260701
v 0.310973 0.515087 0.260701
v 0.310973 0.515087 -0.260701
v -0.333995 -0.581478 -0.242752
v 0.333995 -0.581478 -0.242752
v 0.333995 0.515087 -0.242752
v 0.310973 0.515087 -0.242752
v -0.310973 0.515087 -0.242752
v -0.333995 0.515087 -0.242752
v -0.310973 0.581478 -0.242752
v -0.333995 0.581478 -0.242752
v 0.333995 0.581478 -0.242752
v 0.310973 0.581478 -0.242752
v 0.310973 0.581478 -0.260701
v 0.333995 0.581478 -0.260701
v -0.310973 0.581478 -0.260701
v -0.333995 0.581478 -0.260701
v -0.310973 0.571756 0.250980
v -0.310973 0.548286 0.260701
v -0.310973 0.581478 0.227509
v -0.333995 0.571756 0.250980
v -0.333995 0.581478 0.227509
v -0.333995 0.548286 0.260701
v 0.310973 0.571756 0.250980
v 0.310973 0.581478 0.227509
v 0.310973 0.548286 0.260701
v 0.333995 0.581478 0.227509
v 0.333995 0.571756 0.250980
v 0.333995 0.548286 0.260701
v -0.333995 0.515087 0.227510
v -0.333995 -0.581478 0.227510
v -0.310973 0.515087 0.227510
v 0.310973 0.515087 0.227509
v 0.333995 0.515087 0.227510
v 0.333995 -0.581478 0.227510
v 0.333995 0.548286 0.227510
v 0.333995 0.548286 -0.242752
v 0.333995 0.548286 -0.260701
v 0.310973 0.548286 -0.260701
v -0.310973 0.548286 -0.260701
v -0.333995 0.548286 -0.260701
v -0.333995 0.548286 -0.242752
v -0.333995 0.548286 0.227510
v 0.310973 0.548286 0.227509
v 0.310973 0.548286 -0.242752
v -0.310973 0.548286 -0.242752
v -0.310973 0.548286 0.227509
vt 0.732304 0.649617
vt 0.732301 0.400811
vt 0.739832 0.400811
vt 0.627566 0.371916
vt 0.627563 0.123110
vt 0.734264 0.123110
vt 0.041768 0.024225
vt 0.585980 0.024225
vt 0.627233 0.887004
vt 0.627233 0.704135
vt 0.730952 0.704135
vt 0.730951 0.887004
vt 0.585980 0.983736
vt 0.041768 0.983736
vt 0.734791 0.704135
vt 0.734791 0.887004
vt 0.021623 0.024225
vt 0.021623 0.983736
vt 0.623393 0.704135
vt 0.623393 0.887004
vt 0.739834 0.649617
vt 0.734266 0.371916
vt 0.738338 0.371916
vt 0.952928 0.954178
vt 0.626055 0.954178
vt 0.621528 0.400811
vt 0.972902 0.981360
vt 0.626055 0.936730
vt 0.952928 0.936730
vt 0.908276 0.479500
vt 0.927615 0.479500
vt 0.927535 0.874493
vt 0.972902 0.460135
vt 0.941015 0.479500
vt 0.862243 0.455456
vt 0.879020 0.022071
vt 0.862244 0.869529
vt 0.960354 0.479500
vt 0.784250 0.870825
vt 0.990289 0.022071
vt 0.833013 0.869528
vt 0.990289 0.182520
vt 0.879020 0.182520
vt 0.784250 0.456751
vt 0.813482 0.456751
vt 0.960422 0.874493
vt 0.833011 0.455456
vt 0.752582 0.023081
vt 0.813481 0.870825
vt 0.862832 0.023081
vt 0.625601 0.400811
vt 0.625601 0.649617
vt 0.862244 0.898754
vt 0.784249 0.900052
vt 0.738337 0.123110
vt 0.734266 0.379449
vt 0.738339 0.379449
vt 0.738339 0.386980
vt 0.734266 0.386980
vt 0.623393 0.892540
vt 0.627233 0.892540
vt 0.621529 0.649617
vt 0.737626 0.662475
vt 0.732302 0.657150
vt 0.813481 0.900052
vt 0.952928 0.971622
vt 0.626055 0.971622
vt 0.833013 0.898754
vt 0.606123 0.024225
vt 0.606123 0.983736
vt 0.627233 0.898076
vt 0.623394 0.898076
vt 0.730951 0.892540
vt 0.730951 0.898076
vt 0.734791 0.892540
vt 0.734791 0.898076
vt 0.739838 0.657150
vt 0.621530 0.657150
vt 0.625602 0.657150
vt 0.625603 0.664681
vt 0.621530 0.664681
vt 0.732301 0.664681
vt 0.627566 0.386980
vt 0.627566 0.379449
vt 0.622241 0.384774
vt 0.620033 0.371916
vt 0.620033 0.123110
vt 0.620035 0.379449
vt 0.862832 0.182062
vt 0.752582 0.182062
vt 0.990289 0.305298
vt 0.879020 0.305298
vt 0.990289 0.428076
vt 0.879020 0.428076
vt 0.752582 0.425371
vt 0.752582 0.303716
vt 0.862832 0.303716
vt 0.862832 0.425371
vt 0.987404 0.460134
vt 0.987404 0.441539
vt 0.987404 0.962758
vt 0.987404 0.981325
vt 0.729767 0.104948
vt 0.627716 0.104948
vt 0.627716 0.027786
vt 0.729767 0.027786
vt 0.627716 0.022340
vt 0.729767 0.022340
vt 0.972902 0.441539
vt 0.941088 0.874493
vt 0.972902 0.962759
vt 0.908196 0.874493
vt 0.891470 0.455456
vt 0.891470 0.869528
vt 0.882911 0.890195
vt 0.763584 0.891492
vt 0.755022 0.456751
vt 0.755024 0.870825
vn -1.000000 -0.000000 0.000000
vn -1.000000 0.000000 0.000000
vn -1.000000 0.000000 0.000000
vn -1.000000 0.000000 0.000000
vn 1.000000 0.000000 0.000000
vn 1.000000 0.000000 0.000000
vn 1.000000 0.000000 0.000000
vn 1.000000 0.000000 0.000000
vn 0.000000 0.000000 1.000000
vn -0.000000 0.000000 1.000000
vn -0.000000 0.000000 1.000000
vn 0.000000 0.000000 1.000000
vn 0.000000 0.000000 -1.000000
vn 0.000000 0.000000 -1.000000
vn 0.000000 0.000000 -1.000000
vn 0.000000 0.000000 -1.000000
vn 0.000000 1.000000 0.000000
vn 0.000000 1.000000 0.000000
vn 0.000000 1.000000 0.000000
vn 0.000000 1.000000 0.000000
vn 0.000000 1.000000 0.000000
vn 0.000000 0.999806 0.019686
vn 0.000000 0.999806 0.019686
vn 0.000000 1.000000 0.000000
vn 0.000001 0.000000 1.000000
vn 0.000001 0.000000 1.000000
vn 0.000000 0.000000 -1.000000
vn 0.000000 0.000000 -1.000000
vn -0.000001 0.000000 1.000000
vn -0.000001 0.000000 1.000000
vn 0.000000 1.000000 0.000000
vn 0.000000 0.999806 0.019686
vn 0.000000 0.999806 0.019686
vn 0.000000 1.000000 0.000000
vn 0.000000 0.000000 -1.000000
vn 0.000000 0.000000 -1.000000
vn 1.000000 0.000000 0.000000
vn 1.000000 0.000000 0.000000
vn 0.000000 1.000000 0.000000
vn 0.000000 1.000000 0.000000
vn 0.000000 1.000000 0.000000
vn 0.000000 1.000000 0.000000
vn -1.000000 0.000000 0.000000
vn -1.000000 0.000000 0.000000
vn -1.000000 -0.000000 0.000000
vn -1.000000 0.000000 0.000000
vn -1.000000 -0.000001 0.000000
vn -1.000000 -0.000000 0.000000
vn -1.000000 -0.000000 0.000000
vn 0.000001 -0.000000 1.000000
vn 0.000001 -0.000000 1.000000
vn 0.000001 0.169083 0.985602
vn 0.000001 0.169083 0.985602
vn -0.000001 -0.000000 1.000000
vn -0.000001 -0.000000 1.000000
vn -0.000001 0.169083 0.985602
vn -0.000001 0.169083 0.985602
vn -1.000000 0.000000 0.000000
vn -1.000000 0.000000 0.000000
vn -1.000000 0.000000 0.000000
vn -1.000000 0.000000 0.000000
vn 1.000000 0.000000 0.000000
vn 1.000000 0.000000 0.000000
vn 1.000000 0.000000 0.000000
vn 1.000000 0.000000 0.000000
vn 0.000000 0.000000 -1.000000
vn 0.000000 0.000000 -1.000000
vn 0.000000 0.000000 -1.000000
vn 0.000000 0.000000 -1.000000
vn 0.000000 0.000000 -1.000000
vn 0.000000 0.000000 -1.000000
vn 0.000000 0.000000 -1.000000
vn 0.000000 0.000000 -1.000000
vn 0.000000 0.000000 1.000000
vn 0.000000 0.000000 1.000000
vn 0.000000 0.000000 1.000000
vn 0.000000 0.000000 1.000000
vn -1.000000 0.000000 0.000000
vn -1.000000 0.000000 0.000000
vn -1.000000 0.000000 0.000000
vn -1.000000 0.000000 0.000000
vn 0.000000 0.000000 -1.000000
vn 0.000000 0.000000 -1.000000
vn 0.000000 0.000000 -1.000000
vn 0.000000 0.000000 -1.000000
vn 0.000000 0.382684 0.923880
vn 0.000000 0.382684 0.923880
vn 0.000000 0.923880 0.382682
vn 0.000000 0.923880 0.382682
vn 0.000000 0.923880 0.382682
vn 0.000000 0.923880 0.382682
vn 0.000000 0.382684 0.923880
vn 0.000000 0.382684 0.923880
vn 1.000000 0.000000 0.000000
vn 1.000000 0.000000 0.000000
vn 1.000000 0.000000 0.000000
vn 1.000000 0.000000 0.000000
vn 1.000000 -0.000001 0.000000
vn 1.000000 -0.000000 0.000000
vn 1.000000 -0.000000 0.000000
vn 1.000000 -0.000001 0.000000
vn -1.000000 -0.000001 0.000000
vn -1.000000 -0.000000 0.000000
vn -1.000000 -0.000001 0.000000
vn 1.000000 0.000000 0.000000
vn 1.000000 0.000000 0.000000
vn 0.000000 1.000000 0.000000
vn 0.000000 1.000000 0.000000
vn -1.000000 0.000000 0.000000
vn -1.000000 0.000000 0.000000
vn 1.000000 -0.000002 0.000000
vn 1.000000 0.000000 0.000000
vn 1.000000 0.000000 0.000000
vn 1.000000 -0.000000 0.000000
vn 1.000000 0.000000 0.000000
vn 1.000000 0.000000 0.000000
vn 1.000000 0.000000 0.000000
vn 1.000000 0.000000 0.000000
vn 1.000000 0.000000 0.000000
vn 0.000000 0.000000 -1.000000
vn 0.000000 0.000000 -1.000000
vn 0.000000 0.000000 -1.000000
vn 0.000000 0.000000 -1.000000
vn 0.000000 0.000000 -1.000000
vn 0.000000 0.000000 -1.000000
vn -1.000000 0.000000 0.000000
vn -1.000000 0.000000 0.000000
vn -1.000000 0.000000 0.000000
vn -1.000000 0.000001 0.000000
vn -1.000000 0.000001 0.000000
vn 0.000000 0.000000 1.000000
vn 0.000000 0.000000 1.000000
vn 1.000000 0.000000 0.000000
vn 1.000000 0.000000 0.000000
vn 1.000000 0.000000 0.000000
s 1
g Bin01_LP
usemtl initialShadingGroup
f 43/1/1 44/2/2 2/3/3 4/21/4
s 2
f 47/4/5 48/5/6 18/6/7 19/22/8
s 3
f 11/7/9 14/8/10 15/13/11 10/14/12
s 4
f 16/9/13 13/10/14 12/11/15 9/12/16
s 5
f 20/103/17 21/104/18 45/105/19 46/106/20
s 6
f 24/112/21 35/30/22 33/31/23 23/32/24
s 3
f 2/17/25 11/7/9 10/14/12 4/18/26
s 4
f 9/12/16 12/11/15 1/15/27 3/16/28
s 3
f 15/13/11 14/8/10 8/69/29 6/70/30
s 6
f 26/110/31 38/34/32 40/38/33 25/46/34
s 4
f 7/19/35 13/10/14 16/9/13 5/20/36
s 2
f 5/23/37 19/22/8 18/6/7 7/55/38
s 6
f 27/99/39 26/33/31 25/109/34 28/100/40
f 26/33/31 27/99/39 29/101/41 23/111/24
f 30/102/42 24/27/21 23/111/24 29/101/41
s 1
f 1/26/43 17/51/44 22/52/45 3/62/46
f 34/63/47 56/64/48 36/77/49
s 9
f 4/36/50 10/40/51 32/42/52 36/43/53
s 10
f 15/48/54 6/50/55 42/89/56 39/90/57
s 11
f 57/39/58 58/44/59 20/45/60 46/49/61
s 12
f 50/56/62 51/57/63 28/58/64 25/59/65
s 13
f 51/60/66 52/61/67 27/71/68 28/72/69
s 14
f 27/71/70 52/61/71 53/73/72 29/74/73
s 15
f 58/24/74 59/25/75 21/28/76 20/29/77
s 16
f 54/78/78 55/79/79 24/80/80 30/81/81
s 17
f 53/73/82 54/75/83 30/76/84 29/74/85
s 9
f 32/42/52 31/91/86 34/92/87 36/43/53
s 6
f 31/91/88 33/93/23 35/94/22 34/92/89
f 38/95/32 37/96/90 41/97/91 40/98/33
s 10
f 37/96/92 39/90/57 42/89/56 41/97/93
s 18
f 59/35/94 60/37/95 45/41/96 21/47/97
s 19
f 40/83/98 49/84/99 50/56/100 25/59/101
s 1
f 24/80/102 55/79/103 56/64/48 35/82/104
f 17/51/44 44/2/2 43/1/1 22/52/45
s 18
f 45/41/96 60/37/95 32/53/105 10/68/106
s 5
f 46/106/20 45/105/19 10/107/107 15/108/108
s 11
f 39/54/109 57/39/58 46/49/61 15/65/110
s 19
f 40/83/98 41/85/111 49/84/99
s 2
f 6/86/112 8/87/113 48/5/6 47/4/5
s 19
f 49/84/99 42/88/114 6/86/115 47/4/116
f 50/56/100 49/84/99 47/4/116 19/22/117
s 12
f 19/22/118 5/23/119 51/57/63 50/56/62
s 13
f 5/20/120 16/9/121 52/61/67 51/60/66
s 14
f 53/73/72 52/61/71 16/9/122 9/12/123
s 17
f 9/12/124 3/16/125 54/75/83 53/73/82
s 16
f 3/62/126 22/52/127 55/79/79 54/78/78
s 1
f 56/64/48 55/79/103 22/52/45 43/1/1
f 36/77/49 56/64/48 43/1/1 4/21/4
f 35/82/104 56/64/48 34/63/47
s 19
f 49/84/99 41/85/111 42/88/114
s 11
f 37/116/128 57/39/58 39/54/109
f 26/117/129 58/44/59 57/39/58 38/118/130
s 15
f 26/66/131 23/67/132 59/25/75 58/24/74
s 18
f 23/113/133 33/114/134 60/37/95 59/35/94
f 31/115/135 60/37/95 33/114/134
f 32/53/105 60/37/95 31/115/135
s 11
f 38/118/130 57/39/58 37/116/128
