# This file uses centimeters as units for non-parametric coordinates.

mtllib FoodBasket_model.mtl
g default
v 0.106851 -0.020227 -0.031694
v 0.066038 -0.020227 -0.082977
v -0.000000 -0.020227 -0.102565
v -0.066038 -0.020227 -0.082977
v -0.106851 -0.020227 -0.031694
v -0.106851 -0.020227 0.031694
v -0.066038 -0.020227 0.082977
v -0.000000 -0.020227 0.102565
v 0.066038 -0.020227 0.082977
v 0.106851 -0.020227 0.031694
v 0.139760 0.020227 -0.041456
v 0.086376 0.020227 -0.108532
v 0.000000 0.020227 -0.134153
v -0.086376 0.020227 -0.108532
v -0.139760 0.020227 -0.041455
v -0.139760 0.020227 0.041456
v -0.086376 0.020227 0.108532
v -0.000000 0.020227 0.134153
v 0.086376 0.020227 0.108532
v 0.139760 0.020227 0.041456
v 0.000000 -0.020227 0.000000
v 0.134534 0.020227 -0.039906
v 0.083147 0.020227 -0.104474
v 0.000000 0.020227 -0.129137
v -0.083147 0.020227 -0.104474
v -0.134534 0.020227 -0.039905
v -0.134534 0.020227 0.039906
v -0.083147 0.020227 0.104474
v -0.000000 0.020227 0.129137
v 0.083147 0.020227 0.104474
v 0.134534 0.020227 0.039906
v 0.105851 -0.015798 -0.031398
v 0.065420 -0.015798 -0.082200
v 0.000000 -0.015798 -0.101605
v -0.065420 -0.015798 -0.082200
v -0.105851 -0.015798 -0.031398
v -0.105851 -0.015798 0.031398
v -0.065420 -0.015798 0.082200
v -0.000000 -0.015798 0.101605
v 0.065420 -0.015798 0.082200
v 0.105851 -0.015798 0.031398
v -0.000000 -0.015798 -0.000000
vt 0.873726 0.079087
vt 0.844490 0.042353
vt 0.797187 0.028322
vt 0.749883 0.042353
vt 0.720648 0.079087
vt 0.720648 0.124493
vt 0.749884 0.161227
vt 0.797187 0.175258
vt 0.844490 0.161227
vt 0.873725 0.124493
vt 0.523072 0.366552
vt 0.895147 0.764875
vt 0.797187 0.098851
vt 0.491532 0.285890
vt 0.493927 0.277816
vt 0.597573 0.360223
vt 0.591303 0.365213
vt 0.637162 0.493579
vt 0.629412 0.493579
vt 0.597573 0.626934
vt 0.591303 0.621945
vt 0.493927 0.709337
vt 0.491532 0.701263
vt 0.365814 0.709335
vt 0.368209 0.701262
vt 0.262169 0.626928
vt 0.268439 0.621939
vt 0.222580 0.493572
vt 0.230330 0.493572
vt 0.262169 0.360217
vt 0.268439 0.365207
vt 0.365814 0.277815
vt 0.368209 0.285889
vt 0.892465 0.948193
vt 0.953763 0.960466
vt 0.685435 0.118900
vt 0.580038 0.210119
vt 0.828054 0.358326
vt 0.657838 0.393169
vt 0.827267 0.654273
vt 0.657925 0.619431
vt 0.684644 0.893700
vt 0.578567 0.802481
vt 0.480855 0.985153
vt 0.406781 0.872400
vt 0.166720 0.893700
vt 0.272118 0.802481
vt 0.194317 0.619431
vt 0.024101 0.654273
vt 0.445374 0.140200
vt 0.286481 0.429947
vt 0.371301 0.027447
vt 0.273589 0.210119
vt 0.951630 0.762794
vt 0.576224 0.453216
vt 0.952886 0.851638
vt 0.893568 0.853690
vt 0.953763 0.024285
vt 0.430003 0.492396
vt 0.892465 0.036225
vt 0.952886 0.133485
vt 0.893568 0.131053
vt 0.344001 0.352171
vt 0.951630 0.222257
vt 0.895147 0.220774
vt 0.951630 0.303168
vt 0.434371 0.327957
vt 0.895147 0.305319
vt 0.952886 0.391660
vt 0.893568 0.394511
vt 0.516005 0.632621
vt 0.953763 0.492743
vt 0.892465 0.492391
vt 0.952886 0.593802
vt 0.425635 0.656835
vt 0.893568 0.590662
vt 0.951630 0.682009
vt 0.895147 0.680475
vt 0.573525 0.554845
vt 0.370211 0.985153
vt 0.443079 0.872400
vt 0.481944 0.027447
vt 0.336934 0.618239
vt 0.409077 0.140200
vt 0.024889 0.358326
vt 0.194231 0.393169
vt 0.283782 0.531575
vt 0.167512 0.118900
vn 0.720619 -0.646592 -0.250255
vn 0.717382 -0.646324 -0.260056
vn 0.425246 -0.626456 -0.653237
vn 0.437632 -0.627092 -0.644387
vn -0.000000 -0.615445 -0.788180
vn 0.000000 -0.615445 -0.788180
vn -0.425246 -0.626455 -0.653237
vn -0.437632 -0.627092 -0.644387
vn -0.717382 -0.646324 -0.260056
vn -0.720619 -0.646592 -0.250255
vn -0.717382 -0.646324 0.260057
vn -0.720619 -0.646592 0.250255
vn -0.425246 -0.626456 0.653237
vn -0.437631 -0.627092 0.644387
vn -0.000000 -0.615446 0.788179
vn 0.000000 -0.615446 0.788179
vn 0.425246 -0.626456 0.653237
vn 0.437631 -0.627092 0.644387
vn 0.717381 -0.646324 0.260057
vn 0.720618 -0.646592 0.250255
vn 0.000000 -1.000000 -0.000000
vn 0.000000 -1.000000 0.000000
vn 0.000000 -1.000000 -0.000000
vn 0.000000 -1.000000 -0.000000
vn 0.000000 -1.000000 0.000000
vn 0.000000 -1.000000 0.000000
vn 0.000000 -1.000000 -0.000000
vn 0.000000 -1.000000 -0.000000
vn 0.000000 -1.000000 0.000000
vn 0.000000 -1.000000 0.000000
vn 0.000000 -1.000000 0.000000
vn 0.000000 1.000000 -0.000000
vn 0.000000 1.000000 -0.000000
vn 0.000000 1.000000 -0.000000
vn 0.000000 1.000000 -0.000000
vn 0.000000 1.000000 -0.000000
vn 0.000000 1.000000 -0.000000
vn 0.000000 1.000000 0.000000
vn 0.000000 1.000000 0.000000
vn 0.000000 1.000000 0.000000
vn 0.000000 1.000000 0.000000
vn 0.000000 1.000000 0.000000
vn 0.000000 1.000000 0.000000
vn 0.000000 1.000000 0.000000
vn 0.000000 1.000000 0.000000
vn 0.000000 1.000000 0.000000
vn 0.000000 1.000000 0.000000
vn 0.000000 1.000000 0.000000
vn 0.000000 1.000000 0.000000
vn 0.000000 1.000000 -0.000000
vn 0.000000 1.000000 -0.000000
vn -0.723785 0.638218 0.262321
vn -0.727012 0.638484 0.252569
vn -0.441189 0.618896 0.649861
vn -0.428866 0.618267 0.658650
vn -0.000000 0.607219 0.794535
vn 0.000000 0.607219 0.794535
vn 0.441190 0.618897 0.649861
vn 0.428867 0.618267 0.658650
vn 0.727012 0.638484 0.252569
vn 0.723785 0.638218 0.262322
vn 0.727012 0.638484 -0.252569
vn 0.723785 0.638218 -0.262322
vn 0.441189 0.618897 -0.649861
vn 0.428866 0.618267 -0.658650
vn 0.000000 0.607219 -0.794535
vn 0.000000 0.607219 -0.794535
vn -0.441189 0.618897 -0.649860
vn -0.428866 0.618267 -0.658650
vn -0.727012 0.638484 -0.252570
vn -0.723785 0.638218 -0.262323
vn 0.000000 1.000000 0.000000
vn 0.000000 1.000000 0.000000
vn 0.000000 1.000000 0.000000
vn 0.000000 1.000000 0.000000
vn 0.000000 1.000000 0.000000
vn 0.000000 1.000000 -0.000000
vn 0.000000 1.000000 -0.000000
vn 0.000000 1.000000 0.000000
vn 0.000000 1.000000 0.000000
vn 0.000000 1.000000 0.000000
vn 0.000000 1.000000 0.000000
s 1
g FoodBasket_LP
usemtl initialShadingGroup
f 11/49/1 1/48/2 2/47/3 12/46/4
f 12/46/4 2/47/3 3/45/5 13/80/6
f 13/44/6 3/81/5 4/43/7 14/42/8
f 14/42/8 4/43/7 5/41/9 15/40/10
f 15/40/10 5/41/9 6/39/11 16/38/12
f 16/38/12 6/39/11 7/37/13 17/36/14
f 17/36/14 7/37/13 8/50/15 18/82/16
f 18/52/16 8/84/15 9/53/17 19/88/18
f 19/88/18 9/53/17 10/86/19 20/85/20
f 20/85/20 10/86/19 1/48/2 11/49/1
s 2
f 2/2/21 1/1/22 21/13/23
f 3/3/24 2/2/21 21/13/23
f 4/4/25 3/3/24 21/13/23
f 5/5/26 4/4/25 21/13/23
f 6/6/27 5/5/26 21/13/23
f 7/7/28 6/6/27 21/13/23
f 8/8/29 7/7/28 21/13/23
f 9/9/30 8/8/29 21/13/23
f 10/10/31 9/9/30 21/13/23
f 1/1/22 10/10/31 21/13/23
s 3
f 22/14/32 11/15/33 12/16/34 23/17/35
f 23/17/35 12/16/34 13/18/36 24/19/37
f 24/19/37 13/18/36 14/20/38 25/21/39
f 25/21/39 14/20/38 15/22/40 26/23/41
f 26/23/41 15/22/40 16/24/42 27/25/43
f 27/25/43 16/24/42 17/26/44 28/27/45
f 28/27/45 17/26/44 18/28/46 29/29/47
f 29/29/47 18/28/46 19/30/48 30/31/49
f 30/31/49 19/30/48 20/32/50 31/33/51
f 31/33/51 20/32/50 11/15/33 22/14/32
s 4
f 32/12/52 22/54/53 23/56/54 33/57/55
f 33/57/55 23/56/54 24/35/56 34/34/57
f 34/60/57 24/58/56 25/61/58 35/62/59
f 35/62/59 25/61/58 26/64/60 36/65/61
f 36/65/61 26/64/60 27/66/62 37/68/63
f 37/68/63 27/66/62 28/69/64 38/70/65
f 38/70/65 28/69/64 29/72/66 39/73/67
f 39/73/67 29/72/66 30/74/68 40/76/69
f 40/76/69 30/74/68 31/77/70 41/78/71
f 41/78/71 31/77/70 22/54/53 32/12/52
s 5
f 38/11/72 39/55/73 42/59/74
f 36/63/75 37/67/76 42/59/74
f 42/59/74 37/67/76 38/11/72
f 42/59/74 41/71/77 32/75/78
f 42/59/74 39/55/73 40/79/79
f 42/59/74 40/79/79 41/71/77
f 33/83/80 34/87/81 42/59/74
f 32/75/78 33/83/80 42/59/74
f 42/59/74 34/87/81 35/51/82
f 42/59/74 35/51/82 36/63/75
