# This file uses centimeters as units for non-parametric coordinates.

mtllib Clock01_model.mtl
g default
v 0.015682 -0.035706 0.036202
v -0.000000 0.159583 0.036202
v -0.015682 -0.035706 0.036202
vt 0.638778 0.388757
vt 0.590539 0.388757
vt 0.614658 0.095874
vn -0.000000 0.000000 1.000000
vn -0.000000 0.000000 1.000000
vn -0.000000 0.000000 1.000000
s off
g LargeHand_LP Clock01_model Clock01
usemtl initialShadingGroup
f 3/1/1 1/2/2 2/3/3
g default
v -0.021716 -0.004299 0.023228
v 0.115496 -0.041489 0.023228
v -0.014016 0.017136 0.023228
vt 0.509084 0.045174
vt 0.566725 0.045174
vt 0.537904 0.371973
vn -0.000000 0.000000 1.000000
vn -0.000000 0.000000 1.000000
vn -0.000000 0.000000 1.000000
s off
g Clock01_model Clock01 SmallHand_LP
usemtl initialShadingGroup
f 6/4/4 4/5/5 5/6/6
g default
v -0.000000 -0.000000 0.018159
v -0.086453 0.266077 -0.031366
v -0.073421 0.225966 0.034150
v -0.065342 0.201101 0.015566
v -0.164444 0.226338 -0.031366
v -0.139655 0.192219 0.034150
v -0.124288 0.171067 0.015566
v -0.226338 0.164444 -0.031366
v -0.192218 0.139655 0.034150
v -0.171067 0.124288 0.015566
v -0.266077 0.086454 -0.031366
v -0.225966 0.073421 0.034150
v -0.201101 0.065342 0.015566
v -0.279769 0.000000 -0.031366
v -0.237595 0.000000 0.034150
v -0.211451 0.000000 0.015566
v -0.266077 -0.086453 -0.031366
v -0.225966 -0.073421 0.034150
v -0.201101 -0.065342 0.015566
v -0.226338 -0.164444 -0.031366
v -0.192219 -0.139655 0.034150
v -0.171067 -0.124287 0.015566
v -0.164444 -0.226338 -0.031366
v -0.139655 -0.192218 0.034150
v -0.124288 -0.171067 0.015566
v -0.086454 -0.266077 -0.031366
v -0.073421 -0.225966 0.034150
v -0.065342 -0.201101 0.015566
v -0.000000 -0.279769 -0.031366
v -0.000000 -0.237595 0.034150
v -0.000000 -0.211451 0.015566
v 0.086453 -0.266077 -0.031366
v 0.073421 -0.225966 0.034150
v 0.065342 -0.201101 0.015566
v 0.164444 -0.226338 -0.031366
v 0.139655 -0.192218 0.034150
v 0.124287 -0.171067 0.015566
v 0.226338 -0.164444 -0.031366
v 0.192218 -0.139655 0.034150
v 0.171067 -0.124288 0.015566
v 0.266077 -0.086454 -0.031366
v 0.225966 -0.073421 0.034150
v 0.201101 -0.065342 0.015566
v 0.279769 -0.000000 -0.031366
v 0.237595 -0.000000 0.034150
v 0.211451 -0.000000 0.015566
v 0.266077 0.086453 -0.031366
v 0.225966 0.073421 0.034150
v 0.201101 0.065342 0.015566
v 0.226338 0.164444 -0.031366
v 0.192218 0.139655 0.034150
v 0.171067 0.124287 0.015566
v 0.164444 0.226338 -0.031366
v 0.139655 0.192218 0.034150
v 0.124287 0.171067 0.015566
v 0.086453 0.266077 -0.031366
v 0.073421 0.225966 0.034150
v 0.065342 0.201101 0.015566
v 0.000000 0.279769 -0.031366
v -0.000000 0.237595 0.034150
v -0.000000 0.211451 0.015566
v -0.000000 0.211451 0.041457
v -0.000000 0.236393 0.045928
v -0.065342 0.201101 0.041457
v -0.073050 0.224823 0.045928
v -0.124288 0.171067 0.041457
v -0.138949 0.191246 0.045928
v -0.171067 0.124288 0.041457
v -0.191246 0.138949 0.045928
v -0.201101 0.065342 0.041457
v -0.224823 0.073050 0.045928
v -0.211451 0.000000 0.041457
v -0.236393 0.000000 0.045928
v -0.201101 -0.065342 0.041457
v -0.224823 -0.073050 0.045928
v -0.171067 -0.124287 0.041457
v -0.191246 -0.138949 0.045928
v -0.124288 -0.171067 0.041457
v -0.138949 -0.191246 0.045928
v -0.065342 -0.201101 0.041457
v -0.073050 -0.224823 0.045928
v -0.000000 -0.211451 0.041457
v -0.000000 -0.236393 0.045928
v 0.065342 -0.201101 0.041457
v 0.073050 -0.224823 0.045928
v 0.124287 -0.171067 0.041457
v 0.138949 -0.191246 0.045928
v 0.171067 -0.124288 0.041457
v 0.191246 -0.138949 0.045928
v 0.201101 -0.065342 0.041457
v 0.224823 -0.073050 0.045928
v 0.211451 -0.000000 0.041457
v 0.236393 -0.000000 0.045928
v 0.201101 0.065342 0.041457
v 0.224823 0.073050 0.045928
v 0.171067 0.124287 0.041457
v 0.191246 0.138948 0.045928
v 0.124287 0.171067 0.041457
v 0.138949 0.191246 0.045928
v 0.065342 0.201101 0.041457
v 0.073050 0.224823 0.045928
v -0.086453 0.266077 -0.071135
v 0.000000 0.279769 -0.071135
v 0.086453 0.266077 -0.071135
v 0.164444 0.226338 -0.071135
v 0.226338 0.164444 -0.071135
v 0.266077 0.086453 -0.071135
v 0.279769 -0.000000 -0.071135
v 0.266077 -0.086454 -0.071135
v 0.226338 -0.164444 -0.071135
v 0.164444 -0.226338 -0.071135
v 0.086453 -0.266077 -0.071135
v -0.000000 -0.279769 -0.071135
v -0.086454 -0.266077 -0.071135
v -0.164444 -0.226338 -0.071135
v -0.226338 -0.164444 -0.071135
v -0.266077 -0.086453 -0.071135
v -0.279769 0.000000 -0.071135
v -0.266077 0.086454 -0.071135
v -0.226338 0.164444 -0.071135
v -0.164444 0.226338 -0.071135
v -0.088561 0.272562 -0.091821
v -0.168452 0.231855 -0.091821
v -0.231855 0.168452 -0.091821
v -0.272562 0.088561 -0.091821
v -0.286588 0.000000 -0.091821
v -0.272562 -0.088561 -0.091821
v -0.231855 -0.168452 -0.091821
v -0.168452 -0.231855 -0.091821
v -0.088561 -0.272562 -0.091821
v -0.000000 -0.286588 -0.091821
v 0.088561 -0.272562 -0.091821
v 0.168452 -0.231855 -0.091821
v 0.231855 -0.168452 -0.091821
v 0.272562 -0.088561 -0.091821
v 0.286588 -0.000000 -0.091821
v 0.272562 0.088561 -0.091821
v 0.231855 0.168452 -0.091821
v 0.168452 0.231855 -0.091821
v 0.088561 0.272562 -0.091821
v 0.000000 0.286588 -0.091821
vt 0.682879 0.141374
vt 0.682879 0.050723
vt 0.755841 0.040482
vt 0.755841 0.132214
vt 0.682879 0.233525
vt 0.755841 0.223815
vt 0.682879 0.330139
vt 0.755841 0.320917
vt 0.682879 0.422282
vt 0.755841 0.413143
vt 0.682879 0.513912
vt 0.755841 0.504537
vt 0.682879 0.607773
vt 0.755841 0.598289
vt 0.682879 0.702373
vt 0.755841 0.693124
vt 0.682879 0.794996
vt 0.755841 0.785609
vt 0.682879 0.888769
vt 0.755841 0.879482
vt 0.233419 0.970432
vt 0.350839 0.089993
vt 0.334159 0.316476
vt 0.682879 0.962118
vt 0.347624 0.029501
vt 0.362492 0.088967
vt 0.755841 0.972359
vt 0.316612 0.041581
vt 0.329193 0.091902
vt 0.842921 0.140458
vt 0.307119 0.093898
vt 0.314739 0.277319
vt 0.842921 0.050723
vt 0.303619 0.144427
vt 0.325211 0.149397
vt 0.915884 0.040482
vt 0.284676 0.191402
vt 0.303657 0.202848
vt 0.915883 0.132213
vt 0.252125 0.230271
vt 0.266640 0.247022
vt 0.842921 0.232554
vt 0.213453 0.254488
vt 0.109781 0.351921
vt 0.915883 0.223815
vt 0.132482 0.303946
vt 0.110662 0.300059
vt 0.842921 0.329217
vt 0.148951 0.255997
vt 0.129400 0.245556
vt 0.915884 0.320917
vt 0.179431 0.215484
vt 0.164063 0.199512
vt 0.842921 0.421368
vt 0.220938 0.186372
vt 0.211257 0.166433
vt 0.915883 0.413143
vt 0.264563 0.172997
vt 0.046157 0.274943
vt 0.842921 0.512974
vt 0.068718 0.226901
vt 0.046886 0.223078
vt 0.915883 0.504536
vt 0.085046 0.178904
vt 0.065464 0.168521
vt 0.842921 0.606824
vt 0.115407 0.138302
vt 0.099991 0.122375
vt 0.915883 0.598289
vt 0.156828 0.109068
vt 0.147089 0.089158
vt 0.842921 0.701448
vt 0.200413 0.095565
vt 0.412077 0.061655
vt 0.915884 0.693124
vt 0.404008 0.114114
vt 0.426031 0.111613
vt 0.842921 0.794057
vt 0.401905 0.164769
vt 0.423624 0.169196
vt 0.915883 0.785609
vt 0.384253 0.212295
vt 0.403539 0.223217
vt 0.352778 0.252040
vt 0.367746 0.268388
vt 0.346386 0.154271
vt 0.357791 0.156896
vt 0.322290 0.214027
vt 0.332331 0.220034
vt 0.280906 0.263412
vt 0.288599 0.272228
vt 0.088276 0.354276
vt 0.076697 0.355558
vt 0.089261 0.296295
vt 0.077734 0.294284
vt 0.110209 0.235364
vt 0.099868 0.229889
vt 0.148961 0.183888
vt 0.140819 0.175486
vt 0.201723 0.146907
vt 0.196576 0.136399
vt 0.800405 0.132214
vt 0.800405 0.040482
vt 0.842921 0.888769
vt 0.915883 0.879482
vt 0.915884 0.972359
vt 0.842921 0.962118
vt 0.960448 0.879482
vt 0.960447 0.972359
vt 0.960447 0.785609
vt 0.960447 0.693124
vt 0.960447 0.598289
vt 0.800405 0.879482
vt 0.800405 0.972359
vt 0.800405 0.785609
vt 0.800405 0.693124
vt 0.800405 0.598289
vt 0.800405 0.504536
vt 0.800405 0.413143
vt 0.800405 0.320917
vt 0.800405 0.223815
vt 0.823266 0.040482
vt 0.823266 0.132214
vt 0.823266 0.223815
vt 0.823265 0.320916
vt 0.823266 0.413143
vt 0.823266 0.504536
vt 0.823266 0.598289
vt 0.823266 0.693124
vt 0.823266 0.785609
vt 0.823265 0.879482
vt 0.823266 0.972359
vt 0.960447 0.504536
vt 0.960448 0.413143
vt 0.960447 0.320917
vt 0.960448 0.223815
vt 0.960448 0.132214
vt 0.960448 0.040482
vt 0.983308 0.040482
vt 0.983308 0.132214
vt 0.983308 0.223815
vt 0.333298 0.663037
vt 0.333298 0.986251
vt 0.143317 0.924523
vt 0.071812 0.853018
vt 0.025903 0.762916
vt 0.010083 0.663037
vt 0.025903 0.563158
vt 0.071812 0.473056
vt 0.143317 0.401551
vt 0.233419 0.355641
vt 0.333298 0.339822
vt 0.433177 0.355641
vt 0.523279 0.401551
vt 0.594784 0.473056
vt 0.640693 0.563158
vt 0.656513 0.663037
vt 0.640693 0.762916
vt 0.594784 0.853018
vt 0.523279 0.924523
vt 0.433177 0.970432
vt 0.024659 0.277361
vt 0.013084 0.278677
vt 0.025474 0.219378
vt 0.013941 0.217400
vt 0.046243 0.158385
vt 0.035886 0.152940
vt 0.084844 0.106796
vt 0.076676 0.098417
vt 0.137497 0.069661
vt 0.132319 0.059168
vt 0.432016 0.053263
vt 0.442747 0.048730
vt 0.447615 0.109114
vt 0.459237 0.107753
vt 0.444925 0.173489
vt 0.456398 0.175786
vt 0.422472 0.233882
vt 0.432674 0.239612
vt 0.382455 0.284381
vt 0.390387 0.292983
vt 0.983308 0.320917
vt 0.983308 0.413143
vt 0.983308 0.504536
vt 0.983308 0.598289
vt 0.983308 0.693124
vt 0.983308 0.785609
vt 0.983308 0.879482
vt 0.983308 0.972359
vt 0.682879 0.123040
vt 0.682879 0.215571
vt 0.682879 0.312177
vt 0.682879 0.404843
vt 0.682879 0.496311
vt 0.682879 0.589852
vt 0.682879 0.684589
vt 0.682879 0.777285
vt 0.682879 0.871033
vt 0.842921 0.870094
vt 0.842921 0.776360
vt 0.842921 0.683641
vt 0.842921 0.588914
vt 0.842921 0.495397
vt 0.842921 0.403920
vt 0.842921 0.311207
vt 0.842921 0.214655
vt 0.842921 0.123040
vt 0.336773 0.033737
vt 0.339349 0.326906
vt 0.296041 0.049590
vt 0.324545 0.297097
vt 0.190862 0.041046
vt 0.192894 0.052517
vt 0.196640 0.073824
vt 0.391719 0.070171
vt 0.236652 0.304741
vt 0.231749 0.294173
vt 0.222670 0.274538
vt 0.131722 0.349569
vt 0.255171 0.118451
vt 0.257169 0.129927
vt 0.260853 0.151245
vt 0.068091 0.272526
vn -0.003788 0.011658 0.999925
vn 0.000000 -0.000000 1.000000
vn 0.000000 0.012258 0.999925
vn -0.007205 0.009917 0.999925
vn -0.009917 0.007205 0.999925
vn -0.011658 0.003788 0.999925
vn -0.012258 0.000000 0.999925
vn -0.011658 -0.003788 0.999925
vn -0.009917 -0.007205 0.999925
vn -0.007205 -0.009917 0.999925
vn -0.003788 -0.011658 0.999925
vn -0.000000 -0.012258 0.999925
vn 0.003788 -0.011658 0.999925
vn 0.007205 -0.009917 0.999925
vn 0.009917 -0.007205 0.999925
vn 0.011658 -0.003788 0.999925
vn 0.012258 -0.000000 0.999925
vn 0.011658 0.003788 0.999925
vn 0.009917 0.007205 0.999925
vn 0.007205 0.009917 0.999925
vn 0.003788 0.011658 0.999925
vn -0.259835 0.799692 0.541275
vn 0.000001 0.840846 0.541275
vn 0.000001 0.934779 0.355230
vn -0.288862 0.889028 0.355230
vn -0.494237 0.680259 0.541274
vn -0.549450 0.756252 0.355230
vn -0.680259 0.494237 0.541274
vn -0.756252 0.549449 0.355230
vn -0.799692 0.259836 0.541274
vn -0.889028 0.288863 0.355230
vn -0.840847 -0.000000 0.541273
vn -0.934779 -0.000000 0.355229
vn -0.799693 -0.259836 0.541273
vn -0.889028 -0.288863 0.355229
vn -0.680259 -0.494237 0.541274
vn -0.756252 -0.549450 0.355229
vn -0.494237 -0.680259 0.541274
vn -0.549450 -0.756252 0.355230
vn -0.259836 -0.799692 0.541274
vn -0.288863 -0.889028 0.355230
vn -0.000000 -0.840846 0.541274
vn -0.000000 -0.934779 0.355230
vn 0.259836 -0.799692 0.541274
vn 0.288863 -0.889028 0.355230
vn 0.494237 -0.680259 0.541274
vn 0.549449 -0.756252 0.355230
vn 0.680258 -0.494237 0.541275
vn 0.756252 -0.549450 0.355230
vn 0.799692 -0.259836 0.541275
vn 0.889027 -0.288863 0.355230
vn 0.840846 0.000000 0.541275
vn 0.934779 0.000000 0.355230
vn 0.799692 0.259836 0.541275
vn 0.889027 0.288863 0.355230
vn 0.680259 0.494237 0.541274
vn 0.756252 0.549449 0.355230
vn 0.494237 0.680259 0.541274
vn 0.549449 0.756252 0.355230
vn 0.259835 0.799692 0.541275
vn 0.288862 0.889028 0.355230
vn -0.104694 0.322216 0.940859
vn 0.000000 0.338796 0.940860
vn 0.000001 0.994835 0.101511
vn -0.307420 0.946144 0.101512
vn -0.000001 -0.731116 0.682253
vn 0.225927 -0.695333 0.682253
vn 0.309016 -0.951057 0.000000
vn -0.000001 -1.000000 -0.000000
vn 0.587785 -0.809017 0.000000
vn 0.429739 -0.591486 0.682253
vn 0.809017 -0.587785 0.000000
vn 0.591485 -0.429739 0.682253
vn 0.951056 -0.309018 0.000000
vn 0.695332 -0.225928 0.682254
vn 1.000000 -0.000000 0.000000
vn 0.731115 -0.000000 0.682255
vn 0.951056 0.309017 0.000000
vn 0.695332 0.225927 0.682254
vn 0.809017 0.587785 0.000000
vn 0.591485 0.429739 0.682254
vn 0.587785 0.809017 0.000000
vn 0.429739 0.591485 0.682253
vn 0.309017 0.951057 0.000000
vn 0.225927 0.695332 0.682254
vn 0.000000 1.000000 0.000000
vn 0.000000 0.731115 0.682254
vn -0.309017 0.951057 -0.000000
vn -0.225927 0.695331 0.682255
vn -0.587785 0.809017 -0.000000
vn -0.429739 0.591484 0.682254
vn -0.809017 0.587785 -0.000000
vn -0.591485 0.429738 0.682254
vn -0.951056 0.309017 -0.000000
vn -0.695332 0.225927 0.682254
vn -1.000000 0.000000 -0.000000
vn -0.731115 0.000000 0.682255
vn -0.951057 -0.309017 -0.000000
vn -0.695332 -0.225927 0.682254
vn -0.809017 -0.587785 -0.000000
vn -0.591485 -0.429739 0.682254
vn -0.587785 -0.809017 -0.000000
vn -0.429738 -0.591484 0.682254
vn -0.309017 -0.951056 -0.000000
vn -0.225927 -0.695332 0.682254
vn -0.199140 0.274092 0.940859
vn -0.584749 0.804838 0.101512
vn -0.274093 0.199140 0.940859
vn -0.804838 0.584749 0.101507
vn -0.322215 0.104695 0.940860
vn -0.946144 0.307422 0.101508
vn -0.338797 -0.000000 0.940860
vn -0.994835 0.000000 0.101510
vn -0.322214 -0.104694 0.940860
vn -0.946144 -0.307421 0.101512
vn -0.274092 -0.199140 0.940860
vn -0.804838 -0.584749 0.101513
vn -0.199140 -0.274092 0.940860
vn -0.584750 -0.804838 0.101509
vn -0.104694 -0.322215 0.940859
vn -0.307421 -0.946144 0.101509
vn 0.000000 -0.338796 0.940860
vn -0.000000 -0.994835 0.101510
vn 0.104694 -0.322215 0.940859
vn 0.307421 -0.946144 0.101509
vn 0.199140 -0.274092 0.940860
vn 0.584750 -0.804838 0.101507
vn 0.274092 -0.199140 0.940860
vn 0.804838 -0.584749 0.101507
vn 0.322214 -0.104694 0.940860
vn 0.946144 -0.307421 0.101509
vn 0.338797 0.000000 0.940860
vn 0.994835 -0.000000 0.101510
vn 0.322215 0.104694 0.940860
vn 0.946144 0.307421 0.101510
vn 0.274093 0.199139 0.940860
vn 0.804838 0.584749 0.101509
vn 0.199139 0.274092 0.940860
vn 0.584749 0.804838 0.101508
vn 0.104694 0.322215 0.940859
vn 0.307420 0.946144 0.101509
vn -0.309016 0.951057 -0.000000
vn 0.000001 1.000000 0.000000
vn 0.309016 0.951057 0.000000
vn 0.587786 0.809017 0.000000
vn 0.809017 0.587786 0.000000
vn 0.951056 0.309017 0.000000
vn 1.000000 0.000000 0.000000
vn 0.951056 -0.309017 0.000000
vn 0.809017 -0.587786 0.000000
vn 0.587785 -0.809017 0.000000
vn 0.309017 -0.951056 0.000000
vn 0.000000 -1.000000 0.000000
vn -0.309017 -0.951056 -0.000000
vn -0.587786 -0.809017 -0.000000
vn -0.809017 -0.587785 -0.000000
vn -0.951056 -0.309017 -0.000000
vn -1.000000 -0.000000 -0.000000
vn -0.951057 0.309017 -0.000000
vn -0.809017 0.587786 -0.000000
vn -0.587786 0.809017 -0.000000
vn 0.000001 0.949730 0.313072
vn -0.293482 0.903247 0.313070
vn -0.293482 0.903247 0.313070
vn 0.000001 0.949730 0.313072
vn -0.558238 0.768348 0.313070
vn -0.558237 0.768348 0.313070
vn -0.768347 0.558238 0.313072
vn -0.768347 0.558238 0.313072
vn -0.903246 0.293483 0.313073
vn -0.903246 0.293482 0.313073
vn -0.949729 -0.000000 0.313074
vn -0.949729 0.000000 0.313074
vn -0.903246 -0.293483 0.313074
vn -0.903246 -0.293482 0.313074
vn -0.768347 -0.558237 0.313072
vn -0.768347 -0.558237 0.313073
vn -0.558238 -0.768347 0.313072
vn -0.558238 -0.768347 0.313072
vn -0.293483 -0.903246 0.313073
vn -0.293482 -0.903246 0.313073
vn -0.000000 -0.949729 0.313074
vn -0.000000 -0.949729 0.313074
vn 0.293483 -0.903246 0.313073
vn 0.293482 -0.903246 0.313073
vn 0.558237 -0.768347 0.313072
vn 0.558237 -0.768347 0.313072
vn 0.768347 -0.558238 0.313071
vn 0.768347 -0.558237 0.313071
vn 0.903247 -0.293483 0.313070
vn 0.903247 -0.293482 0.313070
vn 0.949730 -0.000000 0.313070
vn 0.949730 -0.000000 0.313070
vn 0.903247 0.293482 0.313072
vn 0.903247 0.293482 0.313072
vn 0.768347 0.558237 0.313073
vn 0.768347 0.558237 0.313073
vn 0.558238 0.768347 0.313072
vn 0.558237 0.768347 0.313072
vn 0.293482 0.903246 0.313073
vn 0.293481 0.903246 0.313073
s 1
g Clock01_model Clock01 Clock01_LP
usemtl initialShadingGroup
f 10/27/7 7/148/8 67/149/9
f 7/148/8 10/27/7 13/150/10
f 7/148/8 13/150/10 16/151/11
f 7/148/8 16/151/11 19/152/12
f 7/148/8 19/152/12 22/153/13
f 7/148/8 22/153/13 25/154/14
f 7/148/8 25/154/14 28/155/15
f 7/148/8 28/155/15 31/156/16
f 7/148/8 31/156/16 34/157/17
f 7/148/8 34/157/17 37/158/18
f 7/148/8 37/158/18 40/159/19
f 7/148/8 40/159/19 43/160/20
f 7/148/8 43/160/20 46/161/21
f 7/148/8 46/161/21 49/162/22
f 7/148/8 49/162/22 52/163/23
f 7/148/8 52/163/23 55/164/24
f 7/148/8 55/164/24 58/165/25
f 7/148/8 58/165/25 61/166/26
f 7/148/8 61/166/26 64/167/27
f 7/148/8 64/167/27 67/149/9
s 2
f 9/196/28 66/8/29 65/9/30 8/10/31
f 12/197/32 9/7/28 8/10/31 11/12/33
f 15/198/34 12/11/32 11/12/33 14/14/35
f 18/199/36 15/13/34 14/14/35 17/16/37
f 21/200/38 18/15/36 17/16/37 20/18/39
f 24/201/40 21/17/38 20/18/39 23/20/41
f 27/202/42 24/19/40 23/20/41 26/22/43
f 30/203/44 27/21/42 26/22/43 29/24/45
f 33/204/46 30/23/44 29/24/45 32/26/47
f 36/30/48 33/25/46 32/26/47 35/33/49
f 39/213/50 36/39/48 35/42/49 38/45/51
f 42/212/52 39/36/50 38/45/51 41/51/53
f 45/211/54 42/48/52 41/51/53 44/57/55
f 48/210/56 45/54/54 44/57/55 47/63/57
f 51/209/58 48/60/56 47/63/57 50/69/59
f 54/208/60 51/66/58 50/69/59 53/75/61
f 57/207/62 54/72/60 53/75/61 56/81/63
f 60/206/64 57/78/62 56/81/63 59/87/65
f 63/205/66 60/84/64 59/87/65 62/111/67
f 65/112/30 66/113/29 63/110/66 62/111/67
s 3
f 71/28/68 69/214/69 66/31/70 9/32/71
f 68/34/72 69/214/69 71/28/68 70/35/73
f 10/37/74 67/216/75 68/34/72 70/35/73
f 13/40/76 10/37/74 70/35/73 72/41/77
f 16/43/78 13/40/76 72/41/77 74/44/79
f 19/46/80 16/43/78 74/44/79 76/47/81
f 22/49/82 19/46/80 76/47/81 78/224/83
f 25/52/84 22/225/82 78/50/83 80/53/85
f 28/55/86 25/52/84 80/53/85 82/56/87
f 31/58/88 28/55/86 82/56/87 84/59/89
f 34/61/90 31/58/88 84/59/89 86/62/91
f 37/64/92 34/61/90 86/62/91 88/228/93
f 40/67/94 37/229/92 88/65/93 90/68/95
f 43/70/96 40/67/94 90/68/95 92/71/97
f 46/73/98 43/70/96 92/71/97 94/74/99
f 49/76/100 46/73/98 94/74/99 96/77/101
f 52/79/102 49/76/100 96/77/101 98/220/103
f 55/82/104 52/221/102 98/80/103 100/83/105
f 58/85/106 55/82/104 100/83/105 102/86/107
f 61/88/108 58/85/106 102/86/107 104/89/109
f 64/90/110 61/88/108 104/89/109 106/91/111
f 67/38/75 64/90/110 106/91/111 68/217/72
f 73/92/112 72/41/77 70/35/73 71/28/68
f 73/92/112 71/28/68 9/32/71 12/93/113
f 75/94/114 74/44/79 72/41/77 73/92/112
f 75/94/114 73/92/112 12/93/113 15/95/115
f 77/96/116 76/47/81 74/44/79 75/94/114
f 77/96/116 75/94/114 15/95/115 18/97/117
f 79/223/118 78/224/83 76/47/81 77/96/116
f 79/223/118 77/96/116 18/97/117 21/222/119
f 81/100/120 80/53/85 78/50/83 79/98/118
f 81/100/120 79/98/118 21/99/119 24/101/121
f 83/102/122 82/56/87 80/53/85 81/100/120
f 83/102/122 81/100/120 24/101/121 27/103/123
f 85/104/124 84/59/89 82/56/87 83/102/122
f 85/104/124 83/102/122 27/103/123 30/105/125
f 87/106/126 86/62/91 84/59/89 85/104/124
f 87/106/126 85/104/124 30/105/125 33/107/127
f 89/227/128 88/228/93 86/62/91 87/106/126
f 89/227/128 87/106/126 33/107/127 36/226/129
f 91/170/130 90/68/95 88/65/93 89/168/128
f 91/170/130 89/168/128 36/169/129 39/171/131
f 93/172/132 92/71/97 90/68/95 91/170/130
f 93/172/132 91/170/130 39/171/131 42/173/133
f 95/174/134 94/74/99 92/71/97 93/172/132
f 95/174/134 93/172/132 42/173/133 45/175/135
f 97/176/136 96/77/101 94/74/99 95/174/134
f 97/176/136 95/174/134 45/175/135 48/177/137
f 99/219/138 98/220/103 96/77/101 97/176/136
f 99/219/138 97/176/136 48/177/137 51/218/139
f 101/180/140 100/83/105 98/80/103 99/178/138
f 101/180/140 99/178/138 51/179/139 54/181/141
f 103/182/142 102/86/107 100/83/105 101/180/140
f 103/182/142 101/180/140 54/181/141 57/183/143
f 105/184/144 104/89/109 102/86/107 103/182/142
f 105/184/144 103/182/142 57/183/143 60/185/145
f 107/186/146 106/91/111 104/89/109 105/184/144
f 107/186/146 105/184/144 60/185/145 63/187/147
f 68/217/72 106/91/111 107/186/146 69/29/69
f 69/29/69 107/186/146 63/187/147 66/215/70
s 2
f 108/108/148 8/10/31 65/9/30 109/109/149
f 65/112/30 62/111/67 110/114/150 109/115/149
f 62/111/67 59/87/65 111/116/151 110/114/150
f 59/87/65 56/81/63 112/117/152 111/116/151
f 56/81/63 53/75/61 113/118/153 112/117/152
f 53/75/61 50/69/59 114/139/154 113/118/153
f 50/69/59 47/63/57 115/140/155 114/139/154
f 47/63/57 44/57/55 116/141/156 115/140/155
f 44/57/55 41/51/53 117/142/157 116/141/156
f 41/51/53 38/45/51 118/143/158 117/142/157
f 38/45/51 35/42/49 119/144/159 118/143/158
f 35/33/49 32/26/47 120/119/160 119/120/159
f 32/26/47 29/24/45 121/121/161 120/119/160
f 29/24/45 26/22/43 122/122/162 121/121/161
f 26/22/43 23/20/41 123/123/163 122/122/162
f 23/20/41 20/18/39 124/124/164 123/123/163
f 20/18/39 17/16/37 125/125/165 124/124/164
f 17/16/37 14/14/35 126/126/166 125/125/165
f 14/14/35 11/12/33 127/127/167 126/126/166
f 11/12/33 8/10/31 108/108/148 127/127/167
s 4
f 147/128/168 128/129/169 108/108/170 109/109/171
f 127/127/172 108/108/170 128/129/169 129/130/173
f 126/126/174 127/127/172 129/130/173 130/131/175
f 125/125/176 126/126/174 130/131/175 131/132/177
f 124/124/178 125/125/176 131/132/177 132/133/179
f 123/123/180 124/124/178 132/133/179 133/134/181
f 122/122/182 123/123/180 133/134/181 134/135/183
f 121/121/184 122/122/182 134/135/183 135/136/185
f 120/119/186 121/121/184 135/136/185 136/137/187
f 119/120/188 120/119/186 136/137/187 137/138/189
f 118/143/190 119/144/188 137/145/189 138/146/191
f 117/142/192 118/143/190 138/146/191 139/147/193
f 116/141/194 117/142/192 139/147/193 140/188/195
f 115/140/196 116/141/194 140/188/195 141/189/197
f 114/139/198 115/140/196 141/189/197 142/190/199
f 113/118/200 114/139/198 142/190/199 143/191/201
f 112/117/202 113/118/200 143/191/201 144/192/203
f 111/116/204 112/117/202 144/192/203 145/193/205
f 110/114/206 111/116/204 145/193/205 146/194/207
f 109/115/171 110/114/206 146/194/207 147/195/168
