# This file uses centimeters as units for non-parametric coordinates.

mtllib CoffeeJug_model.mtl
g default
v 0.009730 -0.039992 0.116873
v 0.059976 -0.039992 0.080366
v 0.079168 -0.039992 0.021299
v 0.059976 -0.039992 -0.037769
v 0.009730 -0.039992 -0.074275
v -0.052378 -0.039992 -0.074275
v -0.102624 -0.039992 -0.037769
v -0.121817 -0.039992 0.021299
v -0.102624 -0.039992 0.080366
v -0.052378 -0.039992 0.116872
v 0.005548 -0.001854 0.103998
v 0.049027 -0.002156 0.072410
v 0.065635 -0.002643 0.021299
v 0.049027 -0.003131 -0.029812
v 0.005548 -0.003432 -0.061401
v -0.048196 -0.003432 -0.061401
v -0.091676 -0.003131 -0.029812
v -0.108283 -0.002643 0.021299
v -0.091676 -0.002156 0.072409
v -0.048196 -0.001854 0.103998
v 0.000897 -0.098568 0.089687
v 0.036851 -0.098568 0.063565
v 0.050584 -0.098568 0.021299
v 0.036851 -0.098568 -0.020968
v 0.000897 -0.098568 -0.047090
v -0.043545 -0.098568 -0.047090
v -0.079499 -0.098568 -0.020968
v -0.093233 -0.098568 0.021299
v -0.079499 -0.098568 0.063565
v -0.043545 -0.098568 0.089687
v -0.021324 -0.098568 0.021299
v -0.021324 -0.002643 0.021299
vt 0.821119 0.125222
vt 0.895862 0.100019
vt 0.889764 0.129119
vt 0.848643 0.134258
vt 0.792850 0.210130
vt 0.820367 0.219391
vt 0.894154 0.246035
vt 0.901537 0.275009
vt 0.775985 0.186478
vt 0.911523 0.303636
vt 0.776215 0.157429
vt 0.923736 0.332995
vt 0.793454 0.134047
vt 0.905196 0.071189
vt 0.865519 0.157579
vt 0.886469 0.158506
vt 0.865253 0.187739
vt 0.886378 0.187307
vt 0.848024 0.210791
vt 0.888973 0.216778
vt 0.958553 0.212444
vt 0.981358 0.204893
vt 0.995413 0.185401
vt 0.995354 0.161374
vt 0.981207 0.141956
vt 0.958380 0.134525
vt 0.935599 0.141854
vt 0.921578 0.161019
vt 0.921521 0.186143
vt 0.935702 0.205235
vt 0.820743 0.172306
vt 0.958466 0.173484
vt 0.924329 0.134854
vt 0.929440 0.109116
vt 0.868392 0.125601
vt 0.875988 0.094536
vt 0.954845 0.311587
vt 0.946956 0.061709
vt 0.917301 0.041226
vt 0.928267 0.238700
vt 0.923753 0.212543
vt 0.936838 0.084141
vt 0.943665 0.289042
vt 0.934894 0.264391
vt 0.895880 0.036749
vt 0.901443 0.338164
vt 0.881592 0.280319
vt 0.873205 0.250309
vt 0.867775 0.219357
vt 0.885829 0.064786
vt 0.890999 0.309957
vn 0.290510 0.346549 -0.891912
vn 0.306241 -0.135567 -0.942252
vn -0.306241 -0.135567 -0.942252
vn -0.290510 0.346549 -0.891912
vn 0.290500 0.335122 0.896272
vn -0.290501 0.335121 0.896272
vn -0.306189 -0.132952 0.942641
vn 0.306188 -0.132952 0.942641
vn 0.760587 0.337204 0.554798
vn 0.801644 -0.133463 0.582713
vn 0.940180 0.340672 0.002194
vn 0.990944 -0.134277 0.000275
vn 0.760604 0.344265 -0.550422
vn 0.801729 -0.135079 -0.582224
vn -0.760604 0.344265 -0.550421
vn -0.801729 -0.135079 -0.582224
vn -0.940180 0.340671 0.002195
vn -0.990944 -0.134277 0.000276
vn -0.760587 0.337204 0.554798
vn -0.801644 -0.133463 0.582713
vn -0.277715 -0.438553 0.854720
vn 0.277714 -0.438553 0.854720
vn 0.727068 -0.438553 0.528246
vn 0.898705 -0.438553 -0.000000
vn 0.727068 -0.438553 -0.528246
vn 0.277715 -0.438553 -0.854720
vn -0.277715 -0.438553 -0.854720
vn -0.727068 -0.438553 -0.528246
vn -0.898706 -0.438552 0.000000
vn -0.727068 -0.438553 0.528246
vn 0.000000 0.999955 -0.009542
vn -0.000000 0.999955 -0.009542
vn 0.000000 0.999954 -0.009542
vn 0.000000 -1.000000 -0.000000
vn -0.000000 -1.000000 0.000000
vn 0.000000 -1.000000 0.000000
vn 0.000000 -1.000000 0.000000
vn 0.000000 -1.000000 0.000000
vn -0.000000 -1.000000 -0.000000
vn -0.000000 -1.000000 0.000000
vn 0.000000 -1.000000 -0.000000
vn -0.000000 -1.000000 0.000000
vn 0.000000 -1.000000 -0.000000
vn 0.000000 -1.000000 0.000000
vn 0.000000 0.999955 -0.009542
vn 0.000000 0.999955 -0.009542
vn 0.000000 0.999954 -0.009542
vn -0.000000 0.999954 -0.009542
vn -0.000000 0.999954 -0.009542
vn -0.000000 0.999954 -0.009542
vn -0.000000 0.999954 -0.009542
vn -0.000000 0.999954 -0.009542
s 1
g Coffee_LP CoffeeJug_LP
usemtl initialShadingGroup
f 15/36/1 5/2/2 6/3/3 16/35/4
f 11/47/5 20/48/6 10/7/7 1/8/8
f 12/51/9 11/47/5 1/8/8 2/10/10
f 13/46/11 12/51/9 2/10/10 3/12/12
f 14/50/13 13/45/11 3/39/12 4/14/14
f 15/36/1 14/50/13 4/14/14 5/2/2
f 17/15/15 16/35/4 6/3/3 7/16/16
f 18/17/17 17/15/15 7/16/16 8/18/18
f 19/49/19 18/17/17 8/18/18 9/20/20
f 20/48/6 19/49/19 9/20/20 10/7/7
f 1/8/8 10/7/7 30/40/21 21/44/22
f 2/10/10 1/8/8 21/44/22 22/43/23
f 3/12/12 2/10/10 22/43/23 23/37/24
f 4/14/14 3/39/12 23/38/24 24/42/25
f 5/2/2 4/14/14 24/42/25 25/34/26
f 6/3/3 5/2/2 25/34/26 26/33/27
f 7/16/16 6/3/3 26/33/27 27/28/28
f 8/18/18 7/16/16 27/28/28 28/29/29
f 9/20/20 8/18/18 28/29/29 29/41/30
f 10/7/7 9/20/20 29/41/30 30/40/21
s 3
f 17/15/31 32/31/32 16/4/33
s 4
f 24/25/34 31/32/35 25/26/36
f 22/23/37 31/32/35 23/24/38
f 31/32/35 29/30/39 28/29/40
f 26/27/41 31/32/35 27/28/42
f 21/22/43 31/32/35 22/23/37
f 27/28/42 31/32/35 28/29/40
f 23/24/38 31/32/35 24/25/34
f 30/21/44 31/32/35 21/22/43
f 30/21/44 29/30/39 31/32/35
f 25/26/36 31/32/35 26/27/41
s 3
f 19/19/45 32/31/32 18/17/46
f 32/31/32 12/9/47 13/11/48
f 14/13/49 32/31/32 13/11/48
f 18/17/46 32/31/32 17/15/31
f 20/6/50 32/31/32 19/19/45
f 11/5/51 32/31/32 20/6/50
f 15/1/52 32/31/32 14/13/49
f 11/5/51 12/9/47 32/31/32
f 16/4/33 32/31/32 15/1/52
g default
v 0.010864 -0.038534 0.120365
v 0.062947 -0.038534 0.082525
v 0.082841 -0.038534 0.021298
v 0.062947 -0.038534 -0.039928
v 0.010864 -0.038534 -0.077768
v -0.053513 -0.038534 -0.077768
v -0.105596 -0.038534 -0.039928
v -0.125489 -0.038534 0.021299
v -0.105596 -0.038534 0.082525
v -0.053513 -0.038534 0.120365
v 0.004717 0.020156 0.101445
v 0.046852 0.020156 0.070832
v 0.062947 0.020156 0.021299
v 0.046852 0.020156 -0.028235
v 0.004717 0.020156 -0.058848
v -0.047366 0.020156 -0.058848
v -0.089501 0.020156 -0.028235
v -0.105596 0.020156 0.021299
v -0.089501 0.020156 0.070832
v -0.047366 0.020156 0.101445
v 0.002244 -0.102659 0.093835
v 0.040379 -0.102659 0.066129
v 0.054945 -0.102659 0.021299
v 0.040379 -0.102659 -0.023532
v 0.002244 -0.102659 -0.051238
v -0.044893 -0.102659 -0.051238
v -0.083028 -0.102659 -0.023532
v -0.097594 -0.102659 0.021299
v -0.083028 -0.102659 0.066129
v -0.044893 -0.102659 0.093835
v -0.021324 -0.102659 0.021299
v -0.007256 0.053343 0.064596
v 0.015507 0.053343 0.048058
v 0.024201 0.053343 0.021298
v 0.015507 0.053343 -0.005461
v -0.007256 0.053343 -0.023113
v -0.035393 0.053343 -0.023113
v -0.058156 0.053343 -0.005461
v -0.066850 0.053343 0.021298
v -0.058156 0.053343 0.048058
v -0.035393 0.053343 0.064596
vt 0.282074 0.337374
vt 0.252922 0.337374
vt 0.253017 0.299945
vt 0.280926 0.299945
vt 0.315031 0.337374
vt 0.307680 0.299945
vt 0.057961 0.337374
vt 0.024985 0.337374
vt 0.032361 0.299945
vt 0.059129 0.299945
vt 0.087160 0.337374
vt 0.087076 0.299945
vt 0.115143 0.337374
vt 0.114930 0.299945
vt 0.142705 0.337374
vt 0.142581 0.299945
vt 0.170108 0.337374
vt 0.170096 0.299945
vt 0.197493 0.337374
vt 0.197595 0.299945
vt 0.225002 0.337374
vt 0.225208 0.299945
vt 0.279348 0.372380
vt 0.251659 0.372380
vt 0.308716 0.372380
vt 0.060635 0.372380
vt 0.031243 0.372380
vt 0.088407 0.372380
vt 0.115741 0.372380
vt 0.142969 0.372380
vt 0.170138 0.372380
vt 0.197275 0.372380
vt 0.224418 0.372380
vt 0.274024 0.403584
vt 0.249609 0.403584
vt 0.294351 0.403584
vt 0.065748 0.403584
vt 0.045472 0.403584
vt 0.090556 0.403016
vt 0.116367 0.403016
vt 0.143463 0.403584
vt 0.170213 0.403584
vt 0.197015 0.403584
vt 0.223619 0.403584
vt 0.693342 0.791461
vt 0.830563 0.836047
vt 0.693342 0.880633
vt 0.830563 0.980330
vt 0.915370 0.952774
vt 0.967783 0.791461
vt 0.915370 0.719320
vt 0.967783 0.880633
vt 0.745756 0.952774
vt 0.745756 0.719320
vt 0.830563 0.691765
vn 0.807860 -0.053479 0.586944
vn 0.308575 -0.053479 0.949696
vn 0.283366 -0.398907 0.872111
vn 0.741862 -0.398906 0.538994
vn 0.998569 -0.053478 -0.000000
vn 0.916992 -0.398906 0.000000
vn 0.807859 -0.053479 -0.586944
vn 0.741862 -0.398907 -0.538994
vn 0.308575 -0.053479 -0.949696
vn 0.283366 -0.398907 -0.872111
vn -0.308575 -0.053479 -0.949696
vn -0.283366 -0.398907 -0.872111
vn -0.807859 -0.053479 -0.586944
vn -0.741862 -0.398907 -0.538994
vn -0.998569 -0.053479 0.000000
vn -0.916991 -0.398907 0.000000
vn -0.807859 -0.053479 0.586944
vn -0.741862 -0.398907 0.538994
vn -0.308576 -0.053479 0.949695
vn -0.283367 -0.398907 0.872110
vn 0.713182 0.472106 0.518157
vn 0.272411 0.472106 0.838396
vn 0.881542 0.472106 -0.000000
vn 0.714098 0.471206 -0.517714
vn 0.274661 0.468873 -0.839476
vn -0.274661 0.468872 -0.839476
vn -0.714098 0.471206 -0.517714
vn -0.881542 0.472106 0.000000
vn -0.713182 0.472106 0.518158
vn -0.272412 0.472106 0.838396
vn 0.526289 0.759482 0.382371
vn 0.201024 0.759482 0.618689
vn 0.650529 0.759482 -0.000000
vn 0.531105 0.756937 -0.380754
vn 0.208157 0.753152 -0.624045
vn -0.208158 0.753152 -0.624045
vn -0.531105 0.756937 -0.380754
vn -0.650529 0.759482 -0.000000
vn -0.526289 0.759482 0.382372
vn -0.201025 0.759481 0.618690
vn 0.000000 -1.000000 0.000000
vn 0.000000 -1.000000 0.000000
vn 0.000000 -1.000000 0.000000
vn 0.000000 -1.000000 0.000000
vn 0.000000 -1.000000 -0.000000
vn 0.000000 -1.000000 0.000000
vn 0.000000 -1.000000 0.000000
vn 0.000000 -1.000000 -0.000000
vn 0.000000 -1.000000 -0.000000
vn 0.000000 -1.000000 0.000000
vn 0.000000 -1.000000 -0.000000
s 1
g CoffeeJug_LP GlassJug_LP
usemtl initialShadingGroup
f 34/52/53 33/53/54 53/54/55 54/55/56
f 35/56/57 34/52/53 54/55/56 55/57/58
f 36/58/59 35/59/57 55/60/58 56/61/60
f 37/62/61 36/58/59 56/61/60 57/63/62
f 38/64/63 37/62/61 57/63/62 58/65/64
f 39/66/65 38/64/63 58/65/64 59/67/66
f 40/68/67 39/66/65 59/67/66 60/69/68
f 41/70/69 40/68/67 60/69/68 61/71/70
f 42/72/71 41/70/69 61/71/70 62/73/72
f 33/53/54 42/72/71 62/73/72 53/54/55
f 34/52/53 44/74/73 43/75/74 33/53/54
f 35/56/57 45/76/75 44/74/73 34/52/53
f 36/58/59 46/77/76 45/78/75 35/59/57
f 37/62/61 47/79/77 46/77/76 36/58/59
f 38/64/63 48/80/78 47/79/77 37/62/61
f 39/66/65 49/81/79 48/80/78 38/64/63
f 40/68/67 50/82/80 49/81/79 39/66/65
f 41/70/69 51/83/81 50/82/80 40/68/67
f 42/72/71 52/84/82 51/83/81 41/70/69
f 33/53/54 43/75/74 52/84/82 42/72/71
f 44/74/73 65/85/83 64/86/84 43/75/74
f 45/76/75 66/87/85 65/85/83 44/74/73
f 46/77/76 67/88/86 66/89/85 45/78/75
f 47/79/77 68/90/87 67/88/86 46/77/76
f 48/80/78 69/91/88 68/90/87 47/79/77
f 49/81/79 70/92/89 69/91/88 48/80/78
f 50/82/80 71/93/90 70/92/89 49/81/79
f 51/83/81 72/94/91 71/93/90 50/82/80
f 52/84/82 73/95/92 72/94/91 51/83/81
f 43/75/74 64/86/84 73/95/92 52/84/82
s 2
f 62/96/93 63/97/94 53/98/95
f 55/99/96 63/97/94 56/100/97
f 58/101/98 63/97/94 59/102/99
f 57/103/100 63/97/94 58/101/98
f 54/104/101 53/98/95 63/97/94
f 61/105/102 63/97/94 62/96/93
f 59/102/99 63/97/94 60/106/103
f 56/100/97 63/97/94 57/103/100
f 54/104/101 63/97/94 55/99/96
f 60/106/103 63/97/94 61/105/102
g default
v -0.007256 0.053343 0.064596
v 0.015507 0.053343 0.048058
v 0.024201 0.053343 0.021299
v 0.015507 0.053343 -0.005461
v -0.007256 0.053343 -0.023113
v -0.035393 0.053343 -0.023113
v -0.058156 0.053343 -0.005461
v -0.066850 0.053343 0.021299
v -0.058156 0.053343 0.048058
v -0.035393 0.053343 0.064596
v -0.008265 0.071759 0.061490
v 0.012865 0.071759 0.046138
v 0.020936 0.071759 0.021299
v 0.012865 0.071759 -0.003541
v -0.008265 0.071759 -0.018893
v -0.034384 0.071759 -0.018893
v -0.055514 0.071759 -0.003541
v -0.063585 0.071759 0.021299
v -0.055514 0.071759 0.046138
v -0.034384 0.071759 0.061490
v -0.007014 0.101361 0.082226
v 0.016141 0.097675 0.063901
v 0.024985 0.091785 0.030767
v 0.016141 0.086158 -0.001088
v -0.007014 0.082085 -0.019323
v -0.035635 0.082085 -0.019323
v -0.058790 0.086158 -0.001088
v -0.067634 0.091785 0.030767
v -0.058790 0.097675 0.063901
v -0.035635 0.101361 0.082226
v -0.008002 0.066950 0.062301
v 0.013555 0.066950 0.046640
v 0.021789 0.066950 0.021299
v 0.013555 0.066950 -0.004043
v -0.008002 0.066950 -0.020759
v -0.034647 0.066950 -0.020759
v -0.056204 0.066950 -0.004043
v -0.064437 0.066950 0.021299
v -0.056204 0.066950 0.046640
v -0.034647 0.066950 0.062301
v -0.010167 0.078297 -0.048502
v -0.010759 0.088439 -0.045385
v -0.032481 0.078297 -0.048502
v -0.031890 0.088439 -0.045385
v -0.011705 0.085981 -0.093390
v -0.010293 0.102659 -0.090309
v -0.030944 0.085981 -0.093390
v -0.032356 0.102659 -0.090309
v -0.010121 0.084377 -0.076201
v -0.032528 0.084377 -0.076201
v -0.031934 0.095537 -0.073393
v -0.010714 0.095537 -0.073393
v -0.014077 -0.009446 -0.111717
v -0.014077 -0.009446 -0.120365
v -0.028572 -0.009446 -0.111717
v -0.028572 -0.009446 -0.120365
v -0.021583 0.091785 0.029832
v -0.012215 0.034714 -0.090900
v -0.030434 0.034714 -0.090900
v -0.029688 0.035469 -0.103569
v -0.012961 0.035469 -0.103569
v -0.021283 0.053343 0.021254
vt 0.678812 0.109515
vt 0.678812 0.154237
vt 0.670739 0.154237
vt 0.670739 0.109514
vt 0.678812 0.064819
vt 0.670739 0.064803
vt 0.678812 0.020886
vt 0.670739 0.020418
vt 0.678812 0.419009
vt 0.678812 0.462579
vt 0.670739 0.463030
vt 0.670739 0.418438
vt 0.678812 0.377416
vt 0.670739 0.378006
vt 0.678812 0.333118
vt 0.670739 0.333128
vt 0.678812 0.288432
vt 0.670739 0.288433
vt 0.678812 0.243698
vt 0.670739 0.243699
vt 0.678812 0.198974
vt 0.670739 0.198973
vt 0.427613 0.272570
vt 0.432691 0.215278
vt 0.483114 0.215278
vt 0.465798 0.265437
vt 0.532326 0.215278
vt 0.518951 0.254037
vt 0.008705 0.254037
vt 0.028400 0.215278
vt 0.079216 0.215278
vt 0.072089 0.243146
vt 0.130083 0.215278
vt 0.128129 0.235263
vt 0.180886 0.215278
vt 0.182837 0.235263
vt 0.231758 0.215278
vt 0.238863 0.243146
vt 0.282763 0.215278
vt 0.299206 0.254037
vt 0.334226 0.215278
vt 0.351682 0.265437
vt 0.384725 0.215278
vt 0.389825 0.272570
vt 0.647900 0.154237
vt 0.647900 0.109508
vt 0.647900 0.064704
vt 0.647900 0.018994
vt 0.647900 0.464226
vt 0.647900 0.416946
vt 0.328065 0.192447
vt 0.284352 0.188982
vt 0.284157 0.139410
vt 0.327842 0.135601
vt 0.647900 0.379673
vt 0.647900 0.333237
vt 0.647900 0.288441
vt 0.647900 0.243699
vt 0.647900 0.198973
vt 0.407048 0.033321
vt 0.516632 0.023424
vt 0.517367 0.110097
vt 0.407631 0.102058
vt 0.354180 0.387126
vt 0.347933 0.338797
vt 0.459592 0.396807
vt 0.459594 0.434252
vt 0.975322 0.357985
vt 0.968123 0.406152
vt 0.861400 0.451377
vt 0.862062 0.413954
vt 0.449585 0.136322
vt 0.533767 0.128888
vt 0.534037 0.197542
vt 0.449799 0.190770
vt 0.028009 0.183875
vt 0.005727 0.183963
vt 0.005580 0.146617
vt 0.027862 0.146529
vt 0.561383 0.429354
vt 0.559235 0.388809
vt 0.619109 0.376434
vt 0.625778 0.435972
vt 0.763188 0.404538
vt 0.760347 0.445032
vt 0.695963 0.450638
vt 0.703589 0.391213
vt 0.375137 0.136501
vt 0.375352 0.191176
vt 0.319691 0.033917
vt 0.320276 0.102942
vt 0.601605 0.195287
vt 0.557979 0.205831
vt 0.582879 0.035179
vt 0.612071 0.026259
vt 0.151406 0.143167
vt 0.151575 0.186267
vt 0.160201 0.041721
vt 0.160677 0.097843
vt 0.010239 0.093380
vt 0.009861 0.048731
vt 0.767744 0.221710
vt 0.724193 0.210425
vt 0.714095 0.040478
vt 0.743316 0.049930
vt 0.037391 0.790777
vt 0.037390 0.614675
vt 0.345806 0.701136
vt 0.152411 0.472205
vt 0.351560 0.417787
vt 0.673355 0.614675
vt 0.673355 0.790777
vt 0.558517 0.472205
vt 0.558518 0.933247
vt 0.351559 0.987665
vt 0.152408 0.933247
vt 0.883517 0.649504
vt 0.828510 0.573753
vt 0.919864 0.602634
vt 0.773319 0.497830
vt 0.828418 0.479927
vt 0.919864 0.544700
vt 0.883517 0.497830
vt 0.828418 0.667407
vt 0.773319 0.649504
vt 0.739266 0.602634
vt 0.739266 0.544700
vn 0.796592 0.174592 0.578756
vn 0.304271 0.174595 0.936448
vn 0.304271 0.174596 0.936448
vn 0.796590 0.174597 0.578758
vn 0.984641 0.174591 -0.000000
vn 0.984640 0.174597 -0.000000
vn 0.793104 0.217754 -0.568831
vn 0.801266 0.185078 -0.568964
vn 0.312577 0.319098 -0.894691
vn 0.494985 0.229442 -0.838061
vn -0.312577 0.319097 -0.894691
vn -0.494985 0.229443 -0.838061
vn -0.793104 0.217753 -0.568831
vn -0.801267 0.185077 -0.568963
vn -0.984641 0.174590 -0.000000
vn -0.984640 0.174595 -0.000000
vn -0.796592 0.174592 0.578757
vn -0.796591 0.174596 0.578757
vn -0.304271 0.174595 0.936448
vn -0.304271 0.174596 0.936448
vn 0.199703 -0.571706 0.795783
vn 0.258236 -0.566581 0.782496
vn 0.752369 -0.430594 0.498527
vn 0.616962 -0.488849 0.616753
vn 0.976616 -0.214470 -0.014949
vn 0.946469 -0.277783 0.164418
vn 0.827923 -0.082249 -0.554777
vn 0.891584 -0.094228 -0.442943
vn 0.329511 -0.046329 -0.943015
vn 0.379891 -0.046611 -0.923856
vn -0.329511 -0.046329 -0.943015
vn -0.379890 -0.046611 -0.923856
vn -0.827924 -0.082250 -0.554777
vn -0.891585 -0.094228 -0.442942
vn -0.976616 -0.214470 -0.014949
vn -0.946469 -0.277783 0.164417
vn -0.752369 -0.430594 0.498527
vn -0.616962 -0.488849 0.616754
vn -0.258237 -0.566581 0.782496
vn -0.199704 -0.571706 0.795783
vn 0.304270 0.174596 0.936449
vn 0.796590 0.174598 0.578757
vn 0.984640 0.174599 -0.000000
vn 0.803197 0.174586 -0.569557
vn 0.604116 0.167857 -0.779018
vn 0.000000 0.181670 -0.983360
vn 0.000000 0.192974 -0.981204
vn 0.000000 0.192974 -0.981204
vn 0.000000 0.181670 -0.983360
vn -0.604116 0.167857 -0.779017
vn -0.803197 0.174585 -0.569556
vn -0.984640 0.174596 0.000000
vn -0.796591 0.174597 0.578757
vn -0.304271 0.174597 0.936448
vn 0.000000 -0.851032 -0.525114
vn 0.000000 -0.713195 -0.700966
vn 0.000000 -0.713195 -0.700966
vn 0.000000 -0.851032 -0.525114
vn 0.996450 0.067636 -0.050123
vn 0.996450 0.067636 -0.050123
vn 0.997852 0.061077 -0.023678
vn 0.998127 0.059112 -0.015786
vn -0.996450 0.067638 -0.050120
vn -0.996450 0.067638 -0.050120
vn -0.998127 0.059113 -0.015787
vn -0.997852 0.061078 -0.023677
vn 0.000000 0.868896 0.494995
vn 0.000000 0.753461 0.657493
vn 0.000000 0.753461 0.657492
vn 0.000000 0.868896 0.494995
vn 0.000000 -1.000000 -0.000007
vn 0.000000 -1.000000 -0.000007
vn 0.000000 -1.000000 -0.000007
vn 0.000000 -1.000000 -0.000007
vn 0.999780 0.017940 -0.010911
vn 0.998879 0.000880 -0.047322
vn 0.997424 -0.015373 -0.070064
vn 0.999001 -0.021003 -0.039434
vn -0.998880 0.000879 -0.047318
vn -0.999780 0.017939 -0.010911
vn -0.999002 -0.021004 -0.039432
vn -0.997424 -0.015374 -0.070057
vn 0.000000 0.921638 0.388050
vn 0.000000 0.921638 0.388050
vn 0.000000 0.952973 0.303054
vn 0.000000 0.952973 0.303054
vn 0.000000 -0.976741 -0.214423
vn 0.000000 -0.976741 -0.214423
vn 0.998113 -0.015847 -0.059330
vn 0.997694 -0.015114 -0.066165
vn 0.999197 -0.018382 -0.035603
vn 0.999197 -0.018382 -0.035603
vn 0.000000 0.265473 -0.964118
vn 0.000000 0.265473 -0.964118
vn 0.000000 0.350278 -0.936646
vn 0.000000 0.350278 -0.936646
vn 0.000000 -0.344577 0.938758
vn 0.000000 -0.344577 0.938758
vn 0.000000 -0.426396 0.904537
vn 0.000000 -0.426396 0.904536
vn -0.997695 -0.015117 -0.066157
vn -0.998113 -0.015849 -0.059322
vn -0.999197 -0.018386 -0.035593
vn -0.999197 -0.018386 -0.035593
vn -0.007765 0.980610 -0.195818
vn 0.007726 0.980628 -0.195729
vn -0.000005 0.983230 -0.182368
vn 0.007188 0.982254 -0.187417
vn -0.003542 0.984653 -0.174491
vn -0.005450 0.983432 -0.181199
vn 0.005477 0.983420 -0.181257
vn -0.008155 0.983817 -0.178990
vn 0.008063 0.983814 -0.179012
vn 0.003502 0.984653 -0.174491
vn -0.007072 0.982259 -0.187396
vn 0.000000 -0.283819 0.958878
vn 0.000000 -0.283819 0.958878
vn 0.000000 -1.000000 0.000000
vn 0.000000 -1.000000 0.000000
vn 0.000000 -1.000000 0.000000
vn 0.000000 -1.000000 0.000000
vn 0.000000 -1.000000 0.000000
vn 0.000000 -1.000000 0.000000
vn 0.000000 -1.000000 0.000000
vn 0.000000 -1.000000 0.000000
vn 0.000000 -1.000000 -0.000000
vn 0.000000 -1.000000 -0.000000
vn 0.000000 -1.000000 -0.000000
s 1
g CoffeeJug_LP Lid_LP
usemtl initialShadingGroup
f 85/107/104 84/108/105 104/109/106 105/110/107
f 86/111/108 85/107/104 105/110/107 106/112/109
f 87/113/110 86/111/108 106/112/109 107/114/111
f 88/115/112 87/116/110 107/117/111 108/118/113
f 89/119/114 88/115/112 108/118/113 109/120/115
f 90/121/116 89/119/114 109/120/115 110/122/117
f 91/123/118 90/121/116 110/122/117 111/124/119
f 92/125/120 91/123/118 111/124/119 112/126/121
f 93/127/122 92/125/120 112/126/121 113/128/123
f 84/108/105 93/127/122 113/128/123 104/109/106
s 2
f 94/129/124 84/130/125 85/131/126 95/132/127
f 95/132/127 85/131/126 86/133/128 96/134/129
f 96/135/129 86/136/128 87/137/130 97/138/131
f 97/138/131 87/137/130 88/139/132 98/140/133
f 98/140/133 88/139/132 89/141/134 99/142/135
f 99/142/135 89/141/134 90/143/136 100/144/137
f 100/144/137 90/143/136 91/145/138 101/146/139
f 101/146/139 91/145/138 92/147/140 102/148/141
f 102/148/141 92/147/140 93/149/142 103/150/143
f 103/150/143 93/149/142 84/130/125 94/129/124
s 1
f 104/109/106 74/151/144 75/152/145 105/110/107
f 105/110/107 75/152/145 76/153/146 106/112/109
f 106/112/109 76/153/146 77/154/147 107/114/111
f 107/117/111 77/155/147 78/156/148 108/118/113
s 3
f 119/157/149 118/158/150 120/159/151 121/160/152
s 1
f 109/120/115 79/161/153 80/162/154 110/122/117
f 110/122/117 80/162/154 81/163/155 111/124/119
f 111/124/119 81/163/155 82/164/156 112/126/121
f 112/126/121 82/164/156 83/165/157 113/128/123
f 113/128/123 83/165/157 74/151/144 104/109/106
s 4
f 114/166/158 78/167/159 79/168/160 116/169/161
s 5
f 108/170/162 78/171/163 114/172/164 115/173/165
s 6
f 79/174/166 109/175/167 117/176/168 116/177/169
s 7
f 117/178/170 109/179/171 108/180/172 115/181/173
s off
f 127/182/174 126/183/175 128/184/176 129/185/177
s 5
f 125/186/178 122/187/179 118/188/180 119/189/181
s 6
f 123/190/182 124/191/183 121/192/184 120/193/185
s 7
f 119/157/186 121/160/187 124/194/188 125/195/189
s 4
f 122/196/190 114/166/158 116/169/161 123/197/191
s 6
f 116/177/169 117/176/168 124/191/183 123/190/182
s 7
f 124/194/188 117/178/170 115/181/173 125/195/189
s 5
f 115/173/165 114/172/164 122/187/179 125/186/178
f 134/198/192 131/199/193 126/200/194 127/201/195
s 3
f 133/202/196 134/203/197 127/182/198 129/185/199
s 8
f 131/204/200 132/205/201 128/206/202 126/207/203
s 6
f 132/208/204 133/209/205 129/210/206 128/211/207
s 9
f 98/212/208 99/213/209 130/214/210
f 130/214/210 99/213/209 100/215/211
f 130/214/210 100/215/211 101/216/212
f 130/214/210 103/217/213 94/218/214
f 102/219/215 103/217/213 130/214/210
f 101/216/212 102/219/215 130/214/210
f 130/214/210 94/218/214 95/220/216
f 130/214/210 95/220/216 96/221/217
f 97/222/218 98/212/208 130/214/210
f 96/221/217 97/222/218 130/214/210
s 8
f 123/197/219 132/205/201 131/204/200 122/196/220
s 6
f 120/193/185 133/209/205 132/208/204 123/190/182
s 3
f 120/159/151 118/158/150 134/203/197 133/202/196
s 5
f 118/188/180 122/187/179 131/199/193 134/198/192
s 11
f 77/223/221 135/224/222 78/225/223
f 135/224/222 82/226/224 81/227/225
f 78/225/223 135/224/222 79/228/226
f 80/229/227 135/224/222 81/227/225
f 79/228/226 135/224/222 80/229/227
f 76/230/228 135/224/222 77/223/221
f 75/231/229 135/224/222 76/230/228
f 75/231/229 74/232/230 135/224/222
f 135/224/222 74/232/230 83/233/231
f 82/226/224 135/224/222 83/233/231
