# This file uses centimeters as units for non-parametric coordinates.

mtllib SaltPepperShaker_model.mtl
g default
v 0.000000 -0.017728 -0.019420
v -0.019420 -0.017728 -0.000000
v -0.000000 -0.017728 0.019420
v 0.019420 -0.017728 0.000000
v 0.000000 -0.017728 0.000000
v -0.000113 0.024548 -0.013926
v -0.013926 0.024548 -0.000113
v -0.000000 0.024548 0.014039
v 0.014039 0.024548 0.000000
v 0.002119 0.024715 -0.015181
v -0.002119 0.024715 -0.015181
v 0.002119 0.035897 -0.015181
v -0.002119 0.035897 -0.015181
v -0.015181 0.024715 -0.002119
v -0.015181 0.024715 0.002119
v -0.015181 0.035897 0.002119
v -0.015181 0.035897 -0.002119
v -0.002119 0.024715 0.015181
v 0.002119 0.024715 0.015181
v 0.002119 0.035897 0.015181
v -0.002119 0.035897 0.015181
v 0.015181 0.024715 0.002119
v 0.015181 0.024715 -0.002119
v 0.015181 0.035897 -0.002119
v 0.015181 0.035897 0.002119
v 0.002119 0.035897 0.002119
v 0.002119 0.035897 -0.002119
v -0.002119 0.035897 -0.002119
v -0.002119 0.035897 0.002119
vt 0.298950 0.216191
vt 0.298950 0.060704
vt 0.376694 0.138447
vt 0.454438 0.060703
vt 0.454438 0.216191
vt 0.037718 0.195495
vt 0.037719 0.081509
vt 0.713861 0.083227
vt 0.713861 0.195630
vt 0.604816 0.970595
vt 0.528232 0.778981
vt 0.528232 0.865752
vt 0.726061 0.688788
vt 0.806368 0.886551
vt 0.604816 0.943391
vt 0.628050 0.688788
vt 0.604816 0.702135
vt 0.543727 0.865752
vt 0.806368 0.789832
vt 0.782693 0.769015
vt 0.628050 0.702135
vt 0.713481 0.970595
vt 0.726061 0.943391
vt 0.782693 0.789832
vt 0.543727 0.886551
vt 0.704086 0.943391
vt 0.604816 0.865752
vt 0.604816 0.769015
vt 0.628050 0.769015
vt 0.726061 0.769015
vt 0.726061 0.789832
vt 0.726061 0.886551
vt 0.703513 0.886551
vt 0.604816 0.886551
vt 0.369470 0.503300
vt 0.369470 0.573001
vt 0.299769 0.573001
vt 0.299769 0.503300
vt 0.543727 0.769015
vt 0.782693 0.886551
vt 0.726061 0.702135
vt 0.826984 0.712113
vt 0.945605 0.712113
vt 0.945605 0.035970
vt 0.826983 0.035970
vt 0.807151 0.295393
vt 0.962638 0.295394
vt 0.884894 0.373137
vt 0.962638 0.450881
vt 0.807151 0.450881
vt 0.084907 0.573001
vt 0.084907 0.503300
vt 0.299769 0.288438
vt 0.369470 0.288438
vt 0.584332 0.503300
vt 0.584332 0.573001
vt 0.299769 0.787864
vt 0.369470 0.787864
vt 0.884894 0.373137
vt 0.376694 0.138447
vn 0.000000 -1.000000 -0.000000
vn 0.000000 -1.000000 -0.000000
vn 0.000000 -1.000000 0.000000
vn 0.000000 -1.000000 0.000000
vn 0.000000 -1.000000 0.000000
vn -0.704260 0.089645 -0.704260
vn -0.704260 0.089645 -0.704260
vn -0.704260 0.089645 -0.704260
vn -0.704260 0.089645 -0.704260
vn -0.706507 0.091505 0.701766
vn -0.706507 0.091505 0.701766
vn -0.706507 0.091505 0.701766
vn -0.706507 0.091505 0.701766
vn 0.704260 0.089645 0.704260
vn 0.704260 0.089645 0.704260
vn 0.704260 0.089645 0.704260
vn 0.704260 0.089645 0.704260
vn 0.701766 0.091505 -0.706507
vn 0.701766 0.091505 -0.706507
vn 0.701766 0.091505 -0.706507
vn 0.701766 0.091505 -0.706507
vn -0.051105 -0.997385 -0.051105
vn -0.051105 -0.997385 -0.051105
vn -0.051105 -0.997385 -0.051105
vn -0.051105 -0.997385 -0.051105
vn -0.049612 -0.997556 0.049202
vn -0.049612 -0.997556 0.049202
vn -0.049612 -0.997556 0.049202
vn -0.049612 -0.997556 0.049202
vn 0.051105 -0.997385 0.051105
vn 0.051105 -0.997385 0.051105
vn 0.051105 -0.997385 0.051105
vn 0.051105 -0.997385 0.051105
vn 0.049201 -0.997556 -0.049612
vn 0.049201 -0.997556 -0.049612
vn 0.049201 -0.997556 -0.049612
vn 0.049201 -0.997556 -0.049612
vn -0.707107 0.000000 -0.707107
vn -0.707107 0.000000 -0.707107
vn -0.707107 0.000000 -0.707107
vn -0.707107 0.000000 -0.707107
vn -0.707107 0.000000 0.707107
vn -0.707107 0.000000 0.707107
vn -0.707107 0.000000 0.707107
vn -0.707107 0.000000 0.707107
vn 0.707107 0.000000 0.707107
vn 0.707107 0.000000 0.707107
vn 0.707107 0.000000 0.707107
vn 0.707107 0.000000 0.707107
vn 0.707107 0.000000 -0.707107
vn 0.707107 0.000000 -0.707107
vn 0.707107 0.000000 -0.707107
vn 0.707107 0.000000 -0.707107
vn 0.000000 1.000000 -0.000000
vn 0.000000 1.000000 -0.000000
vn 0.000000 1.000000 -0.000000
vn 0.000000 1.000000 0.000000
vn 0.000000 0.000000 -1.000000
vn 0.000000 0.000000 -1.000000
vn 0.000000 0.000000 -1.000000
vn 0.000000 0.000000 -1.000000
vn -1.000000 0.000000 0.000000
vn -1.000000 0.000000 0.000000
vn -1.000000 0.000000 0.000000
vn -1.000000 0.000000 0.000000
vn 0.000000 0.000000 1.000000
vn 0.000000 0.000000 1.000000
vn 0.000000 0.000000 1.000000
vn 0.000000 0.000000 1.000000
vn 1.000000 0.000000 0.000000
vn 1.000000 0.000000 0.000000
vn 1.000000 0.000000 0.000000
vn 1.000000 0.000000 0.000000
vn 0.000000 -0.991252 -0.131985
vn 0.000000 -0.991252 -0.131985
vn 0.000000 -0.991252 -0.131985
vn -0.131985 -0.991252 0.000000
vn -0.131985 -0.991252 0.000000
vn -0.131985 -0.991252 0.000000
vn 0.000000 1.000000 -0.000000
vn 0.000000 1.000000 0.000000
vn 0.000000 -0.989470 0.144741
vn 0.000000 -0.989470 0.144741
vn 0.000000 -0.989470 0.144741
vn 0.000000 1.000000 0.000000
vn 0.000000 1.000000 -0.000000
vn 0.144740 -0.989470 0.000000
vn 0.144740 -0.989470 0.000000
vn 0.144740 -0.989470 0.000000
vn 0.000000 1.000000 -0.000000
vn 0.000000 1.000000 -0.000000
vn 0.000000 1.000000 -0.000000
vn 0.000000 1.000000 0.000000
s 1
g SaltNPepper_LP Salt_and_Pepper_Shaker
usemtl initialShadingGroup
f 2/1/1 1/2/2 5/3/3
f 3/46/4 2/47/1 5/59/3
f 4/4/5 3/5/4 5/60/3
f 1/49/2 4/50/5 5/48/3
s off
f 2/1/6 7/6/7 6/7/8 1/2/9
f 3/46/10 8/45/11 7/44/12 2/47/13
f 4/4/14 9/8/15 8/9/16 3/5/17
f 1/49/18 6/43/19 9/42/20 4/50/21
f 6/12/22 7/11/23 14/39/24 11/18/25
f 7/16/26 8/13/27 18/41/28 15/21/29
f 8/19/30 9/14/31 22/40/32 19/24/33
f 9/22/34 6/10/35 10/15/36 23/26/37
f 13/27/38 11/18/39 14/39/40 17/28/41
f 16/29/42 15/21/43 18/41/44 21/30/45
f 20/31/46 19/24/47 22/40/48 25/32/49
f 24/33/50 23/26/51 10/15/52 12/34/53
s 2
f 26/35/54 27/36/55 28/37/56 29/38/57
s off
f 10/25/58 11/18/59 13/27/60 12/34/61
f 14/17/62 15/21/63 16/29/64 17/28/65
f 18/20/66 19/24/67 20/31/68 21/30/69
f 22/23/70 23/26/71 24/33/72 25/32/73
f 10/25/74 6/12/75 11/18/76
f 14/17/77 7/16/78 15/21/79
s 2
f 17/51/80 16/52/81 29/38/57 28/37/56
s off
f 18/20/82 8/19/83 19/24/84
s 2
f 21/53/85 20/54/86 26/35/54 29/38/57
s off
f 22/23/87 9/22/88 23/26/89
s 2
f 25/55/90 24/56/91 27/36/55 26/35/54
f 13/57/92 28/37/56 27/36/55 12/58/93
f 26/35/54 20/54/86 25/55/90
f 12/58/93 27/36/55 24/56/91
f 28/37/56 13/57/92 17/51/80
f 21/53/85 29/38/57 16/52/81
