# This file uses centimeters as units for non-parametric coordinates.

mtllib Menu01_model.mtl
g default
v -0.075500 -0.100217 -0.054074
v 0.075500 -0.100217 -0.054074
v -0.075500 0.101588 -0.000000
v 0.075500 0.101588 -0.000000
v -0.075500 0.101871 -0.001056
v 0.075500 0.101871 -0.001056
v -0.075500 -0.099934 -0.055129
v 0.075500 -0.099934 -0.055129
v -0.075500 -0.098805 -0.053695
v 0.075500 -0.098805 -0.053695
v 0.075500 -0.098522 -0.054751
v -0.075500 -0.098522 -0.054751
v -0.075500 -0.100217 0.054073
v 0.075500 -0.100217 0.054073
v -0.075500 0.101871 0.001055
v 0.075500 0.101871 0.001055
v -0.075500 -0.099934 0.055129
v 0.075500 -0.099934 0.055129
v -0.075500 -0.098805 0.053695
v 0.075500 -0.098805 0.053695
v 0.075500 -0.098522 0.054750
v -0.075500 -0.098522 0.054750
v -0.075500 0.102848 -0.000000
v 0.075500 0.102848 -0.000000
vt 0.026518 0.022074
vt 0.027359 0.018938
vt 0.622958 0.178458
vt 0.622117 0.181595
vt 0.942182 0.331754
vt 0.165232 0.331754
vt 0.165124 0.326132
vt 0.942290 0.326132
vt 0.942038 0.339274
vt 0.165376 0.339275
vt 0.027359 0.344260
vt 0.026518 0.341124
vt 0.622117 0.181595
vt 0.622958 0.184732
vt 0.022321 0.020951
vt 0.023162 0.017899
vt 0.023162 0.345374
vt 0.022321 0.342248
vt 0.022321 0.020941
vt 0.026518 0.022064
vt 0.026518 0.341118
vt 0.622958 0.184732
vt 0.942208 0.023357
vt 0.942314 0.028980
vt 0.165099 0.028981
vt 0.165206 0.023357
vt 0.942062 0.015836
vt 0.165351 0.015836
vt 0.027359 0.344255
vt 0.027359 0.018928
vt 0.622958 0.178459
vt 0.022321 0.342241
vt 0.023162 0.345295
vt 0.023162 0.017827
vt 0.625861 0.181594
vt 0.625861 0.181596
vt 0.473461 0.991072
vt 0.016538 0.991072
vt 0.016538 0.363296
vt 0.473461 0.363296
vt 0.497254 0.991072
vt 0.497254 0.363296
vt 0.954178 0.363296
vt 0.954178 0.991072
vt 0.638636 0.068967
vt 0.780821 0.068967
vt 0.780821 0.264318
vt 0.638636 0.264318
vt 0.048352 0.110216
vt 0.243704 0.110216
vt 0.243704 0.252401
vt 0.048352 0.252401
vt 0.970034 0.987567
vt 0.970034 0.014710
vt 0.979299 0.014710
vt 0.979299 0.987567
vt 0.988565 0.014710
vt 0.988565 0.987567
vt 0.955975 0.158520
vt 0.797652 0.158520
vt 0.797652 0.045923
vt 0.955975 0.045923
vt 0.797652 0.290276
vt 0.797652 0.176885
vt 0.955975 0.176885
vt 0.955975 0.290276
vn 0.000000 -0.258819 0.965926
vn 0.000000 -0.258819 0.965926
vn 0.000000 -0.258819 0.965926
vn 0.000000 -0.258819 0.965926
vn 0.000000 0.262365 -0.964969
vn 0.000000 0.262365 -0.964969
vn 0.000000 0.258819 -0.965926
vn 0.000000 0.258819 -0.965926
vn 0.000000 -0.965916 -0.258856
vn 0.000000 -0.965916 -0.258856
vn 0.000000 -0.965916 -0.258856
vn 0.000000 -0.965916 -0.258856
vn 1.000000 0.000000 0.000000
vn 1.000000 0.000000 0.000000
vn 1.000000 0.000000 0.000000
vn 1.000000 0.000000 0.000000
vn -1.000000 0.000000 0.000000
vn -1.000000 0.000000 0.000000
vn -1.000000 0.000000 0.000000
vn -1.000000 0.000000 0.000000
vn 1.000000 0.000000 0.000000
vn 1.000000 0.000000 0.000000
vn 0.000000 0.258821 -0.965925
vn 0.000000 0.258821 -0.965925
vn -1.000000 0.000000 0.000000
vn -1.000000 0.000000 0.000000
vn 0.000000 1.000000 0.000000
vn 0.000000 1.000000 0.000000
vn 0.000000 1.000000 0.000000
vn 0.000000 1.000000 0.000000
vn -1.000000 0.000006 0.000000
vn -1.000000 0.000006 0.000000
vn -1.000000 0.000006 0.000000
vn -1.000000 0.000006 0.000000
vn 0.000000 -0.258819 -0.965926
vn 0.000000 -0.258819 -0.965926
vn 0.000000 -0.258819 -0.965926
vn 0.000000 -0.258819 -0.965926
vn 0.000000 0.262365 0.964969
vn 0.000000 0.258819 0.965926
vn 0.000000 0.258819 0.965926
vn 0.000000 0.262365 0.964969
vn 0.000000 -0.965931 0.258802
vn 0.000000 -0.965931 0.258802
vn 0.000000 -0.965931 0.258802
vn 0.000000 -0.965931 0.258802
vn 1.000000 -0.000000 0.000000
vn 1.000000 -0.000000 0.000000
vn 1.000000 -0.000000 0.000000
vn 1.000000 -0.000000 0.000000
vn -1.000000 -0.000000 0.000000
vn -1.000000 -0.000000 0.000000
vn -1.000000 -0.000000 0.000000
vn -1.000000 -0.000000 0.000000
vn 1.000000 0.000000 0.000000
vn 1.000000 0.000000 0.000000
vn 0.000000 0.258830 0.965923
vn 0.000000 0.258830 0.965923
vn -1.000000 0.000000 0.000000
vn -1.000000 0.000000 0.000000
vn 0.000000 -1.000000 0.000000
vn 0.000000 -1.000000 0.000000
vn 0.000000 -1.000000 0.000000
vn 0.000000 -1.000000 0.000000
vn 1.000000 0.000005 0.000000
vn 1.000000 0.000005 0.000000
vn 1.000000 0.000005 0.000000
vn 1.000000 0.000005 0.000000
vn 1.000000 0.000000 0.000000
vn 1.000000 0.000000 0.000000
vn 1.000000 0.000000 0.000000
vn 0.000000 0.733857 -0.679304
vn 0.000000 0.733857 -0.679304
vn -1.000000 0.000000 0.000000
vn -1.000000 0.000000 0.000000
vn -1.000000 0.000000 0.000000
vn -1.000000 0.000000 0.000000
vn -1.000000 0.000000 0.000000
vn -1.000000 0.000000 0.000000
vn 0.000000 0.733857 0.679304
vn 0.000000 0.733857 0.679304
vn 1.000000 0.000000 0.000000
vn 1.000000 0.000000 0.000000
vn 1.000000 0.000000 0.000000
s off
g Menu01_LP
usemtl initialShadingGroup
f 9/45/1 10/46/2 4/47/3 3/48/4
s 1
f 5/37/5 6/38/6 11/39/7 12/40/8
s off
f 7/5/9 8/6/10 2/7/11 1/8/12
s 2
f 10/1/13 11/2/14 6/3/15 4/4/16
s 3
f 12/11/17 9/12/18 3/13/19 5/14/20
s 2
f 2/15/21 8/16/22 11/2/14 10/1/13
s 1
f 12/9/8 11/10/7 8/6/23 7/5/24
s 3
f 7/17/25 1/18/26 9/12/18 12/11/17
s off
f 10/59/27 9/60/28 19/61/29 20/62/30
f 9/12/31 1/18/32 13/19/33 19/20/34
f 19/49/35 3/50/36 4/51/37 20/52/38
s 4
f 15/41/39 22/42/40 21/43/41 16/44/42
s off
f 17/23/43 13/24/44 14/25/45 18/26/46
s 5
f 20/21/47 4/4/48 16/22/49 21/29/50
s 6
f 22/30/51 15/31/52 3/13/53 19/20/54
s 5
f 14/32/55 20/21/47 21/29/50 18/33/56
s 4
f 22/27/40 17/23/57 18/26/58 21/28/41
s 6
f 17/34/59 22/30/51 19/20/54 13/19/60
s off
f 2/63/61 14/64/62 13/65/63 1/66/64
f 10/1/65 20/21/66 14/32/67 2/15/68
f 4/4/69 6/3/70 24/35/71
s 1
f 6/53/6 5/54/5 23/55/72 24/56/73
s off
f 5/14/74 3/13/75 23/36/76
f 3/13/77 15/31/78 23/36/79
s 4
f 15/57/39 16/58/42 24/56/80 23/55/81
s off
f 16/22/82 4/4/83 24/35/84
