# This file uses centimeters as units for non-parametric coordinates.

mtllib Menu02_model.mtl
g default
v 0.103591 -0.005886 0.153149
v -0.103591 -0.005886 0.153149
v 0.103591 -0.005886 -0.153149
v -0.103591 -0.005886 -0.153149
v 0.103591 0.005886 -0.153149
v -0.103591 0.005886 -0.153149
v 0.103591 0.005886 0.153149
v -0.103591 0.005886 0.153149
vt 0.945618 0.008111
vt 0.044572 0.267233
vt 0.983232 0.008111
vt 0.044572 0.233799
vt 0.010100 0.034308
vt 0.928847 0.034308
vt 0.928847 0.086514
vt 0.010100 0.086514
vt 0.928847 0.177008
vt 0.010100 0.177008
vt 0.914452 0.233799
vt 0.914452 0.267233
vt 0.983232 0.986744
vt 0.945618 0.986744
vt 0.486744 0.346805
vt 0.913934 0.346805
vt 0.913934 0.978363
vt 0.486744 0.978363
vt 0.448224 0.978363
vt 0.021035 0.978363
vt 0.021035 0.346805
vt 0.448224 0.346805
vt 0.010100 0.124802
vt 0.928847 0.124802
vn 0.000000 -1.000000 -0.000000
vn 0.000000 -1.000000 -0.000000
vn 0.000000 -1.000000 -0.000000
vn 0.000000 -1.000000 -0.000000
vn 0.000000 0.000003 -1.000000
vn 0.000000 0.000003 -1.000000
vn 0.000000 0.000003 -1.000000
vn 0.000000 0.000003 -1.000000
vn 0.000000 1.000000 0.000000
vn 0.000000 1.000000 0.000000
vn 0.000000 1.000000 0.000000
vn 0.000000 1.000000 0.000000
vn 0.000000 0.000000 1.000000
vn 0.000000 0.000000 1.000000
vn 0.000000 0.000000 1.000000
vn 0.000000 0.000000 1.000000
vn -1.000000 0.000000 0.000000
vn -1.000000 0.000000 0.000000
vn -1.000000 0.000000 0.000000
vn -1.000000 0.000000 0.000000
vn 1.000000 0.000000 0.000000
vn 1.000000 0.000000 0.000000
vn 1.000000 0.000000 0.000000
vn 1.000000 0.000000 0.000000
s off
g TurtleDefaultBakeLayer Menu02_LP
usemtl initialShadingGroup
f 1/15/1 2/16/2 4/17/3 3/18/4
f 3/5/5 4/6/6 6/7/7 5/8/8
f 5/19/9 6/20/10 8/21/11 7/22/12
f 7/9/13 8/10/14 2/23/15 1/24/16
f 2/2/17 8/4/18 6/11/19 4/12/20
f 7/1/21 1/3/22 3/13/23 5/14/24
