# This file uses centimeters as units for non-parametric coordinates.

mtllib Mug02_model.mtl
g default
v 0.036432 -0.040281 -0.011837
v 0.011837 -0.040281 -0.036432
v -0.011837 -0.040281 -0.036432
v -0.036432 -0.040281 -0.011837
v -0.036432 -0.040281 0.011837
v -0.011837 -0.040281 0.036432
v 0.011837 -0.040281 0.036432
v 0.036432 -0.040281 0.011837
v 0.036432 0.040281 -0.011837
v 0.011837 0.040281 -0.036432
v -0.011837 0.040281 -0.036432
v -0.036432 0.040281 -0.011837
v -0.036432 0.040281 0.011837
v -0.011837 0.040281 0.036432
v 0.011837 0.040281 0.036432
v 0.036432 0.040281 0.011837
v 0.031756 0.040281 -0.010318
v 0.010318 0.040281 -0.031756
v -0.010318 0.040281 -0.031756
v -0.031755 0.040281 -0.010318
v -0.031755 0.040281 0.010318
v -0.010318 0.040281 0.031755
v 0.010318 0.040281 0.031755
v 0.031755 0.040281 0.010318
v 0.031756 0.028588 -0.010318
v 0.010318 0.028588 -0.031756
v -0.010318 0.028588 -0.031756
v -0.031755 0.028588 -0.010318
v -0.031755 0.028588 0.010318
v -0.010318 0.028588 0.031755
v 0.010318 0.028588 0.031755
v 0.031755 0.028588 0.010318
v -0.000000 0.028588 -0.000000
v 0.000000 -0.040281 -0.000000
v 0.026753 -0.040281 0.026753
v 0.026753 0.040281 0.026753
v 0.023319 0.040281 0.023319
v 0.023319 0.028588 0.023319
v -0.026753 -0.040281 0.026753
v -0.026753 0.040281 0.026753
v -0.023319 0.040281 0.023319
v -0.023319 0.028588 0.023319
v 0.026753 -0.040281 -0.026753
v 0.026753 0.040281 -0.026753
v 0.023319 0.040281 -0.023319
v 0.023319 0.028588 -0.023319
v -0.026753 -0.040281 -0.026753
v -0.026753 0.040281 -0.026753
v -0.023319 0.040281 -0.023319
v -0.023319 0.028588 -0.023319
vt 0.413111 0.895446
vt 0.261339 0.895446
vt 0.337225 0.661893
vt 0.570779 0.737779
vt 0.570779 0.586007
vt 0.261339 0.428339
vt 0.413111 0.428339
vt 0.508733 0.490385
vt 0.580914 0.307370
vt 0.580914 0.029266
vt 0.635713 0.029266
vt 0.635713 0.307370
vt 0.690512 0.307370
vt 0.032920 0.029266
vt 0.032920 0.307370
vt 0.602387 0.745985
vt 0.641708 0.758761
vt 0.560323 0.884189
vt 0.531447 0.855314
vt 0.422118 0.926253
vt 0.434895 0.965575
vt 0.235814 0.965575
vt 0.248590 0.926253
vt 0.110386 0.884190
vt 0.139261 0.855314
vt 0.068322 0.745985
vt 0.029000 0.758761
vt 0.029000 0.559680
vt 0.068322 0.572457
vt 0.110386 0.434252
vt 0.139261 0.463128
vt 0.248590 0.392189
vt 0.235814 0.352867
vt 0.434895 0.352867
vt 0.422118 0.392189
vt 0.560323 0.434252
vt 0.531447 0.463128
vt 0.602386 0.572457
vt 0.641708 0.559680
vt 0.976596 0.026656
vt 0.832776 0.026656
vt 0.832776 0.064823
vt 0.398249 0.029266
vt 0.325183 0.029266
vt 0.325183 0.307370
vt 0.270384 0.307370
vt 0.270384 0.029266
vt 0.976596 0.122074
vt 0.832776 0.122074
vt 0.832776 0.093449
vt 0.735293 0.510353
vt 0.976596 0.093449
vt 0.976596 0.064823
vt 0.678807 0.510353
vt 0.832776 0.408328
vt 0.976596 0.408328
vt 0.832775 0.379703
vt 0.707050 0.423430
vt 0.976596 0.379703
vt 0.976596 0.351078
vt 0.832775 0.351077
vt 0.793974 0.395186
vt 0.832775 0.312910
vt 0.976596 0.312910
vt 0.832775 0.284285
vt 0.793974 0.451673
vt 0.976596 0.284285
vt 0.976596 0.255659
vt 0.832775 0.255659
vt 0.620126 0.451673
vt 0.832775 0.217492
vt 0.976596 0.217492
vt 0.832775 0.188867
vt 0.620126 0.395186
vt 0.976596 0.188867
vt 0.976596 0.160241
vt 0.832775 0.160241
vt 0.770882 0.359598
vt 0.735293 0.336506
vt 0.103672 0.737779
vt 0.103672 0.586007
vt 0.215585 0.307370
vt 0.087719 0.029266
vt 0.763578 0.307370
vt 0.215585 0.029266
vt 0.643218 0.487261
vt 0.763578 0.029266
vt 0.165717 0.490385
vt 0.398249 0.307370
vt 0.087719 0.307370
vt 0.690512 0.029266
vt 0.678807 0.336506
vt 0.643218 0.359598
vt 0.507848 0.029266
vt 0.508733 0.833401
vt 0.453048 0.029266
vt 0.142519 0.307370
vt 0.507848 0.307370
vt 0.142519 0.029266
vt 0.770882 0.487261
vt 0.453048 0.307370
vt 0.165717 0.833400
vn 0.969961 0.000000 -0.243262
vn 0.969961 0.000000 -0.243262
vn 0.707107 0.000000 -0.707106
vn 0.707107 0.000000 -0.707106
vn 0.243262 0.000000 -0.969961
vn 0.243262 0.000000 -0.969961
vn -0.243262 0.000000 -0.969961
vn -0.243262 0.000000 -0.969961
vn -0.707106 0.000000 -0.707107
vn -0.707106 0.000000 -0.707107
vn -0.969961 0.000000 -0.243262
vn -0.969961 0.000000 -0.243262
vn -0.969961 0.000000 0.243262
vn -0.969961 0.000000 0.243262
vn -0.707107 0.000000 0.707106
vn -0.707107 0.000000 0.707106
vn -0.243262 0.000000 0.969961
vn -0.243262 0.000000 0.969961
vn 0.243262 0.000000 0.969961
vn 0.243262 0.000000 0.969961
vn 0.707107 0.000000 0.707107
vn 0.707107 0.000000 0.707107
vn 0.969961 0.000000 0.243262
vn 0.969961 0.000000 0.243262
vn 0.000000 1.000000 -0.000000
vn 0.000000 1.000000 -0.000000
vn 0.000000 1.000000 0.000000
vn 0.000000 1.000000 0.000000
vn 0.000000 1.000000 0.000000
vn 0.000000 1.000000 0.000000
vn 0.000000 1.000000 0.000000
vn 0.000000 1.000000 0.000000
vn 0.000000 1.000000 0.000000
vn 0.000000 1.000000 0.000000
vn 0.000000 1.000000 0.000000
vn 0.000000 1.000000 0.000000
vn 0.000000 1.000000 0.000000
vn 0.000000 1.000000 0.000000
vn 0.000000 1.000000 -0.000000
vn 0.000000 1.000000 -0.000000
vn 0.000000 1.000000 0.000000
vn 0.000000 1.000000 0.000000
vn 0.000000 1.000000 0.000000
vn 0.000000 1.000000 0.000000
vn 0.000000 1.000000 0.000000
vn 0.000000 1.000000 0.000000
vn 0.000000 1.000000 -0.000000
vn 0.000000 1.000000 -0.000000
vn -0.969961 0.000000 0.243260
vn -0.969961 0.000000 0.243260
vn -0.707107 0.000000 0.707107
vn -0.707107 0.000000 0.707107
vn -0.243261 0.000000 0.969961
vn -0.243261 0.000000 0.969961
vn 0.243261 0.000000 0.969961
vn 0.243261 0.000000 0.969961
vn 0.707108 0.000000 0.707106
vn 0.707108 0.000000 0.707106
vn 0.969961 0.000000 0.243260
vn 0.969961 0.000000 0.243260
vn 0.969961 0.000000 -0.243259
vn 0.969961 0.000000 -0.243259
vn 0.707108 0.000000 -0.707106
vn 0.707108 0.000000 -0.707106
vn 0.243260 0.000000 -0.969961
vn 0.243260 0.000000 -0.969961
vn -0.243259 0.000000 -0.969961
vn -0.243259 0.000000 -0.969961
vn -0.707107 0.000000 -0.707107
vn -0.707107 0.000000 -0.707107
vn -0.969961 0.000000 -0.243261
vn -0.969961 0.000000 -0.243261
vn 0.000000 1.000000 0.000000
vn 0.000000 1.000000 0.000000
vn 0.000000 1.000000 -0.000000
vn 0.000000 1.000000 0.000000
vn 0.000000 1.000000 0.000000
vn 0.000000 1.000000 0.000000
vn 0.000000 1.000000 0.000000
vn 0.000000 1.000000 0.000000
vn 0.000000 1.000000 -0.000000
vn 0.000000 1.000000 0.000000
vn 0.000000 1.000000 -0.000000
vn 0.000000 1.000000 -0.000000
vn 0.000000 1.000000 0.000000
vn 0.000000 -1.000000 0.000000
vn 0.000000 -1.000000 -0.000000
vn 0.000000 -1.000000 0.000000
vn 0.000000 -1.000000 -0.000000
vn 0.000000 -1.000000 0.000000
vn 0.000000 -1.000000 0.000000
vn 0.000000 -1.000000 0.000000
vn 0.000000 -1.000000 0.000000
vn 0.000000 -1.000000 0.000000
vn 0.000000 -1.000000 -0.000000
vn 0.000000 -1.000000 -0.000000
vn 0.000000 -1.000000 -0.000000
vn 0.000000 -1.000000 0.000000
s 1
g Mug02_LP Mug02_LP Mug02
usemtl initialShadingGroup
f 9/9/1 1/10/2 43/11/3 44/12/4
f 10/13/5 2/91/6 3/87/7 11/84/8
f 11/15/8 3/14/7 47/83/9 48/90/10
f 12/97/11 4/99/12 5/85/13 13/82/14
f 13/82/14 5/85/13 39/47/15 40/46/16
f 14/45/17 6/44/18 7/43/19 15/89/20
f 15/89/20 7/43/19 35/96/21 36/101/22
f 16/98/23 8/94/24 1/10/2 9/9/1
s 2
f 17/16/25 9/17/26 44/18/27 45/19/28
f 18/20/29 10/21/30 11/22/31 19/23/32
f 19/23/32 11/22/31 48/24/33 49/25/34
f 20/26/35 12/27/36 13/28/37 21/29/38
f 21/29/38 13/28/37 40/30/39 41/31/40
f 22/32/41 14/33/42 15/34/43 23/35/44
f 23/35/44 15/34/43 36/36/45 37/37/46
f 24/38/47 16/39/48 9/17/26 17/16/25
s 3
f 25/48/49 17/49/50 45/50/51 46/52/52
f 26/53/53 18/42/54 19/41/55 27/40/56
f 27/56/56 19/55/55 49/57/57 50/59/58
f 28/60/59 20/61/60 21/63/61 29/64/62
f 29/64/62 21/63/61 41/65/63 42/67/64
f 30/68/65 22/69/66 23/71/67 31/72/68
f 31/72/68 23/71/67 37/73/69 38/75/70
f 32/76/71 24/77/72 17/49/50 25/48/49
s 4
f 26/51/73 27/54/74 33/58/75
f 32/62/76 25/66/77 33/58/75
f 33/58/75 28/70/78 29/74/79
f 32/62/76 33/58/75 38/78/80
f 31/79/81 38/78/80 33/58/75
f 33/58/75 27/54/74 50/86/82
f 33/58/75 30/92/83 31/79/81
f 30/92/83 33/58/75 42/93/84
f 29/74/79 42/93/84 33/58/75
f 33/58/75 25/66/77 46/100/85
s 7
f 3/1/86 2/2/87 34/3/88
f 4/4/89 34/3/88 5/5/90
f 34/3/88 7/6/91 6/7/92
f 34/3/88 6/7/92 39/8/93
f 34/3/88 1/80/94 8/81/95
f 35/88/96 7/6/91 34/3/88
f 34/3/88 47/95/97 3/1/86
f 34/3/88 4/4/89 47/95/97
f 43/102/98 1/80/94 34/3/88
f 34/3/88 39/8/93 5/5/90
f 8/81/95 35/88/96 34/3/88
s 1
f 16/98/23 36/101/22 35/96/21 8/94/24
s 2
f 24/38/47 37/37/46 36/36/45 16/39/48
s 3
f 32/76/71 38/75/70 37/73/69 24/77/72
s 1
f 14/45/17 40/46/16 39/47/15 6/44/18
s 2
f 22/32/41 41/31/40 40/30/39 14/33/42
s 3
f 30/68/65 42/67/64 41/65/63 22/69/66
s 7
f 2/2/87 43/102/98 34/3/88
s 1
f 10/13/5 44/12/4 43/11/3 2/91/6
s 2
f 18/20/29 45/19/28 44/18/27 10/21/30
s 3
f 26/53/53 46/52/52 45/50/51 18/42/54
s 4
f 33/58/75 46/100/85 26/51/73
s 1
f 12/97/11 48/90/10 47/83/9 4/99/12
s 2
f 20/26/35 49/25/34 48/24/33 12/27/36
s 3
f 28/60/59 50/59/58 49/57/57 20/61/60
s 4
f 33/58/75 50/86/82 28/70/78
g default
v 0.036460 0.029796 -0.005588
v 0.036725 -0.027294 -0.005588
v 0.059060 0.025912 -0.005588
v 0.036460 0.026752 0.005258
v 0.057786 0.023841 0.005258
v 0.036460 0.023129 -0.000991
v 0.039651 0.023170 -0.000991
v 0.040186 0.030745 -0.005588
v 0.040004 0.027365 0.005258
v 0.055323 0.021781 -0.000991
v 0.036460 0.033434 0.002019
v 0.040653 0.035103 0.002019
v 0.036460 0.033511 -0.002377
v 0.040531 0.035046 -0.002377
v 0.062329 0.027641 0.002019
v 0.061471 0.028028 -0.002377
v 0.064071 0.019148 -0.005588
v 0.059500 0.017011 -0.000991
v 0.062513 0.017945 0.005258
v 0.066798 0.011080 -0.005588
v 0.061754 0.010911 -0.000991
v 0.065078 0.010773 0.005258
v 0.067395 0.002592 -0.005588
v 0.062217 0.004185 -0.000991
v 0.065630 0.003122 0.005258
v 0.068069 0.019668 0.002019
v 0.067020 0.020109 -0.002377
v 0.071210 0.010518 0.002019
v 0.071924 0.001160 0.002019
v 0.070052 0.010942 -0.002377
v 0.070735 0.001504 -0.002377
v 0.061009 -0.017318 -0.005588
v 0.058464 -0.012261 -0.000991
v 0.060141 -0.015053 0.005258
v 0.063236 -0.020202 0.002019
v 0.062651 -0.020181 -0.002377
v 0.036733 -0.024178 0.005258
v 0.054778 -0.022835 -0.005588
v 0.053682 -0.016731 -0.000991
v 0.054404 -0.020059 0.005258
v 0.046381 -0.026353 -0.005588
v 0.046301 -0.019654 -0.000991
v 0.046353 -0.023277 0.005258
v 0.036748 -0.020555 -0.000991
v 0.055736 -0.026198 0.002019
v 0.055485 -0.026249 -0.002377
v 0.036705 -0.030860 0.002019
v 0.046451 -0.029958 0.002019
v 0.046432 -0.030070 -0.002377
v 0.036710 -0.031011 -0.002377
v 0.064363 -0.006118 0.005258
v 0.061589 -0.004195 -0.000991
v 0.065798 -0.007520 -0.005588
v 0.068513 -0.009491 -0.002377
v 0.069480 -0.009665 0.002019
v 0.048282 0.024855 -0.000991
v 0.050613 0.030933 -0.005588
v 0.052116 0.034220 -0.002377
v 0.052651 0.033967 0.002019
v 0.049818 0.028059 0.005258
vt 0.648505 0.918736
vt 0.780461 0.967250
vt 0.782303 0.947342
vt 0.827851 0.958509
vt 0.683972 0.935315
vt 0.692133 0.918007
vt 0.808326 0.848284
vt 0.696391 0.812511
vt 0.679390 0.857664
vt 0.792802 0.895194
vt 0.732360 0.820715
vt 0.715009 0.868602
vt 0.724243 0.950949
vt 0.733529 0.930550
vt 0.751437 0.959446
vt 0.755437 0.938487
vt 0.766487 0.827651
vt 0.750222 0.876880
vt 0.770459 0.886458
vt 0.786849 0.838845
vt 0.823153 0.808625
vt 0.855833 0.824549
vt 0.746251 0.780733
vt 0.839006 0.768315
vt 0.870336 0.787300
vt 0.759479 0.740573
vt 0.854942 0.727521
vt 0.886178 0.749264
vt 0.772699 0.700240
vt 0.781087 0.786101
vt 0.802100 0.797767
vt 0.796152 0.744897
vt 0.811005 0.704890
vt 0.817930 0.755957
vt 0.833325 0.714448
vt 0.889870 0.624770
vt 0.775394 0.595764
vt 0.902034 0.700839
vt 0.872181 0.677621
vt 0.812731 0.601609
vt 0.791599 0.652230
vt 0.851150 0.664736
vt 0.828216 0.657090
vt 0.848055 0.604238
vt 0.870318 0.610931
vt 0.905532 0.585444
vt 0.934693 0.614380
vt 0.827172 0.561427
vt 0.924659 0.542839
vt 0.957003 0.572449
vt 0.842422 0.515630
vt 0.948982 0.498284
vt 0.985302 0.526695
vt 0.856831 0.464887
vt 0.864115 0.563131
vt 0.885922 0.570448
vt 0.903736 0.527347
vt 0.882121 0.518983
vt 0.900111 0.472902
vt 0.924195 0.483123
vt 0.831000 0.908048
vt 0.843444 0.862054
vt 0.754244 0.645335
vt 0.918249 0.651092
vt 0.803648 0.511430
vt 0.817111 0.458985
vt 0.789345 0.557337
vt 0.734800 0.694302
vt 0.722024 0.734871
vt 0.709537 0.774179
vt 0.655130 0.902745
vt 0.823977 0.975339
vn 0.111009 -0.950087 -0.291568
vn -0.022465 -0.166123 -0.985849
vn 0.018652 -0.074803 -0.997024
vn 0.111135 -0.954941 -0.275202
vn -0.029374 -0.271095 0.962104
vn 0.040594 -0.222299 0.974133
vn 0.028251 -0.006835 -0.999578
vn -0.580152 -0.771490 -0.261203
vn -0.123281 -0.941941 -0.312328
vn 0.035725 0.027952 -0.998971
vn -0.057636 -0.101640 0.993150
vn 0.009987 -0.092637 0.995650
vn -0.236280 0.684248 0.689911
vn -0.030172 0.768686 0.638914
vn -0.299099 0.837996 -0.456402
vn -0.039644 0.906260 -0.420858
vn 0.578084 0.610008 0.541950
vn 0.257490 0.758155 0.599082
vn 0.276477 0.876062 -0.395064
vn 0.618408 0.681810 -0.390778
vn -0.003401 -0.011072 -0.999933
vn -0.846027 -0.487057 -0.216825
vn -0.124813 -0.070361 0.989682
vn -0.031474 0.002748 -0.999501
vn -0.958282 -0.210160 -0.193723
vn -0.162587 -0.022381 0.986440
vn -0.060160 0.001403 -0.998188
vn -0.983315 0.019937 -0.180818
vn -0.199505 0.002700 0.979893
vn 0.776298 0.386399 0.498054
vn 0.802519 0.416644 -0.427049
vn 0.853485 0.162809 0.495031
vn 0.860974 -0.073233 0.503349
vn 0.865849 0.176346 -0.468197
vn 0.870405 -0.067330 -0.487711
vn 0.029180 -0.000408 -0.999574
vn -0.825579 0.519546 -0.220205
vn -0.952889 0.236635 -0.189754
vn -0.037877 0.004724 -0.999271
vn -0.100841 0.068327 0.992554
vn -0.174448 0.032397 0.984133
vn 0.831060 -0.319757 -0.455077
vn 0.808510 -0.310587 0.499847
vn 0.670445 -0.541486 0.507244
vn 0.708597 -0.576508 -0.406853
vn 0.004233 0.043291 -0.999054
vn -0.521281 0.814672 -0.254116
vn -0.073787 0.154455 0.985241
vn 0.003125 0.066390 -0.997789
vn -0.229155 0.932572 -0.278924
vn -0.032099 0.204503 0.978339
vn -0.008448 0.092510 -0.995676
vn -0.090498 0.954946 -0.282647
vn -0.022574 0.237304 0.971173
vn 0.408905 -0.703652 0.581095
vn 0.464102 -0.795002 -0.390616
vn 0.214786 -0.889866 -0.402499
vn 0.179547 -0.756352 0.629042
vn 0.071049 -0.755749 0.650996
vn 0.086712 -0.906308 -0.413626
s 1
g Mug02_LP Mug02 Handle02_LP
usemtl initialShadingGroup
f 56/174/99 51/104/100 58/105/101 57/106/102
f 54/107/103 56/103/99 57/173/102 59/108/104
f 53/109/105 60/164/106 106/163/107 107/112/108
f 60/110/106 55/113/109 110/114/110 106/111/107
f 61/115/111 54/107/103 59/108/104 62/116/112
f 63/117/113 64/118/114 58/105/101 51/104/100
f 64/118/114 63/117/113 61/115/111 62/116/112
f 55/113/109 65/119/115 109/120/116 110/114/110
f 108/121/117 66/122/118 53/109/105 107/112/108
f 65/119/115 66/122/118 108/121/117 109/120/116
f 67/123/119 68/124/120 60/164/106 53/109/105
f 60/110/106 68/172/120 69/125/121 55/113/109
f 70/126/122 71/127/123 68/124/120 67/123/119
f 68/172/120 71/171/123 72/128/124 69/125/121
f 73/129/125 74/130/126 71/127/123 70/126/122
f 71/171/123 74/170/126 75/131/127 72/128/124
f 65/119/115 55/113/109 69/125/121 76/132/128
f 66/122/118 77/133/129 67/123/119 53/109/105
f 65/119/115 76/132/128 77/133/129 66/122/118
f 76/132/128 69/125/121 72/128/124 78/134/130
f 78/134/130 72/128/124 75/131/127 79/135/131
f 77/133/129 80/136/132 70/126/122 67/123/119
f 76/132/128 78/134/130 80/136/132 77/133/129
f 80/136/132 81/137/133 73/129/125 70/126/122
f 78/134/130 79/135/131 81/137/133 80/136/132
f 82/138/134 83/166/135 102/140/136 103/141/137
f 83/139/135 84/142/138 101/143/139 102/165/136
f 73/129/125 81/137/133 104/144/140 103/141/137
f 105/145/141 101/143/139 84/142/138 85/146/142
f 104/144/140 86/147/143 82/138/134 103/141/137
f 85/146/142 86/147/143 104/144/140 105/145/141
f 82/138/134 88/148/144 89/149/145 83/166/135
f 83/139/135 89/169/145 90/150/146 84/142/138
f 91/151/147 92/152/148 89/149/145 88/148/144
f 89/169/145 92/167/148 93/153/149 90/150/146
f 91/151/147 52/154/150 94/155/151 92/152/148
f 92/167/148 94/168/151 87/156/152 93/153/149
f 85/146/142 84/142/138 90/150/146 95/157/153
f 86/147/143 96/158/154 88/148/144 82/138/134
f 85/146/142 95/157/153 96/158/154 86/147/143
f 91/151/147 88/148/144 96/158/154 99/159/155
f 95/157/153 90/150/146 93/153/149 98/160/156
f 98/160/156 93/153/149 87/156/152 97/161/157
f 95/157/153 98/160/156 99/159/155 96/158/154
f 91/151/147 99/159/155 100/162/158 52/154/150
f 98/160/156 97/161/157 100/162/158 99/159/155
f 74/170/126 102/165/136 101/143/139 75/131/127
f 73/129/125 103/141/137 102/140/136 74/130/126
f 79/135/131 105/145/141 104/144/140 81/137/133
f 79/135/131 75/131/127 101/143/139 105/145/141
f 58/105/101 107/112/108 106/163/107 57/106/102
f 64/118/114 108/121/117 107/112/108 58/105/101
f 62/116/112 109/120/116 108/121/117 64/118/114
f 59/108/104 110/114/110 109/120/116 62/116/112
f 57/173/102 106/111/107 110/114/110 59/108/104
