# This file uses centimeters as units for non-parametric coordinates.

mtllib KMBottle02_model.mtl
g default
v 0.034099 -0.047849 -0.011079
v 0.021074 -0.047849 -0.029006
v -0.000000 -0.047849 -0.035854
v -0.021074 -0.047849 -0.029006
v -0.034099 -0.047849 -0.011079
v -0.034099 -0.047849 0.011079
v -0.021074 -0.047849 0.029006
v -0.000000 -0.047849 0.035854
v 0.021074 -0.047849 0.029006
v 0.034099 -0.047849 0.011079
v 0.034099 0.055850 -0.011079
v 0.021074 0.055850 -0.029006
v -0.000000 0.055850 -0.035854
v -0.021074 0.055850 -0.029006
v -0.034099 0.055850 -0.011079
v -0.034099 0.055850 0.011079
v -0.021074 0.055850 0.029006
v -0.000000 0.055850 0.035854
v 0.021074 0.055850 0.029006
v 0.034099 0.055850 0.011079
v -0.000000 -0.047849 -0.000000
v 0.011529 0.157551 -0.003746
v 0.007125 0.157551 -0.009807
v -0.000000 0.157551 -0.012122
v -0.007125 0.157551 -0.009807
v -0.011529 0.157551 -0.003746
v -0.011529 0.157551 0.003746
v -0.007125 0.157551 0.009807
v -0.000000 0.157551 0.012122
v 0.007125 0.157551 0.009807
v 0.011529 0.157551 0.003746
v 0.014395 0.157551 -0.004677
v 0.008897 0.157551 -0.012245
v -0.000000 0.157551 -0.015136
v -0.008897 0.157551 -0.012245
v -0.014395 0.157551 -0.004677
v -0.014395 0.157551 0.004677
v -0.008897 0.157551 0.012245
v -0.000000 0.157551 0.015136
v 0.008897 0.157551 0.012245
v 0.014395 0.157551 0.004677
v 0.014395 0.166958 -0.004677
v 0.008897 0.166958 -0.012245
v -0.000000 0.166958 -0.015136
v -0.008897 0.166958 -0.012245
v -0.014395 0.166958 -0.004677
v -0.014395 0.166958 0.004677
v -0.008897 0.166958 0.012245
v -0.000000 0.166958 0.015136
v 0.008897 0.166958 0.012245
v 0.014395 0.166958 0.004677
v -0.000000 0.167790 -0.000000
v 0.017698 0.118611 -0.005750
v 0.010938 0.118611 -0.015054
v -0.000000 0.118611 -0.018608
v -0.010938 0.118611 -0.015054
v -0.017698 0.118611 -0.005750
v -0.017698 0.118611 0.005750
v -0.010938 0.118611 0.015054
v -0.000000 0.118611 0.018608
v 0.010938 0.118611 0.015054
v 0.017698 0.118611 0.005750
v 0.014581 0.134970 -0.004738
v 0.014581 0.134970 0.004738
v 0.009011 0.134970 0.012403
v -0.000000 0.134970 0.015331
v -0.009011 0.134970 0.012403
v -0.014581 0.134970 0.004738
v -0.014581 0.134970 -0.004738
v -0.009011 0.134970 -0.012403
v -0.000000 0.134970 -0.015331
v 0.009011 0.134970 -0.012403
vt 0.547266 0.980014
vt 0.207005 0.309424
vt 0.122030 0.309496
vt 0.632241 0.980014
vt 0.053325 0.359501
vt 0.717216 0.980014
vt 0.027134 0.440339
vt 0.802191 0.980014
vt 0.053461 0.521133
vt 0.887167 0.980014
vt 0.122390 0.570308
vt 0.122390 0.980014
vt 0.207365 0.570308
vt 0.207365 0.980014
vt 0.275929 0.520946
vt 0.292340 0.980014
vt 0.302120 0.440108
vt 0.377316 0.980014
vt 0.275793 0.359314
vt 0.462291 0.980014
vt 0.164627 0.440224
vt 0.775009 0.425791
vt 0.760875 0.409037
vt 0.784038 0.386281
vt 0.801373 0.406806
vt 0.786415 0.444449
vt 0.815282 0.429676
vt 0.794885 0.464517
vt 0.825383 0.454267
vt 0.800376 0.485474
vt 0.831344 0.479887
vt 0.803109 0.506831
vt 0.664327 0.336150
vt 0.684950 0.368422
vt 0.690571 0.337695
vt 0.705854 0.374146
vt 0.716369 0.343946
vt 0.725837 0.382912
vt 0.740975 0.354399
vt 0.744343 0.394625
vt 0.763730 0.368652
vt 0.904613 0.333009
vt 0.873329 0.296211
vt 0.929510 0.374612
vt 0.947169 0.420107
vt 0.956683 0.468450
vt 0.652173 0.212765
vt 0.701700 0.213378
vt 0.749707 0.222846
vt 0.794981 0.240339
vt 0.836497 0.265055
vt 0.729679 0.439505
vt 0.717779 0.429096
vt 0.704362 0.420588
vt 0.689696 0.414069
vt 0.674052 0.409492
vt 0.761321 0.512553
vt 0.758627 0.495958
vt 0.754300 0.480121
vt 0.493608 0.078692
vt 0.485605 0.044939
vt 0.576247 0.044939
vt 0.584419 0.078692
vt 0.678395 0.044939
vt 0.687690 0.078692
vt 0.771017 0.044939
vt 0.779258 0.078692
vt 0.860049 0.044939
vt 0.868039 0.078692
vt 0.952858 0.044939
vt 0.042330 0.078692
vt 0.122128 0.044939
vt 0.130995 0.078692
vt 0.215461 0.044939
vt 0.223816 0.078692
vt 0.304501 0.044939
vt 0.312481 0.078692
vt 0.396382 0.044939
vt 0.404680 0.078692
vt 0.591557 0.389920
vt 0.542837 0.459517
vt 0.462514 0.487185
vt 0.381269 0.462356
vt 0.330134 0.394515
vt 0.328642 0.309574
vt 0.377361 0.239977
vt 0.457684 0.212309
vt 0.538929 0.237138
vt 0.590064 0.304979
vt 0.460099 0.349747
vt 0.957042 0.518343
vt 0.832817 0.505776
vt 0.657673 0.406613
vt 0.663703 0.365565
vt 0.739828 0.451638
vt 0.748058 0.465263
vt 0.972142 0.570308
vt 0.972142 0.980014
vt 0.462291 0.570308
vt 0.547266 0.570308
vt 0.377316 0.570308
vt 0.292340 0.570308
vt 0.887167 0.570308
vt 0.802191 0.570308
vt 0.717216 0.570308
vt 0.632241 0.570308
vt 0.493608 0.168636
vt 0.584419 0.168636
vt 0.687690 0.168636
vt 0.779258 0.168636
vt 0.868039 0.168636
vt 0.042330 0.168636
vt 0.130995 0.168636
vt 0.223816 0.168636
vt 0.312481 0.168636
vt 0.404680 0.168636
vt 0.960635 0.078692
vt 0.960635 0.168636
vt 0.050108 0.044939
vt 0.140277 0.044939
vt 0.232682 0.044939
vt 0.321701 0.044939
vt 0.413572 0.044939
vt 0.502689 0.044939
vt 0.594747 0.044939
vt 0.696847 0.044939
vt 0.788136 0.044939
vt 0.878361 0.044939
vn 0.951057 0.000000 -0.309017
vn 0.951057 0.000000 -0.309017
vn 0.587784 0.000000 -0.809018
vn 0.587784 0.000000 -0.809018
vn 0.000000 0.000000 -1.000000
vn 0.000000 0.000000 -1.000000
vn -0.587784 0.000000 -0.809018
vn -0.587784 0.000000 -0.809018
vn -0.951056 0.000000 -0.309019
vn -0.951056 0.000000 -0.309019
vn -0.951056 0.000000 0.309019
vn -0.951056 0.000000 0.309019
vn -0.587784 0.000000 0.809018
vn -0.587784 0.000000 0.809018
vn -0.000000 0.000000 1.000000
vn -0.000000 0.000000 1.000000
vn 0.587786 0.000000 0.809016
vn 0.587786 0.000000 0.809016
vn 0.951056 0.000000 0.309019
vn 0.951056 0.000000 0.309019
vn 0.000000 -1.000000 0.000000
vn 0.000000 -1.000000 0.000000
vn 0.000000 -1.000000 0.000000
vn 0.000000 -1.000000 0.000000
vn 0.000000 -1.000000 0.000000
vn 0.000000 -1.000000 0.000000
vn 0.000000 -1.000000 0.000000
vn 0.000000 -1.000000 0.000000
vn 0.000000 -1.000000 -0.000000
vn 0.000000 -1.000000 -0.000000
vn 0.000000 -1.000000 0.000000
vn 0.579417 0.168144 -0.797499
vn 0.937516 0.168144 -0.304617
vn 0.919289 0.256300 -0.298695
vn 0.568151 0.256300 -0.781994
vn -0.000000 0.168144 -0.985762
vn 0.000000 0.256300 -0.966597
vn -0.579417 0.168144 -0.797499
vn -0.568151 0.256300 -0.781994
vn -0.937516 0.168144 -0.304618
vn -0.919288 0.256301 -0.298696
vn -0.937516 0.168144 0.304618
vn -0.919288 0.256301 0.298696
vn -0.579417 0.168144 0.797498
vn -0.568151 0.256300 0.781994
vn -0.000000 0.168144 0.985762
vn -0.000000 0.256300 0.966597
vn 0.579417 0.168144 0.797498
vn 0.568152 0.256300 0.781993
vn 0.937516 0.168144 0.304617
vn 0.919288 0.256300 0.298696
vn 0.000000 -1.000000 0.000000
vn 0.000000 -1.000000 0.000000
vn 0.000000 -1.000000 0.000002
vn 0.000000 -1.000000 0.000002
vn 0.000000 -1.000000 -0.000000
vn 0.000000 -1.000000 0.000000
vn 0.000000 -1.000000 -0.000002
vn 0.000000 -1.000000 -0.000002
vn 0.000000 -1.000000 0.000000
vn 0.000000 -1.000000 0.000000
vn 0.000000 -1.000000 0.000000
vn 0.000000 -1.000000 0.000000
vn 0.000000 -1.000000 0.000000
vn 0.000000 -1.000000 0.000000
vn 0.000000 -1.000000 0.000000
vn 0.000000 -1.000000 0.000000
vn 0.000000 -1.000000 0.000000
vn 0.000000 -1.000000 0.000000
vn 0.000000 -1.000000 0.000000
vn 0.000000 -1.000000 0.000000
vn 0.951057 0.000000 -0.309017
vn 0.951057 0.000000 -0.309017
vn 0.587786 0.000000 -0.809017
vn 0.587786 0.000000 -0.809017
vn 0.000000 0.000000 -1.000000
vn 0.000000 0.000000 -1.000000
vn -0.587786 0.000000 -0.809017
vn -0.587786 0.000000 -0.809017
vn -0.951057 0.000000 -0.309016
vn -0.951057 0.000000 -0.309016
vn -0.951057 0.000000 0.309017
vn -0.951057 0.000000 0.309017
vn -0.587785 0.000000 0.809017
vn -0.587785 0.000000 0.809017
vn 0.000002 0.000000 1.000000
vn 0.000002 0.000000 1.000000
vn 0.587785 0.000000 0.809017
vn 0.587785 0.000000 0.809017
vn 0.951056 0.000000 0.309017
vn 0.951056 0.000000 0.309017
vn -0.000000 1.000000 -0.000000
vn -0.052160 0.998495 -0.016948
vn -0.052160 0.998495 0.016948
vn -0.032237 0.998495 0.044370
vn 0.052160 0.998495 0.016947
vn 0.052160 0.998495 -0.016947
vn 0.000000 0.998495 0.054844
vn 0.032237 0.998495 -0.044369
vn 0.032237 0.998495 0.044368
vn -0.000000 0.998495 -0.054843
vn -0.032237 0.998495 -0.044370
vn 0.566777 0.264958 -0.780103
vn 0.917066 0.264959 -0.297973
vn 0.000000 0.264958 -0.964260
vn -0.566777 0.264958 -0.780103
vn -0.917065 0.264959 -0.297974
vn -0.917065 0.264959 0.297974
vn -0.566777 0.264958 0.780103
vn 0.000000 0.264958 0.964260
vn 0.566778 0.264958 0.780102
vn 0.917065 0.264958 0.297974
vn 0.941597 0.140690 -0.305943
vn 0.941597 0.140690 0.305943
vn 0.581939 0.140690 0.800970
vn -0.000000 0.140690 0.990054
vn -0.581939 0.140690 0.800970
vn -0.941597 0.140690 0.305943
vn -0.941597 0.140690 -0.305944
vn -0.581939 0.140690 -0.800970
vn -0.000000 0.140690 -0.990054
vn 0.581939 0.140690 -0.800971
s 1
g Bottle02_LP KMBottle_02
usemtl initialShadingGroup
f 11/1/1 1/100/2 2/106/3 12/4/4
f 12/4/4 2/106/3 3/105/5 13/6/6
f 13/6/6 3/105/5 4/104/7 14/8/8
f 14/8/8 4/104/7 5/103/9 15/10/10
f 15/10/10 5/103/9 6/97/11 16/98/12
f 16/12/12 6/11/11 7/13/13 17/14/14
f 17/14/14 7/13/13 8/102/15 18/16/16
f 18/16/16 8/102/15 9/101/17 19/18/18
f 19/18/18 9/101/17 10/99/19 20/20/20
f 20/20/20 10/99/19 1/100/2 11/1/1
s 2
f 2/3/21 1/2/22 21/21/23
f 3/5/24 2/3/21 21/21/23
f 4/7/25 3/5/24 21/21/23
f 5/9/26 4/7/25 21/21/23
f 6/11/27 5/9/26 21/21/23
f 7/13/28 6/11/27 21/21/23
f 8/15/29 7/13/28 21/21/23
f 9/17/30 8/15/29 21/21/23
f 10/19/31 9/17/30 21/21/23
f 1/2/22 10/19/31 21/21/23
s 3
f 72/22/32 63/23/33 53/24/34 54/25/35
f 71/26/36 72/22/32 54/25/35 55/27/37
f 70/28/38 71/26/36 55/27/37 56/29/39
f 69/30/40 70/28/38 56/29/39 57/31/41
f 68/32/42 69/30/40 57/31/41 58/92/43
f 67/34/44 68/94/42 58/33/43 59/35/45
f 66/36/46 67/34/44 59/35/45 60/37/47
f 65/38/48 66/36/46 60/37/47 61/39/49
f 64/40/50 65/38/48 61/39/49 62/41/51
f 63/23/33 64/40/50 62/41/51 53/24/34
s 4
f 32/60/52 22/124/53 23/62/54 33/63/55
f 33/63/55 23/125/54 24/64/56 34/65/57
f 34/65/57 24/126/56 25/66/58 35/67/59
f 35/67/59 25/127/58 26/68/60 36/69/61
f 36/69/61 26/128/60 27/70/62 37/117/63
f 37/71/63 27/119/62 28/72/64 38/73/65
f 38/73/65 28/120/64 29/74/66 39/75/67
f 39/75/67 29/121/66 30/76/68 40/77/69
f 40/77/69 30/122/68 31/78/70 41/79/71
f 41/79/71 31/123/70 22/61/53 32/60/52
s 5
f 42/107/72 32/60/73 33/63/74 43/108/75
f 43/108/75 33/63/74 34/65/76 44/109/77
f 44/109/77 34/65/76 35/67/78 45/110/79
f 45/110/79 35/67/78 36/69/80 46/111/81
f 46/111/81 36/69/80 37/117/82 47/118/83
f 47/112/83 37/71/82 38/73/84 48/113/85
f 48/113/85 38/73/84 39/75/86 49/114/87
f 49/114/87 39/75/86 40/77/88 50/115/89
f 50/115/89 40/77/88 41/79/90 51/116/91
f 51/116/91 41/79/90 32/60/73 42/107/72
s 6
f 52/90/92 46/84/93 47/85/94
f 52/90/92 47/85/94 48/86/95
f 51/89/96 42/80/97 52/90/92
f 52/90/92 48/86/95 49/87/98
f 42/80/97 43/81/99 52/90/92
f 52/90/92 49/87/98 50/88/100
f 43/81/99 44/82/101 52/90/92
f 52/90/92 50/88/100 51/89/96
f 44/82/101 45/83/102 52/90/92
f 45/83/102 46/84/93 52/90/92
s 3
f 12/42/103 54/25/35 53/24/34 11/43/104
f 13/44/105 55/27/37 54/25/35 12/42/103
f 14/45/106 56/29/39 55/27/37 13/44/105
f 15/46/107 57/31/41 56/29/39 14/45/106
f 16/91/108 58/92/43 57/31/41 15/46/107
f 17/48/109 59/35/45 58/33/43 16/47/108
f 18/49/110 60/37/47 59/35/45 17/48/109
f 19/50/111 61/39/49 60/37/47 18/49/110
f 20/51/112 62/41/51 61/39/49 19/50/111
f 11/43/104 53/24/34 62/41/51 20/51/112
f 22/52/113 31/53/114 64/40/50 63/23/33
f 31/53/114 30/54/115 65/38/48 64/40/50
f 30/54/115 29/55/116 66/36/46 65/38/48
f 29/55/116 28/56/117 67/34/44 66/36/46
f 28/56/117 27/93/118 68/94/42 67/34/44
f 27/57/118 26/58/119 69/30/40 68/32/42
f 26/58/119 25/59/120 70/28/38 69/30/40
f 25/59/120 24/96/121 71/26/36 70/28/38
f 24/96/121 23/95/122 72/22/32 71/26/36
f 23/95/122 22/52/113 63/23/33 72/22/32
