# This file uses centimeters as units for non-parametric coordinates.

mtllib KMBottle01_model.mtl
g default
v 0.031163 -0.095366 -0.010126
v 0.019260 -0.095366 -0.026509
v -0.000000 -0.095366 -0.032767
v -0.019260 -0.095366 -0.026509
v -0.031163 -0.095366 -0.010126
v -0.031163 -0.095366 0.010126
v -0.019260 -0.095366 0.026509
v -0.000000 -0.095366 0.032767
v 0.019260 -0.095366 0.026509
v 0.031163 -0.095366 0.010126
v 0.031163 0.082343 -0.010126
v 0.019260 0.082343 -0.026509
v -0.000000 0.082343 -0.032767
v -0.019260 0.082343 -0.026509
v -0.031163 0.082343 -0.010126
v -0.031163 0.082343 0.010126
v -0.019260 0.082343 0.026509
v -0.000000 0.082343 0.032767
v 0.019260 0.082343 0.026509
v 0.031163 0.082343 0.010126
v 0.024576 0.085178 -0.007985
v 0.015189 0.085178 -0.020905
v -0.000000 0.085178 -0.025840
v -0.015189 0.085178 -0.020905
v -0.024576 0.085178 -0.007985
v -0.024576 0.085178 0.007985
v -0.015189 0.085178 0.020905
v -0.000000 0.085178 0.025840
v 0.015189 0.085178 0.020905
v 0.024576 0.085178 0.007985
v 0.024576 0.100656 -0.007985
v 0.015189 0.100656 -0.020905
v -0.000000 0.100656 -0.025840
v -0.015189 0.100656 -0.020905
v -0.024576 0.100656 -0.007985
v -0.024576 0.100656 0.007985
v -0.015189 0.100656 0.020905
v -0.000000 0.100656 0.025840
v 0.015189 0.100656 0.020905
v 0.024576 0.100656 0.007985
v 0.008072 0.101795 -0.002623
v 0.004989 0.101795 -0.006867
v -0.000000 0.101795 -0.008488
v -0.004989 0.101795 -0.006867
v -0.008072 0.101795 -0.002623
v -0.008072 0.101795 0.002623
v -0.004989 0.101795 0.006867
v -0.000000 0.101795 0.008488
v 0.004989 0.101795 0.006867
v 0.008072 0.101795 0.002623
v 0.001758 0.141247 -0.000571
v 0.001087 0.141247 -0.001496
v -0.000000 0.141247 -0.001849
v -0.001087 0.141247 -0.001496
v -0.001758 0.141247 -0.000571
v -0.001758 0.141247 0.000571
v -0.001087 0.141247 0.001496
v -0.000000 0.141247 0.001849
v 0.001087 0.141247 0.001496
v 0.001758 0.141247 0.000571
v -0.000000 0.141247 -0.000000
v -0.000000 -0.095366 -0.000000
vt 0.681722 0.953271
vt 0.228526 0.072394
vt 0.168607 0.116973
vt 0.758762 0.953271
vt 0.146346 0.188240
vt 0.832055 0.953271
vt 0.170238 0.258975
vt 0.905712 0.953271
vt 0.234912 0.298590
vt 0.234912 0.953271
vt 0.310144 0.298590
vt 0.310144 0.953271
vt 0.365600 0.256789
vt 0.383495 0.953271
vt 0.387908 0.185555
vt 0.457461 0.953271
vt 0.364083 0.114804
vt 0.531625 0.953271
vt 0.303191 0.071572
vt 0.606097 0.953271
vt 0.689426 0.977965
vt 0.766091 0.977965
vt 0.839420 0.977965
vt 0.912452 0.977965
vt 0.248907 0.977965
vt 0.317479 0.977965
vt 0.390892 0.977965
vt 0.464877 0.977965
vt 0.539072 0.977965
vt 0.613660 0.977965
vt 0.267133 0.186875
vt 0.916190 0.158804
vt 0.535727 0.201683
vt 0.393259 0.146999
vt 0.415315 0.105394
vt 0.540532 0.192621
vt 0.446698 0.070286
vt 0.547368 0.184973
vt 0.485578 0.043719
vt 0.555838 0.179186
vt 0.529691 0.027242
vt 0.565446 0.175597
vt 0.576467 0.021814
vt 0.575635 0.174415
vt 0.623180 0.027751
vt 0.585811 0.175708
vt 0.667111 0.044708
vt 0.595381 0.179402
vt 0.705699 0.071697
vt 0.603786 0.185281
vt 0.736697 0.107146
vt 0.610538 0.193002
vt 0.033406 0.957426
vt 0.121657 0.957426
vt 0.033406 0.684425
vt 0.121657 0.684425
vt 0.033406 0.593426
vt 0.121657 0.593426
vt 0.033406 0.502425
vt 0.121657 0.502425
vt 0.033406 0.411426
vt 0.121657 0.411426
vt 0.033406 0.775425
vt 0.121657 0.775425
vt 0.989273 0.181388
vt 0.121657 0.866426
vt 0.947704 0.235803
vt 0.033406 0.866426
vt 0.902536 0.176677
vt 0.121657 0.047426
vt 0.880443 0.256587
vt 0.033406 0.047426
vt 0.880443 0.183504
vt 0.121657 0.138425
vt 0.813182 0.235803
vt 0.033406 0.138425
vt 0.858350 0.176677
vt 0.121657 0.229426
vt 0.771613 0.181388
vt 0.033406 0.229426
vt 0.844696 0.158804
vt 0.771613 0.114127
vt 0.844696 0.136711
vt 0.813182 0.059712
vt 0.858350 0.118837
vt 0.880443 0.038927
vt 0.880443 0.112011
vt 0.947704 0.059712
vt 0.902536 0.118837
vt 0.989273 0.114127
vt 0.916190 0.136711
vt 0.715228 0.237412
vt 0.750876 0.226396
vt 0.750876 0.248428
vt 0.737260 0.208572
vt 0.693196 0.266252
vt 0.679580 0.248428
vt 0.715228 0.201764
vt 0.715228 0.273060
vt 0.693196 0.208572
vt 0.737260 0.266252
vt 0.679580 0.226396
vt 0.758762 0.298590
vt 0.832055 0.298590
vt 0.905712 0.298590
vt 0.383495 0.298590
vt 0.457461 0.298590
vt 0.531625 0.298590
vt 0.681722 0.298590
vt 0.606097 0.298590
vt 0.980295 0.298590
vt 0.973117 0.977965
vt 0.980295 0.953271
vt 0.033406 0.320426
vt 0.899083 0.977965
vt 0.825458 0.977965
vt 0.751828 0.977965
vt 0.674916 0.977965
vt 0.599395 0.977965
vt 0.524951 0.977965
vt 0.450804 0.977965
vt 0.376894 0.977965
vt 0.304020 0.977965
vt 0.615244 0.202117
vt 0.758299 0.148988
vt 0.121657 0.320426
vn 0.951056 0.000000 -0.309018
vn 0.951056 0.000000 -0.309018
vn 0.587785 0.000000 -0.809017
vn 0.587785 0.000000 -0.809017
vn 0.000000 0.000000 -1.000000
vn 0.000000 0.000000 -1.000000
vn -0.587785 0.000000 -0.809017
vn -0.587785 0.000000 -0.809017
vn -0.951056 0.000000 -0.309018
vn -0.951056 0.000000 -0.309018
vn -0.951056 0.000000 0.309018
vn -0.951056 0.000000 0.309018
vn -0.587785 0.000000 0.809017
vn -0.587785 0.000000 0.809017
vn -0.000000 0.000000 1.000000
vn -0.000000 0.000000 1.000000
vn 0.587785 0.000000 0.809017
vn 0.587785 0.000000 0.809017
vn 0.951056 0.000000 0.309018
vn 0.951056 0.000000 0.309018
vn 0.360254 0.925481 -0.117054
vn 0.360254 0.925481 -0.117054
vn 0.222650 0.925481 -0.306451
vn 0.222650 0.925481 -0.306451
vn 0.000000 0.925481 -0.378795
vn 0.000000 0.925480 -0.378795
vn -0.222650 0.925481 -0.306451
vn -0.222650 0.925481 -0.306452
vn -0.360254 0.925481 -0.117054
vn -0.360254 0.925481 -0.117054
vn -0.360254 0.925481 0.117054
vn -0.360254 0.925481 0.117054
vn -0.222650 0.925481 0.306451
vn -0.222650 0.925481 0.306451
vn -0.000000 0.925481 0.378795
vn -0.000000 0.925480 0.378795
vn 0.222650 0.925481 0.306451
vn 0.222650 0.925481 0.306451
vn 0.360254 0.925481 0.117054
vn 0.360254 0.925481 0.117053
vn 0.951057 0.000000 -0.309017
vn 0.951057 0.000000 -0.309017
vn 0.587786 0.000000 -0.809017
vn 0.587786 0.000000 -0.809017
vn -0.000000 0.000000 -1.000000
vn -0.000000 0.000000 -1.000000
vn -0.587786 0.000000 -0.809017
vn -0.587786 0.000000 -0.809017
vn -0.951057 0.000000 -0.309017
vn -0.951057 0.000000 -0.309017
vn -0.951057 0.000000 0.309017
vn -0.951057 0.000000 0.309017
vn -0.587786 0.000000 0.809017
vn -0.587786 0.000000 0.809017
vn 0.000000 0.000000 1.000000
vn 0.000000 0.000000 1.000000
vn 0.587786 0.000000 0.809016
vn 0.587786 0.000000 0.809016
vn 0.951057 0.000000 0.309017
vn 0.951057 0.000000 0.309017
vn 0.055711 0.997626 -0.040476
vn 0.055711 0.997626 -0.040476
vn 0.055711 0.997626 -0.040476
vn 0.055711 0.997626 -0.040476
vn 0.021280 0.997626 -0.065491
vn 0.021280 0.997626 -0.065491
vn 0.021280 0.997626 -0.065491
vn 0.021280 0.997626 -0.065491
vn -0.021280 0.997626 -0.065492
vn -0.021280 0.997626 -0.065492
vn -0.021280 0.997626 -0.065492
vn -0.021280 0.997626 -0.065492
vn -0.055711 0.997626 -0.040476
vn -0.055711 0.997626 -0.040476
vn -0.055711 0.997626 -0.040476
vn -0.055711 0.997626 -0.040476
vn -0.068862 0.997626 0.000000
vn -0.068862 0.997626 0.000000
vn -0.068862 0.997626 0.000000
vn -0.068862 0.997626 0.000000
vn -0.055710 0.997626 0.040476
vn -0.055710 0.997626 0.040476
vn -0.055710 0.997626 0.040476
vn -0.055710 0.997626 0.040476
vn -0.021279 0.997626 0.065491
vn -0.021279 0.997626 0.065491
vn -0.021280 0.997626 0.065491
vn -0.021280 0.997626 0.065491
vn 0.021279 0.997626 0.065491
vn 0.021279 0.997626 0.065491
vn 0.021279 0.997626 0.065491
vn 0.021279 0.997626 0.065491
vn 0.055710 0.997626 0.040476
vn 0.055710 0.997626 0.040476
vn 0.055710 0.997626 0.040476
vn 0.055710 0.997626 0.040476
vn 0.068862 0.997626 0.000000
vn 0.068862 0.997626 0.000000
vn 0.068862 0.997626 0.000000
vn 0.068862 0.997626 0.000000
vn 0.937872 0.165942 -0.304730
vn 0.937872 0.165942 -0.304730
vn 0.579636 0.165942 -0.797801
vn 0.579636 0.165942 -0.797801
vn -0.000000 0.165942 -0.986136
vn -0.000000 0.165942 -0.986136
vn -0.579636 0.165942 -0.797801
vn -0.579636 0.165942 -0.797801
vn -0.937871 0.165942 -0.304732
vn -0.937871 0.165942 -0.304732
vn -0.937871 0.165942 0.304732
vn -0.937871 0.165942 0.304732
vn -0.579635 0.165942 0.797801
vn -0.579635 0.165942 0.797801
vn -0.000000 0.165942 0.986136
vn 0.000000 0.165942 0.986136
vn 0.579636 0.165942 0.797800
vn 0.579636 0.165942 0.797800
vn 0.937871 0.165941 0.304733
vn 0.937871 0.165941 0.304733
vn 0.000000 1.000000 0.000001
vn 0.000000 1.000000 0.000007
vn 0.000000 1.000000 -0.000007
vn 0.000000 1.000000 0.000010
vn 0.000000 1.000000 0.000000
vn 0.000000 1.000000 0.000000
vn 0.000000 1.000000 0.000003
vn 0.000000 1.000000 0.000001
vn 0.000000 1.000000 0.000000
vn 0.000000 1.000000 -0.000006
vn 0.000000 1.000000 0.000000
vn 0.000000 -1.000000 0.000000
vn 0.000000 -1.000000 -0.000000
vn 0.000000 -1.000000 0.000000
vn 0.000000 -1.000000 -0.000000
vn 0.000000 -1.000000 0.000000
vn 0.000000 -1.000000 0.000000
vn 0.000000 -1.000000 -0.000000
vn 0.000000 -1.000000 0.000000
vn 0.000000 -1.000000 -0.000000
vn 0.000000 -1.000000 0.000000
vn 0.000000 -1.000000 -0.000000
s 1
g Bottle01_LP KMBottle_01
usemtl initialShadingGroup
f 11/1/1 1/109/2 2/103/3 12/4/4
f 12/4/4 2/103/3 3/104/5 13/6/6
f 13/6/6 3/104/5 4/105/7 14/8/8
f 14/8/8 4/105/7 5/111/9 15/113/10
f 15/10/10 5/9/9 6/11/11 16/12/12
f 16/12/12 6/11/11 7/106/13 17/14/14
f 17/14/14 7/106/13 8/107/15 18/16/16
f 18/16/16 8/107/15 9/108/17 19/18/18
f 19/18/18 9/108/17 10/110/19 20/20/20
f 20/20/20 10/110/19 1/109/2 11/1/1
s 2
f 21/21/21 11/1/22 12/4/23 22/117/24
f 22/22/24 12/4/23 13/6/25 23/116/26
f 23/23/26 13/6/25 14/8/27 24/115/28
f 24/24/28 14/8/27 15/113/29 25/112/30
f 25/25/30 15/10/29 16/12/31 26/123/32
f 26/26/32 16/12/31 17/14/33 27/122/34
f 27/27/34 17/14/33 18/16/35 28/121/36
f 28/28/36 18/16/35 19/18/37 29/120/38
f 29/29/38 19/18/37 20/20/39 30/119/40
f 30/30/40 20/20/39 11/1/22 21/118/21
s 3
f 31/63/41 21/64/42 22/66/43 32/68/44
f 32/68/44 22/66/43 23/54/45 33/53/46
f 33/72/46 23/70/45 24/74/47 34/76/48
f 34/76/48 24/74/47 25/78/49 35/80/50
f 35/80/50 25/78/49 26/126/51 36/114/52
f 36/114/52 26/126/51 27/62/53 37/61/54
f 37/61/54 27/62/53 28/60/55 38/59/56
f 38/59/56 28/60/55 29/58/57 39/57/58
f 39/57/58 29/58/57 30/56/59 40/55/60
f 40/55/60 30/56/59 21/64/42 31/63/41
s off
f 41/32/61 31/65/62 32/67/63 42/69/64
f 42/69/65 32/67/66 33/71/67 43/73/68
f 43/73/69 33/71/70 34/75/71 44/77/72
f 44/77/73 34/75/74 35/79/75 45/81/76
f 45/81/77 35/79/78 36/82/79 46/83/80
f 46/83/81 36/82/82 37/84/83 47/85/84
f 47/85/85 37/84/86 38/86/87 48/87/88
f 48/87/89 38/86/90 39/88/91 49/89/92
f 49/89/93 39/88/94 40/90/95 50/91/96
f 50/91/97 40/90/98 31/65/99 41/32/100
s 4
f 51/33/101 41/34/102 42/35/103 52/36/104
f 52/36/104 42/35/103 43/37/105 53/38/106
f 53/38/106 43/37/105 44/39/107 54/40/108
f 54/40/108 44/39/107 45/41/109 55/42/110
f 55/42/110 45/41/109 46/43/111 56/44/112
f 56/44/112 46/43/111 47/45/113 57/46/114
f 57/46/114 47/45/113 48/47/115 58/48/116
f 58/48/116 48/47/115 49/49/117 59/50/118
f 59/50/118 49/49/117 50/51/119 60/52/120
f 60/52/120 50/51/119 41/125/102 51/124/101
s 5
f 61/92/121 60/93/122 51/94/123
f 59/95/124 60/93/122 61/92/121
f 61/92/121 54/96/125 55/97/126
f 58/98/127 59/95/124 61/92/121
f 61/92/121 53/99/128 54/96/125
f 57/100/129 58/98/127 61/92/121
f 61/92/121 52/101/130 53/99/128
f 56/102/131 57/100/129 61/92/121
f 61/92/121 51/94/123 52/101/130
f 55/97/126 56/102/131 61/92/121
s 7
f 6/11/132 5/9/133 62/31/134
f 62/31/134 1/2/135 10/19/136
f 7/13/137 6/11/132 62/31/134
f 62/31/134 2/3/138 1/2/135
f 8/15/139 7/13/137 62/31/134
f 62/31/134 3/5/140 2/3/138
f 9/17/141 8/15/139 62/31/134
f 62/31/134 4/7/142 3/5/140
f 10/19/136 9/17/141 62/31/134
f 62/31/134 5/9/133 4/7/142
