# This file uses centimeters as units for non-parametric coordinates.

mtllib CakeDisplay01_model.mtl
g default
v 0.142682 0.007976 -0.046357
v 0.087836 0.007976 -0.121847
v -0.000908 0.007976 -0.150682
v -0.089652 0.007976 -0.121847
v -0.144499 0.007976 -0.046357
v -0.144499 0.007976 0.046954
v -0.089652 0.007976 0.122444
v -0.000908 0.007976 0.151279
v 0.087835 0.007976 0.122444
v 0.142682 0.007976 0.046954
v 0.137169 0.129089 -0.044565
v 0.101527 0.150460 -0.032985
v 0.084428 0.129089 -0.117157
v 0.062400 0.150460 -0.086838
v -0.000908 0.129089 -0.144884
v -0.000908 0.150460 -0.107408
v -0.086245 0.129089 -0.117157
v -0.064217 0.150460 -0.086838
v -0.138985 0.129089 -0.044565
v -0.103344 0.150460 -0.032984
v -0.138985 0.129089 0.045163
v -0.103344 0.150460 0.033582
v -0.086245 0.129089 0.117754
v -0.064217 0.150460 0.087435
v -0.000908 0.129089 0.145481
v -0.000908 0.150460 0.108005
v 0.084428 0.129089 0.117754
v 0.062400 0.150460 0.087435
v 0.137168 0.129089 0.045163
v 0.101527 0.150460 0.033582
v 0.009351 0.150460 -0.003035
v -0.000908 0.150460 -0.010488
v -0.011168 0.150460 -0.003035
v -0.007249 0.150460 0.009026
v 0.005432 0.150460 0.009026
v 0.009351 0.164126 -0.003035
v -0.000908 0.164126 -0.010488
v -0.011168 0.164126 -0.003035
v -0.007249 0.164126 0.009026
v 0.005432 0.164126 0.009026
v 0.017795 0.164126 -0.005778
v -0.000908 0.164126 -0.019367
v -0.019612 0.164126 -0.005778
v -0.012468 0.164126 0.016209
v 0.010651 0.164126 0.016209
v 0.017795 0.181367 -0.005778
v -0.000908 0.181367 -0.019367
v -0.019612 0.181367 -0.005778
v -0.012468 0.181367 0.016209
v 0.010651 0.181367 0.016209
v -0.000908 0.181367 -0.000027
vt 0.848660 0.851028
vt 0.825684 0.830937
vt 0.848426 0.791906
vt 0.876541 0.801850
vt 0.956847 0.831452
vt 0.918117 0.902382
vt 0.788450 0.857531
vt 0.802402 0.885260
vt 0.858760 0.955946
vt 0.709072 0.915997
vt 0.688027 0.947484
vt 0.792710 0.991989
vt 0.675232 0.883959
vt 0.650108 0.899895
vt 0.572537 0.931635
vt 0.657217 0.843358
vt 0.628678 0.848069
vt 0.547608 0.860718
vt 0.657918 0.800123
vt 0.629532 0.793825
vt 0.547169 0.782960
vt 0.676802 0.760421
vt 0.652322 0.743563
vt 0.572136 0.710281
vt 0.838439 0.699169
vt 0.873457 0.681394
vt 0.611094 0.649315
vt 0.852825 0.745710
vt 0.883671 0.743944
vt 0.970237 0.754390
vt 0.775012 0.778895
vt 0.730932 0.833643
vt 0.724692 0.825578
vt 0.726976 0.814965
vt 0.778474 0.768165
vt 0.348667 0.858599
vt 0.340108 0.802863
vt 0.380480 0.786339
vt 0.407658 0.839381
vt 0.228667 0.749040
vt 0.194780 0.786104
vt 0.260916 0.784739
vt 0.230317 0.830357
vt 0.298112 0.804152
vt 0.285760 0.859336
vt 0.354541 0.893001
vt 0.427389 0.864884
vt 0.154788 0.783711
vt 0.208694 0.855605
vt 0.278236 0.889016
vt 0.013132 0.962189
vt 0.009219 0.864385
vt 0.100228 0.830370
vt 0.162945 0.907459
vt 0.107482 0.988896
vt 0.077547 0.909879
vt 0.743605 0.906007
vt 0.608529 0.990748
vt 0.692302 0.699001
vt 0.967520 0.682388
vt 0.765242 0.782814
vt 0.742547 0.867341
vt 0.735825 0.812678
vt 0.711085 0.731188
vt 0.363012 0.964491
vt 0.256789 0.957591
vt 0.540963 0.861931
vt 0.462423 0.928639
vt 0.488346 0.804585
vt 0.450349 0.801204
vt 0.419370 0.754364
vn 0.925775 0.229038 -0.300802
vn 0.283216 0.954631 -0.092022
vn 0.282665 0.954812 0.091844
vn 0.925775 0.229038 0.300803
vn 0.949969 0.047814 0.308664
vn 0.949969 0.047814 -0.308663
vn 0.174696 0.954812 -0.240449
vn 0.572160 0.229038 -0.787512
vn 0.587113 0.047814 -0.808092
vn -0.000000 0.954631 -0.297791
vn -0.000000 0.229037 -0.973418
vn -0.000000 0.047814 -0.998856
vn -0.174697 0.954812 -0.240449
vn -0.572161 0.229037 -0.787511
vn -0.587113 0.047814 -0.808092
vn -0.283216 0.954631 -0.092022
vn -0.925775 0.229038 -0.300802
vn -0.949969 0.047814 -0.308663
vn -0.282665 0.954812 0.091843
vn -0.925775 0.229038 0.300803
vn -0.949969 0.047814 0.308664
vn -0.175037 0.954631 0.240918
vn -0.572160 0.229038 0.787511
vn -0.587113 0.047815 0.808092
vn -0.000000 0.954812 0.297211
vn 0.000000 0.229038 0.973418
vn 0.000000 0.047815 0.998856
vn 0.175037 0.954631 0.240918
vn 0.572160 0.229038 0.787512
vn 0.587113 0.047814 0.808092
vn 0.000000 1.000000 -0.000000
vn 0.000000 1.000000 -0.000000
vn 0.000000 1.000000 0.000000
vn 0.000000 1.000000 0.000000
vn 0.000000 1.000000 0.000000
vn 0.951057 0.000000 -0.309016
vn 0.951057 0.000000 -0.309016
vn -0.000001 0.000000 -1.000000
vn -0.000001 0.000000 -1.000000
vn -0.951057 0.000000 -0.309016
vn -0.951057 0.000000 -0.309016
vn -0.587785 0.000000 0.809017
vn -0.587785 0.000000 0.809017
vn 0.587785 0.000000 0.809017
vn 0.587785 0.000000 0.809017
vn 0.000000 -1.000000 -0.000002
vn 0.000000 -1.000000 -0.000002
vn 0.000000 -1.000000 -0.000002
vn 0.000000 -1.000000 -0.000002
vn 0.000000 -1.000000 0.000000
vn 0.000000 -1.000000 0.000000
vn 0.000000 -1.000000 0.000000
vn 0.000000 -1.000000 0.000000
vn 0.000000 -1.000000 0.000001
vn 0.000000 -1.000000 0.000001
vn 0.000000 -1.000000 0.000001
vn 0.000000 -1.000000 0.000001
vn 0.000000 -1.000000 0.000000
vn 0.000000 -1.000000 0.000000
vn 0.000000 -1.000000 0.000000
vn 0.000000 -1.000000 0.000000
vn 0.000000 -1.000000 0.000000
vn 0.000000 -1.000000 0.000000
vn 0.000000 -1.000000 0.000000
vn 0.000000 -1.000000 0.000000
vn 0.951057 0.000000 -0.309016
vn 0.951057 0.000000 -0.309016
vn -0.000001 0.000000 -1.000000
vn -0.000001 0.000000 -1.000000
vn -0.951057 0.000000 -0.309016
vn -0.951057 0.000000 -0.309016
vn -0.587785 0.000000 0.809017
vn -0.587785 0.000000 0.809017
vn 0.587786 0.000000 0.809017
vn 0.587786 0.000000 0.809017
vn 0.000000 1.000000 0.000001
vn 0.000000 1.000000 0.000001
vn 0.000000 1.000000 0.000002
vn 0.000000 1.000000 0.000001
vn 0.000000 1.000000 0.000000
vn 0.000000 1.000000 0.000001
s 1
g Lid_LP CakeDisplay01_LP
usemtl initialShadingGroup
f 11/1/1 12/2/2 30/3/3 29/4/4
f 11/1/1 29/4/4 10/5/5 1/6/6
f 14/7/7 12/2/2 11/1/1 13/8/8
f 13/8/8 11/1/1 1/6/6 2/9/9
f 16/62/10 14/7/7 13/8/8 15/57/11
f 15/57/11 13/8/8 2/9/9 3/12/12
f 18/13/13 16/10/10 15/11/11 17/14/14
f 17/14/14 15/11/11 3/58/12 4/15/15
f 20/16/16 18/13/13 17/14/14 19/17/17
f 19/17/17 17/14/14 4/15/15 5/18/18
f 22/19/19 20/16/16 19/17/17 21/20/20
f 21/20/20 19/17/17 5/18/18 6/21/21
f 24/22/22 22/19/19 21/20/20 23/23/23
f 23/23/23 21/20/20 6/21/21 7/24/24
f 26/64/25 24/22/22 23/23/23 25/59/26
f 25/59/26 23/23/23 7/24/24 8/27/27
f 28/28/28 26/25/25 25/26/26 27/29/29
f 27/29/29 25/26/26 8/60/27 9/30/30
f 30/3/3 28/28/28 27/29/29 29/4/4
f 29/4/4 27/29/29 9/30/30 10/5/5
f 31/31/31 12/2/2 14/7/7 32/61/32
f 32/61/32 14/7/7 16/62/10
f 32/32/32 16/10/10 18/13/13 33/33/33
f 33/33/33 18/13/13 20/16/16
f 33/33/33 20/16/16 22/19/19 34/34/34
f 34/34/34 22/19/19 24/22/22
f 34/34/34 24/22/22 26/64/25 35/63/35
f 35/35/35 26/25/25 28/28/28
f 35/35/35 28/28/28 30/3/3 31/31/31
f 31/31/31 30/3/3 12/2/2
s 2
f 36/36/36 31/37/37 32/38/38 37/39/39
f 37/39/39 32/38/38 33/71/40 38/70/41
f 38/41/41 33/40/40 34/42/42 39/43/43
f 39/43/43 34/42/42 35/44/44 40/45/45
f 40/45/45 35/44/44 31/37/37 36/36/36
s off
f 41/46/46 36/36/47 37/39/48 42/47/49
f 42/47/50 37/39/51 38/70/52 43/69/53
f 43/48/54 38/41/55 39/43/56 44/49/57
f 44/49/58 39/43/59 40/45/60 45/50/61
f 41/46/62 45/50/63 40/45/64 36/36/65
s 3
f 46/65/66 41/46/67 42/47/68 47/68/69
f 47/68/69 42/47/68 43/69/70 48/67/71
f 48/53/71 43/48/70 44/49/72 49/54/73
f 49/54/73 44/49/72 45/50/74 50/66/75
f 50/66/75 45/50/74 41/46/67 46/65/66
s 4
f 50/55/76 51/56/77 49/54/78
f 51/56/77 48/53/79 49/54/78
f 46/51/80 51/56/77 50/55/76
f 46/51/80 47/52/81 51/56/77
f 51/56/77 47/52/81 48/53/79
g default
v 0.156584 -0.008122 -0.050877
v 0.096774 -0.008122 -0.133198
v -0.000000 -0.008122 -0.164642
v -0.096774 -0.008122 -0.133198
v -0.156584 -0.008122 -0.050877
v -0.156584 -0.008122 0.050877
v -0.096774 -0.008122 0.133198
v -0.000000 -0.008122 0.164642
v 0.096774 -0.008122 0.133198
v 0.156584 -0.008122 0.050877
v 0.156584 0.008122 -0.050877
v 0.096774 0.008122 -0.133198
v -0.000000 0.008122 -0.164642
v -0.096774 0.008122 -0.133198
v -0.156584 0.008122 -0.050877
v -0.156584 0.008122 0.050877
v -0.096774 0.008122 0.133198
v -0.000000 0.008122 0.164642
v 0.096774 0.008122 0.133198
v 0.156584 0.008122 0.050877
v 0.000000 0.008924 0.000000
v 0.079501 -0.019858 -0.025832
v 0.049135 -0.019858 -0.067628
v 0.000000 -0.019858 -0.083592
v -0.049134 -0.019858 -0.067628
v -0.079501 -0.019858 -0.025831
v -0.079501 -0.019858 0.025831
v -0.049134 -0.019858 0.067628
v 0.000000 -0.019858 0.083592
v 0.049135 -0.019858 0.067628
v 0.079501 -0.019858 0.025831
v 0.028863 -0.046007 -0.009378
v 0.017838 -0.046007 -0.024552
v -0.000000 -0.046007 -0.030348
v -0.017838 -0.046007 -0.024552
v -0.028863 -0.046007 -0.009378
v -0.028863 -0.046007 0.009378
v -0.017838 -0.046007 0.024552
v -0.000000 -0.046007 0.030348
v 0.017838 -0.046007 0.024552
v 0.028863 -0.046007 0.009378
v 0.014920 -0.095304 -0.004848
v 0.009221 -0.095304 -0.012692
v -0.000000 -0.095304 -0.015688
v -0.009221 -0.095304 -0.012692
v -0.014920 -0.095304 -0.004848
v -0.014920 -0.095304 0.004848
v -0.009221 -0.095304 0.012692
v -0.000000 -0.095304 0.015688
v 0.009221 -0.095304 0.012692
v 0.014920 -0.095304 0.004848
v 0.050018 -0.139609 -0.016252
v 0.030913 -0.139609 -0.042548
v -0.000000 -0.139609 -0.052592
v -0.030913 -0.139609 -0.042548
v -0.050018 -0.139609 -0.016252
v -0.050018 -0.139609 0.016252
v -0.030913 -0.139609 0.042548
v -0.000000 -0.139609 0.052592
v 0.030913 -0.139609 0.042548
v 0.050018 -0.139609 0.016252
vt 0.015205 0.069989
vt 0.210003 0.069989
vt 0.404802 0.069989
vt 0.599601 0.069989
vt 0.794400 0.069989
vt 0.989198 0.069989
vt 0.210623 0.020285
vt 0.405421 0.020285
vt 0.600220 0.020285
vt 0.795018 0.020285
vt 0.989818 0.020285
vt 0.015205 0.101085
vt 0.210003 0.101085
vt 0.404802 0.101085
vt 0.599601 0.101085
vt 0.794400 0.101085
vt 0.015824 0.051381
vt 0.210623 0.051381
vt 0.405421 0.051381
vt 0.600220 0.051381
vt 0.795018 0.051381
vt 0.989818 0.051381
vt 0.313939 0.433404
vt 0.615368 0.531344
vt 0.500232 0.689815
vt 0.313939 0.750346
vt 0.127645 0.689815
vt 0.012510 0.531344
vt 0.012510 0.335464
vt 0.127645 0.176993
vt 0.313939 0.116462
vt 0.500232 0.176993
vt 0.615368 0.335464
vt 0.741347 0.218032
vt 0.748214 0.116196
vt 0.837958 0.148515
vt 0.793987 0.241435
vt 0.679123 0.217606
vt 0.636619 0.127298
vt 0.790249 0.577189
vt 0.831082 0.674570
vt 0.838540 0.539537
vt 0.919032 0.607799
vt 0.868300 0.488662
vt 0.967912 0.521731
vt 0.880663 0.433087
vt 0.984920 0.433094
vt 0.878051 0.377772
vt 0.977614 0.348906
vt 0.862342 0.325644
vt 0.950442 0.271779
vt 0.834339 0.279115
vt 0.904453 0.203619
vt 0.735854 0.295266
vt 0.756447 0.313393
vt 0.713384 0.283446
vt 0.759782 0.499773
vt 0.776248 0.479638
vt 0.787729 0.453854
vt 0.793238 0.424639
vt 0.792508 0.394151
vt 0.785748 0.364323
vt 0.773466 0.336878
vt 0.703868 0.336432
vt 0.706525 0.350937
vt 0.702558 0.322943
vt 0.710346 0.459507
vt 0.711578 0.446340
vt 0.712887 0.431601
vt 0.713608 0.415732
vt 0.713315 0.399241
vt 0.711872 0.382644
vt 0.709450 0.366417
vt 0.639809 0.325698
vt 0.645534 0.298576
vt 0.661504 0.267822
vt 0.640912 0.493408
vt 0.635357 0.461971
vt 0.635561 0.435143
vt 0.637313 0.412025
vt 0.638600 0.391029
vt 0.638879 0.370605
vt 0.638707 0.349303
vt 0.710009 0.470805
vt 0.659151 0.527164
vt 0.740141 0.512435
vt 0.727492 0.588948
vt 0.709178 0.692220
vt 0.015824 0.020285
vt 0.989198 0.101085
vn 0.951057 0.000000 -0.309017
vn 0.951057 0.000000 -0.309017
vn 0.587785 0.000000 -0.809017
vn 0.587785 0.000000 -0.809017
vn 0.000000 0.000000 -1.000000
vn 0.000000 0.000000 -1.000000
vn -0.587785 0.000000 -0.809017
vn -0.587785 0.000000 -0.809017
vn -0.951057 0.000000 -0.309017
vn -0.951057 0.000000 -0.309017
vn -0.951057 0.000000 0.309017
vn -0.951057 0.000000 0.309017
vn -0.587785 0.000000 0.809017
vn -0.587785 0.000000 0.809017
vn 0.000000 0.000000 1.000000
vn 0.000000 0.000000 1.000000
vn 0.587785 0.000000 0.809017
vn 0.587785 0.000000 0.809017
vn 0.951057 0.000000 0.309017
vn 0.951057 0.000000 0.309017
vn 0.000000 1.000000 -0.000000
vn 0.004636 0.999988 -0.001506
vn 0.002865 0.999988 -0.003944
vn 0.000000 0.999988 -0.004875
vn -0.002865 0.999988 -0.003944
vn -0.004636 0.999988 -0.001506
vn -0.004636 0.999988 0.001506
vn -0.002865 0.999988 0.003944
vn -0.000000 0.999988 0.004875
vn 0.002865 0.999988 0.003944
vn 0.004636 0.999988 0.001506
vn 0.117554 -0.979797 -0.161800
vn 0.084234 -0.989678 -0.115938
vn 0.136293 -0.989678 -0.044284
vn 0.190207 -0.979797 -0.061802
vn 0.000000 -0.979797 -0.199996
vn -0.000000 -0.989678 -0.143307
vn -0.117555 -0.979797 -0.161800
vn -0.084234 -0.989678 -0.115938
vn -0.190207 -0.979797 -0.061802
vn -0.136293 -0.989678 -0.044284
vn -0.190207 -0.979797 0.061802
vn -0.136293 -0.989678 0.044284
vn -0.117554 -0.979797 0.161800
vn -0.084234 -0.989678 0.115938
vn 0.000000 -0.979797 0.199996
vn -0.000000 -0.989678 0.143307
vn 0.117555 -0.979797 0.161800
vn 0.084234 -0.989678 0.115938
vn 0.190207 -0.979797 0.061802
vn 0.136293 -0.989678 0.044284
vn 0.345307 -0.809245 -0.475274
vn 0.558719 -0.809245 -0.181537
vn -0.000000 -0.809245 -0.587472
vn -0.345308 -0.809244 -0.475275
vn -0.558719 -0.809245 -0.181540
vn -0.558719 -0.809245 0.181540
vn -0.345307 -0.809244 0.475275
vn -0.000000 -0.809245 0.587472
vn 0.345307 -0.809245 0.475274
vn 0.558719 -0.809245 0.181538
vn 0.551927 0.343933 -0.759662
vn 0.893037 0.343932 -0.290163
vn -0.000000 0.343932 -0.938995
vn -0.551927 0.343932 -0.759663
vn -0.893036 0.343932 -0.290167
vn -0.893036 0.343932 0.290167
vn -0.551927 0.343932 0.759663
vn -0.000000 0.343932 0.938995
vn 0.551927 0.343933 0.759662
vn 0.893037 0.343932 0.290163
vn 0.730755 0.640017 -0.237435
vn 0.451631 0.640017 -0.621617
vn 0.000000 0.640016 -0.768361
vn -0.451631 0.640016 -0.621618
vn -0.730755 0.640017 -0.237438
vn -0.730754 0.640017 0.237438
vn -0.451631 0.640016 0.621618
vn 0.000000 0.640016 0.768361
vn 0.451631 0.640017 0.621617
vn 0.730755 0.640017 0.237435
s 1
g CakeDisplay01_LP Base_LP
usemtl initialShadingGroup
f 62/83/82 52/72/83 53/73/84 63/84/85
f 63/84/85 53/73/84 54/74/86 64/85/87
f 64/85/87 54/74/86 55/75/88 65/86/89
f 65/86/89 55/75/88 56/76/90 66/87/91
f 66/87/91 56/76/90 57/77/92 67/161/93
f 67/88/93 57/160/92 58/78/94 68/89/95
f 68/89/95 58/78/94 59/79/96 69/90/97
f 69/90/97 59/79/96 60/80/98 70/91/99
f 70/91/99 60/80/98 61/81/100 71/92/101
f 71/92/101 61/81/100 52/82/83 62/93/82
s 2
f 72/94/102 62/95/103 63/96/104
f 72/94/102 63/96/104 64/97/105
f 72/94/102 64/97/105 65/98/106
f 72/94/102 65/98/106 66/99/107
f 72/94/102 66/99/107 67/100/108
f 72/94/102 67/100/108 68/101/109
f 72/94/102 68/101/109 69/102/110
f 72/94/102 69/102/110 70/103/111
f 72/94/102 70/103/111 71/104/112
f 72/94/102 71/104/112 62/95/103
s 3
f 74/105/113 53/106/114 52/107/115 73/108/116
f 75/109/117 54/110/118 53/106/114 74/105/113
f 76/111/119 55/112/120 54/159/118 75/158/117
f 77/113/121 56/114/122 55/112/120 76/111/119
f 78/115/123 57/116/124 56/114/122 77/113/121
f 79/117/125 58/118/126 57/116/124 78/115/123
f 80/119/127 59/120/128 58/118/126 79/117/125
f 81/121/129 60/122/130 59/120/128 80/119/127
f 82/123/131 61/124/132 60/122/130 81/121/129
f 73/108/116 52/107/115 61/124/132 82/123/131
f 84/125/133 74/105/113 73/108/116 83/126/134
f 85/127/135 75/109/117 74/105/113 84/125/133
f 86/128/136 76/111/119 75/158/117 85/157/135
f 87/129/137 77/113/121 76/111/119 86/128/136
f 88/130/138 78/115/123 77/113/121 87/129/137
f 89/131/139 79/117/125 78/115/123 88/130/138
f 90/132/140 80/119/127 79/117/125 89/131/139
f 91/133/141 81/121/129 80/119/127 90/132/140
f 92/134/142 82/123/131 81/121/129 91/133/141
f 83/126/134 73/108/116 82/123/131 92/134/142
f 94/135/143 84/125/133 83/126/134 93/136/144
f 95/137/145 85/127/135 84/125/133 94/135/143
f 96/138/146 86/128/136 85/157/135 95/155/145
f 97/139/147 87/129/137 86/128/136 96/138/146
f 98/140/148 88/130/138 87/129/137 97/139/147
f 99/141/149 89/131/139 88/130/138 98/140/148
f 100/142/150 90/132/140 89/131/139 99/141/149
f 101/143/151 91/133/141 90/132/140 100/142/150
f 102/144/152 92/134/142 91/133/141 101/143/151
f 93/136/144 83/126/134 92/134/142 102/144/152
f 103/145/153 104/146/154 94/135/143 93/136/144
f 104/146/154 105/147/155 95/137/145 94/135/143
f 105/156/155 106/148/156 96/138/146 95/155/145
f 106/148/156 107/149/157 97/139/147 96/138/146
f 107/149/157 108/150/158 98/140/148 97/139/147
f 108/150/158 109/151/159 99/141/149 98/140/148
f 109/151/159 110/152/160 100/142/150 99/141/149
f 110/152/160 111/153/161 101/143/151 100/142/150
f 111/153/161 112/154/162 102/144/152 101/143/151
f 112/154/162 103/145/153 93/136/144 102/144/152
