# This file uses centimeters as units for non-parametric coordinates.

mtllib Glass02_model.mtl
g default
v -0.031449 -0.033481 0.015726
v -0.015726 -0.033481 0.031449
v -0.033481 0.033481 0.016742
v -0.016742 0.033481 0.033481
v 0.031449 -0.033481 0.015726
v 0.015726 -0.033481 0.031449
v 0.033481 0.033481 0.016742
v 0.016742 0.033481 0.033481
v -0.033481 0.033481 -0.016742
v -0.016742 0.033481 -0.033481
v -0.031449 -0.033481 -0.015726
v -0.015726 -0.033481 -0.031449
v 0.016742 0.033481 -0.033481
v 0.033481 0.033481 -0.016742
v 0.031449 -0.033481 -0.015726
v 0.015726 -0.033481 -0.031449
v -0.026336 -0.033481 0.026336
v -0.028038 0.033481 0.028038
v 0.026336 -0.033481 0.026336
v 0.028038 0.033481 0.028038
v -0.028038 0.033481 -0.028038
v -0.026336 -0.033481 -0.026336
v 0.028038 0.033481 -0.028038
v 0.026336 -0.033481 -0.026336
v -0.031431 0.033481 0.015717
v -0.015717 0.033481 0.031431
v 0.031431 0.033481 0.015717
v -0.015717 0.033481 -0.031431
v -0.031431 0.033481 -0.015717
v 0.015717 0.033481 -0.031431
v 0.031431 0.033481 -0.015717
v 0.015717 0.033481 0.031431
v -0.026321 0.033481 0.026321
v 0.026321 0.033481 0.026321
v -0.026321 0.033481 -0.026321
v 0.026321 0.033481 -0.026321
v -0.027448 -0.022914 0.013725
v -0.013725 -0.022914 0.027448
v 0.027448 -0.022914 0.013725
v -0.013725 -0.022914 -0.027448
v -0.027448 -0.022914 -0.013725
v 0.013725 -0.022914 -0.027448
v 0.027448 -0.022914 -0.013725
v 0.013725 -0.022914 0.027448
v -0.022985 -0.022914 0.022985
v 0.022985 -0.022914 0.022985
v -0.022985 -0.022914 -0.022985
v 0.022985 -0.022914 -0.022985
v 0.000000 -0.033481 0.000000
v 0.000000 -0.022914 0.000000
vt 0.554556 0.990457
vt 0.554556 0.703663
vt 0.692583 0.703593
vt 0.694267 0.990386
vt 0.208888 0.703838
vt 0.206608 0.990633
vt 0.065245 0.990704
vt 0.072387 0.703907
vt 0.932679 0.703471
vt 0.939987 0.990262
vt 0.798623 0.990333
vt 0.796212 0.703540
vt 0.243623 0.477383
vt 0.450465 0.703715
vt 0.450699 0.990510
vt 0.068629 0.652377
vt 0.034656 0.581877
vt 0.418618 0.652377
vt 0.348118 0.686351
vt 0.034656 0.372889
vt 0.068629 0.302388
vt 0.348118 0.268415
vt 0.418618 0.302389
vt 0.310970 0.990580
vt 0.312493 0.703785
vt 0.139129 0.686351
vt 0.502507 0.703689
vt 0.502629 0.990483
vt 0.744461 0.703567
vt 0.139129 0.268415
vt 0.746383 0.990360
vt 0.258845 0.990607
vt 0.260635 0.703812
vt 0.452591 0.581877
vt 0.639457 0.285997
vt 0.633167 0.273418
vt 0.838568 0.273418
vt 0.832279 0.285997
vt 0.928670 0.382388
vt 0.941249 0.376098
vt 0.941249 0.581500
vt 0.928670 0.575210
vt 0.543065 0.575210
vt 0.530487 0.581500
vt 0.530487 0.376098
vt 0.543065 0.382388
vt 0.832279 0.671602
vt 0.838568 0.684180
vt 0.633167 0.684180
vt 0.639457 0.671602
vt 0.563877 0.306808
vt 0.574410 0.317342
vt 0.907859 0.306808
vt 0.897325 0.317342
vt 0.563877 0.650790
vt 0.574410 0.640257
vt 0.907859 0.650790
vt 0.897325 0.640257
vt 0.067643 0.009401
vt 0.048495 0.252224
vt 0.736462 0.477944
vt 0.589858 0.331341
vt 0.648920 0.302879
vt 0.452591 0.372889
vt 0.648920 0.653009
vt 0.011789 0.990731
vt 0.589858 0.624548
vt 0.983317 0.703446
vt 0.993424 0.990235
vt 0.021743 0.703932
vt 0.883065 0.331341
vt 0.930246 0.010909
vt 0.911527 0.390403
vt 0.948538 0.253798
vt 0.911527 0.565486
vt 0.717479 0.010537
vt 0.883065 0.624548
vt 0.720131 0.253398
vt 0.280430 0.009773
vt 0.276890 0.252624
vt 0.561397 0.565486
vt 0.498946 0.010155
vt 0.451649 0.010072
vt 0.451650 0.252929
vt 0.324122 0.252706
vt 0.561397 0.390403
vt 0.327420 0.009855
vt 0.824003 0.302879
vt 0.233669 0.009691
vt 0.229430 0.252541
vt 0.098563 0.252311
vt 0.112239 0.009479
vt 0.670481 0.010455
vt 0.672902 0.253316
vt 0.545377 0.253093
vt 0.546244 0.010238
vt 0.885655 0.010831
vt 0.898460 0.253710
vt 0.767591 0.253482
vt 0.764242 0.010619
vt 0.498513 0.253011
vt 0.824003 0.653009
vn -0.121497 -0.031948 0.992078
vn -0.119725 -0.031928 0.992294
vn 0.119725 -0.031928 0.992294
vn 0.121497 -0.031948 0.992078
vn -0.119725 -0.031928 -0.992294
vn -0.121497 -0.031948 -0.992078
vn 0.121497 -0.031948 -0.992078
vn 0.119725 -0.031928 -0.992294
vn 0.992294 -0.031928 -0.119725
vn 0.992077 -0.031948 -0.121497
vn 0.992077 -0.031948 0.121497
vn 0.992294 -0.031928 0.119725
vn -0.992294 -0.031928 0.119725
vn -0.992077 -0.031948 0.121497
vn -0.992077 -0.031948 -0.121497
vn -0.992294 -0.031928 -0.119725
vn -0.706651 -0.035914 0.706651
vn -0.706651 -0.035914 0.706651
vn 0.706651 -0.035914 0.706651
vn 0.706651 -0.035914 0.706651
vn -0.706651 -0.035914 -0.706651
vn -0.706651 -0.035914 -0.706651
vn 0.706651 -0.035914 -0.706651
vn 0.706651 -0.035914 -0.706651
vn 0.000000 -1.000000 0.000000
vn 0.000000 -1.000000 -0.000000
vn 0.000000 -1.000000 -0.000000
vn 0.000000 1.000000 0.000002
vn 0.000000 1.000000 0.000002
vn 0.000000 1.000000 0.000002
vn 0.000000 1.000000 0.000002
vn 0.000000 1.000000 0.000000
vn 0.000000 1.000000 0.000000
vn 0.000000 1.000000 0.000000
vn 0.000000 1.000000 0.000000
vn 0.000000 1.000000 0.000000
vn 0.000000 1.000000 0.000000
vn 0.000000 1.000000 0.000000
vn 0.000000 1.000000 0.000000
vn 0.000000 1.000000 -0.000002
vn 0.000000 1.000000 -0.000002
vn 0.000000 1.000000 -0.000002
vn 0.000000 1.000000 -0.000002
vn 0.000000 1.000000 0.000000
vn 0.000000 1.000000 0.000000
vn 0.000000 1.000000 0.000000
vn 0.000000 1.000000 0.000000
vn 0.000000 1.000000 0.000000
vn 0.000000 1.000000 0.000000
vn 0.000000 1.000000 0.000000
vn 0.000000 1.000000 0.000000
vn 0.000000 1.000000 0.000000
vn 0.000000 1.000000 0.000000
vn 0.000000 1.000000 0.000000
vn 0.000000 1.000000 0.000000
vn 0.000000 1.000000 0.000000
vn 0.000000 1.000000 0.000000
vn 0.000000 1.000000 0.000000
vn 0.000000 1.000000 0.000000
vn 0.000000 1.000000 0.000000
vn 0.000000 1.000000 0.000000
vn 0.000000 1.000000 0.000000
vn 0.000000 1.000000 0.000000
vn 0.000000 1.000000 0.000001
vn 0.000000 1.000000 0.000001
vn 0.000000 1.000000 0.000001
vn 0.000000 1.000000 0.000001
vn 0.000000 1.000000 -0.000001
vn 0.000000 1.000000 -0.000001
vn 0.000000 1.000000 -0.000001
vn 0.000000 1.000000 -0.000001
vn 0.000000 1.000000 0.000000
vn 0.000000 1.000000 0.000000
vn 0.000000 1.000000 0.000000
vn 0.000000 1.000000 0.000000
vn 0.118314 0.074113 -0.990207
vn 0.122420 0.074222 -0.989699
vn -0.122420 0.074222 -0.989699
vn -0.118314 0.074113 -0.990207
vn -0.990206 0.074113 -0.118315
vn -0.989699 0.074222 -0.122420
vn -0.989699 0.074222 0.122420
vn -0.990206 0.074113 0.118315
vn 0.990206 0.074113 0.118315
vn 0.989699 0.074222 0.122420
vn 0.989699 0.074222 -0.122420
vn 0.990206 0.074113 -0.118315
vn -0.118314 0.074113 0.990207
vn -0.122420 0.074222 0.989699
vn 0.122420 0.074222 0.989699
vn 0.118314 0.074113 0.990207
vn 0.704646 0.083352 -0.704646
vn 0.704646 0.083352 -0.704646
vn -0.704646 0.083352 -0.704646
vn -0.704646 0.083352 -0.704646
vn 0.704646 0.083352 0.704646
vn 0.704646 0.083352 0.704646
vn -0.704646 0.083352 0.704646
vn -0.704646 0.083352 0.704646
vn 0.000000 1.000000 0.000000
vn 0.000000 1.000000 0.000000
vn 0.000000 1.000000 0.000000
vn 0.000000 -1.000000 -0.000000
vn 0.000000 -1.000000 0.000000
vn 0.000000 -1.000000 0.000000
vn 0.000000 -1.000000 0.000000
vn 0.000000 -1.000000 0.000000
vn 0.000000 -1.000000 0.000000
vn 0.000000 -1.000000 0.000000
vn 0.000000 -1.000000 0.000000
vn 0.000000 -1.000000 -0.000000
vn 0.000000 -1.000000 0.000000
vn 0.000000 1.000000 0.000000
vn 0.000000 1.000000 0.000000
vn 0.000000 1.000000 0.000000
vn 0.000000 1.000000 0.000000
vn 0.000000 1.000000 0.000000
vn 0.000000 1.000000 0.000000
vn 0.000000 1.000000 0.000000
vn 0.000000 1.000000 0.000000
vn 0.000000 1.000000 0.000000
vn 0.000000 1.000000 0.000000
s 1
g Glass02_LP
usemtl initialShadingGroup
f 4/1/1 2/2/2 6/3/3 8/4/4
f 12/5/5 10/6/6 13/7/7 16/8/8
f 15/9/9 14/10/10 7/11/11 5/12/12
f 1/14/13 3/15/14 9/24/15 11/25/16
f 3/15/14 1/14/13 17/27/17 18/28/18
f 2/2/2 4/1/1 18/28/18 17/27/17
f 8/4/4 6/3/3 19/29/19 20/31/20
f 5/12/12 7/11/11 20/31/20 19/29/19
f 11/25/16 9/24/15 21/32/21 22/33/22
f 10/6/6 12/5/5 22/33/22 21/32/21
f 16/8/8 13/7/7 23/66/23 24/70/24
f 14/10/10 15/9/9 24/68/24 23/69/23
s 5
f 49/13/25 24/16/26 15/17/27
s off
f 26/35/28 4/36/29 8/37/30 32/38/31
f 27/39/32 7/40/33 14/41/34 31/42/35
f 29/43/36 9/44/37 3/45/38 25/46/39
f 30/47/40 13/48/41 10/49/42 28/50/43
f 25/46/44 3/45/45 18/51/46 33/52/47
f 32/38/48 8/37/49 20/53/50 34/54/51
f 28/50/52 10/49/53 21/55/54 35/56/55
f 31/42/56 14/41/57 23/57/58 36/58/59
f 33/52/60 18/51/61 4/36/62 26/35/63
f 34/54/64 20/53/65 7/40/66 27/39/67
f 35/56/68 21/55/69 9/44/70 29/43/71
f 36/58/72 23/57/73 13/48/74 30/47/75
s 6
f 38/83/76 26/84/77 32/85/78 44/87/79
f 39/89/80 27/90/81 31/91/82 43/92/83
f 41/93/84 29/94/85 25/95/86 37/96/87
f 42/97/88 30/98/89 28/99/90 40/100/91
f 37/96/87 25/95/86 33/101/92 45/82/93
f 44/87/79 32/85/78 34/80/94 46/79/95
f 40/100/91 28/99/90 35/78/96 47/76/97
f 43/92/83 31/91/82 36/60/98 48/59/99
f 45/82/93 33/101/92 26/84/77 38/83/76
f 46/79/95 34/80/94 27/90/81 39/89/80
f 47/76/97 35/78/96 29/94/85 41/93/84
f 48/72/99 36/74/98 30/98/89 42/97/88
s 10
f 50/61/100 45/62/101 38/63/102
s 5
f 22/18/103 12/19/104 49/13/25
f 5/20/105 19/21/106 49/13/25
f 2/22/107 17/23/108 49/13/25
f 12/19/104 16/26/109 49/13/25
f 49/13/25 19/21/106 6/30/110
f 49/13/25 11/34/111 22/18/103
f 49/13/25 6/30/110 2/22/107
f 49/13/25 16/26/109 24/16/26
f 49/13/25 15/17/27 5/20/105
f 17/23/108 1/64/112 49/13/25
f 1/64/112 11/34/111 49/13/25
s 10
f 40/65/113 47/67/114 50/61/100
f 50/61/100 46/71/115 39/73/116
f 43/75/117 48/77/118 50/61/100
f 41/81/119 37/86/120 50/61/100
f 47/67/114 41/81/119 50/61/100
f 50/61/100 39/73/116 43/75/117
f 50/61/100 37/86/120 45/62/101
f 50/61/100 38/63/102 44/88/121
f 48/77/118 42/102/122 50/61/100
f 50/61/100 44/88/121 46/71/115
f 42/102/122 40/65/113 50/61/100
