# This file uses centimeters as units for non-parametric coordinates.

mtllib TableNoCard02_model.mtl
g default
v -0.042320 -0.142053 0.067184
v 0.042320 -0.142053 0.067184
v -0.042320 -0.139348 0.067184
v 0.042320 -0.139348 0.067184
v -0.042320 -0.139348 -0.067184
v 0.042320 -0.139348 -0.067184
v -0.042320 -0.142053 -0.067184
v 0.042320 -0.142053 -0.067184
v 0.042320 -0.142053 0.002406
v 0.042320 -0.139348 0.002406
v -0.042320 -0.139348 0.002406
v -0.042320 -0.142053 0.002406
v -0.042320 -0.139348 -0.002406
v 0.042320 -0.139348 -0.002406
v 0.042320 -0.142053 -0.002406
v -0.042320 -0.142053 -0.002406
v -0.042320 0.141998 -0.002406
v 0.042320 0.141998 -0.002406
v -0.042320 0.141998 0.002406
v 0.042320 0.141998 0.002406
vt 0.820864 0.131042
vt 0.931444 0.131042
vt 0.820864 0.317420
vt 0.931444 0.317420
vt 0.820864 0.503799
vt 0.931444 0.503799
vt 0.820864 0.690179
vt 0.931444 0.690179
vt 0.820864 0.876557
vt 0.931444 0.876557
vt 0.524968 0.965982
vt 0.717993 0.965982
vt 0.467217 0.039034
vt 0.660242 0.039034
vt 0.931444 0.788028
vt 0.717993 0.969795
vt 0.931444 0.405950
vt 0.524968 0.969795
vt 0.660242 0.042847
vt 0.820864 0.405950
vt 0.467217 0.042847
vt 0.820864 0.788028
vt 0.867604 0.042847
vt 0.820864 0.415269
vt 0.931444 0.415269
vt 0.925356 0.969795
vt 0.931444 0.778709
vt 0.732330 0.969795
vt 0.674579 0.042847
vt 0.820864 0.778709
vt 0.732330 0.965982
vt 0.925356 0.965982
vt 0.717993 0.569408
vt 0.717993 0.353766
vt 0.038076 0.084746
vt 0.299437 0.084746
vt 0.299437 0.927158
vt 0.038076 0.927158
vt 0.344397 0.083212
vt 0.605758 0.083212
vt 0.605758 0.925625
vt 0.344397 0.925625
vt 0.674579 0.039034
vt 0.867604 0.039034
vt 0.674579 0.439421
vt 0.660242 0.439421
vt 0.732330 0.353766
vt 0.732330 0.569408
vn 0.000000 0.000000 1.000000
vn 0.000000 0.000000 1.000000
vn 0.000000 0.000000 1.000000
vn 0.000000 0.000000 1.000000
vn 0.000000 1.000000 0.000000
vn 0.000000 1.000000 0.000000
vn 0.000000 1.000000 0.000000
vn 0.000000 1.000000 0.000000
vn 0.000000 0.000000 -1.000000
vn 0.000000 0.000000 -1.000000
vn 0.000000 0.000000 -1.000000
vn 0.000000 0.000000 -1.000000
vn 0.000000 -1.000000 0.000000
vn 0.000000 -1.000000 0.000000
vn 0.000000 -1.000000 0.000000
vn 0.000000 -1.000000 0.000000
vn 1.000000 -0.000001 0.000000
vn 1.000000 -0.000001 0.000000
vn 1.000000 -0.000001 0.000000
vn 1.000000 -0.000001 0.000000
vn -1.000000 -0.000001 0.000000
vn -1.000000 -0.000001 0.000000
vn -1.000000 -0.000001 0.000000
vn -1.000000 -0.000001 0.000000
vn 0.000000 1.000000 0.000000
vn 0.000000 1.000000 0.000000
vn 0.000000 1.000000 0.000000
vn 0.000000 1.000000 0.000000
vn 1.000000 0.000001 0.000000
vn 1.000000 0.000001 0.000000
vn 1.000000 0.000001 0.000000
vn 1.000000 0.000001 0.000000
vn 0.000000 -1.000000 0.000000
vn 0.000000 -1.000000 0.000000
vn 0.000000 -1.000000 0.000000
vn 0.000000 -1.000000 0.000000
vn -1.000000 0.000001 0.000000
vn -1.000000 0.000001 0.000000
vn -1.000000 0.000001 0.000000
vn -1.000000 0.000001 0.000000
vn 0.000000 1.000000 0.000000
vn 0.000000 1.000000 0.000000
vn 0.000000 1.000000 0.000000
vn 0.000000 1.000000 0.000000
vn 0.000000 0.000000 -1.000000
vn 0.000000 0.000000 -1.000000
vn 0.000000 0.000000 -1.000000
vn 0.000000 0.000000 -1.000000
vn -1.000000 0.000000 0.000000
vn -1.000000 0.000000 0.000000
vn -1.000000 0.000000 0.000000
vn -1.000000 0.000000 0.000000
vn 0.000000 0.000000 1.000000
vn 0.000000 0.000000 1.000000
vn 0.000000 0.000000 1.000000
vn 0.000000 0.000000 1.000000
vn 1.000000 0.000000 0.000000
vn 1.000000 0.000000 0.000000
vn 1.000000 0.000000 0.000000
vn 1.000000 0.000000 0.000000
s off
g TableNoCard02_LP TableNoCard02
usemtl initialShadingGroup
f 1/1/1 2/2/2 4/4/3 3/3/4
f 5/5/5 13/24/6 14/25/7 6/6/8
f 5/5/9 6/6/10 8/8/11 7/7/12
s 1
f 15/27/13 16/30/14 7/7/15 8/8/16
s 2
f 6/11/17 14/12/18 15/16/19 8/18/20
s 3
f 7/13/21 16/14/22 13/19/23 5/21/24
s off
f 10/17/25 11/20/26 3/3/27 4/4/28
s 2
f 2/26/29 9/28/30 10/31/31 4/32/32
s 1
f 1/9/33 12/22/34 9/15/35 2/10/36
s 3
f 3/23/37 11/29/38 12/43/39 1/44/40
s off
f 18/33/41 17/34/42 19/47/43 20/48/44
s 2
f 9/28/30 15/16/19 14/12/18 10/31/31
s 1
f 12/22/34 16/30/14 15/27/13 9/15/35
s 3
f 13/19/23 16/14/22 12/43/39 11/29/38
s off
f 14/39/45 13/40/46 17/41/47 18/42/48
f 13/19/49 11/29/50 19/45/51 17/46/52
f 11/35/53 10/36/54 20/37/55 19/38/56
f 10/31/57 14/12/58 18/33/59 20/48/60
