# This file uses centimeters as units for non-parametric coordinates.

mtllib Teaspoon_LP.mtl
g default
v 0.024514 0.000095 -0.003350
v 0.024514 0.000095 0.003350
v 0.037560 -0.001441 -0.013295
v 0.037560 -0.001441 0.013295
v 0.024514 0.000095 0.000000
v 0.037560 -0.005496 0.000000
v 0.073449 0.006936 0.000000
v 0.037560 -0.006796 0.000000
v 0.024514 -0.002583 0.000000
v 0.024514 -0.002583 -0.002680
v 0.037560 -0.004762 -0.010636
v 0.069297 0.005421 -0.011197
v 0.069297 0.005421 0.011197
v 0.037560 -0.004762 0.010636
v 0.024514 -0.002583 0.002680
v 0.067501 0.002226 -0.009615
v 0.067501 0.002226 0.009615
v 0.068407 0.002183 0.000000
v 0.056761 0.001097 -0.015555
v 0.056761 -0.003518 0.000000
v 0.056761 0.001097 0.015555
v 0.056761 -0.002569 0.012444
v 0.056761 -0.004767 0.000000
v 0.056761 -0.002569 -0.012444
v 0.070635 0.002337 0.000000
v -0.067678 0.001521 -0.007109
v -0.067678 0.003587 -0.007109
v -0.067678 0.003587 0.007109
v -0.067678 0.001521 0.007109
v -0.073323 0.003587 0.000000
v -0.073323 0.001521 0.000000
vt 0.907580 0.459944
vt 0.821728 0.534366
vt 0.821046 0.485787
vt 0.816821 0.184870
vt 0.815126 0.064136
vt 0.840343 0.063852
vt 0.911097 0.184402
vt 0.435229 0.469387
vt 0.733820 0.462384
vt 0.722569 0.187048
vt 0.435229 0.273386
vt 0.789911 0.064560
vt 0.862460 0.051870
vt 0.581251 0.273386
vt 0.948681 0.180652
vt 0.927765 0.489043
vt 0.592409 0.414471
vt 0.194477 0.273386
vt 0.030899 0.273386
vt 0.030899 0.231176
vt 0.194477 0.105865
vt 0.592409 0.132301
vt 0.928916 0.354663
vt 0.970457 0.362605
vt 0.668235 0.366848
vt 0.709536 0.357743
vt 0.714460 0.492038
vt 0.767466 0.053204
vt 0.684895 0.184356
vt 0.819169 0.352149
vt 0.644467 0.273386
vt 0.194477 0.440907
vt 0.435229 0.077385
vt 0.030899 0.315596
vt 0.989037 0.890827
vt 0.978281 0.590334
vt 0.075103 0.567922
vt 0.021309 0.636700
vt 0.978981 0.668433
vt 0.989037 0.858735
vt 0.064901 0.822721
vt 0.091667 0.716995
vt 0.978637 0.616881
vt 0.978808 0.642657
vt 0.036960 0.648941
vt 0.090754 0.580164
vt 0.008313 0.890827
vt 0.091853 0.736864
vt 0.064901 0.958933
vt 0.978979 0.694984
vt 0.989037 0.922919
vt 0.076180 0.729444
vt 0.090674 0.560294
vt 0.021474 0.661390
vn 0.094539 0.995521 0.000000
vn 0.111010 0.991324 0.070388
vn 0.036332 0.999147 0.019610
vn 0.036339 0.999340 0.000000
vn -0.107261 -0.913902 0.391507
vn -0.082024 -0.199532 0.976452
vn 0.038185 -0.139746 0.989451
vn 0.038185 -0.139746 0.989451
vn -0.107261 -0.913902 -0.391507
vn -0.081096 -0.996706 0.000000
vn -0.042581 -0.999093 0.000000
vn -0.042568 -0.998792 -0.024549
vn -0.216472 0.937046 0.274015
vn -0.220810 0.975317 0.000000
vn -0.461210 0.887291 0.000000
vn -0.428444 0.871344 0.239154
vn 0.498177 -0.813666 -0.299614
vn 0.845393 -0.534145 -0.000000
vn 0.538548 -0.842595 0.000000
vn -0.007377 -0.999973 0.000000
vn -0.067865 -0.918278 -0.390076
vn 0.111010 0.991324 -0.070388
vn 0.036332 0.999147 -0.019610
vn 0.025979 0.999663 0.000000
vn -0.013716 0.960333 -0.278518
vn -0.428444 0.871344 -0.239154
vn -0.685957 0.727642 0.000000
vn 0.498177 -0.813666 0.299614
vn -0.067865 -0.918278 0.390076
vn -0.042568 -0.998792 0.024549
vn -0.082024 -0.199532 -0.976452
vn 0.038185 -0.139746 -0.989451
vn 0.038185 -0.139746 -0.989451
vn -0.181206 -0.587806 -0.788447
vn 0.607461 -0.598253 -0.522575
vn 0.222520 -0.906815 -0.358012
vn 0.182535 -0.630539 -0.754389
vn 0.182535 -0.630539 0.754389
vn 0.222520 -0.906815 0.358012
vn 0.607461 -0.598253 0.522575
vn -0.181206 -0.587806 0.788447
vn -0.013716 0.960333 0.278518
vn -0.216472 0.937046 -0.274015
vn 0.239104 -0.970994 -0.000000
vn -1.000000 0.000000 0.000000
vn -1.000000 0.000000 0.000000
vn -0.783125 0.000000 0.621865
vn -0.783125 0.000000 0.621865
vn -0.783125 0.000000 -0.621865
vn -0.783125 0.000000 -0.621865
s 1
g Teaspoon_LP
usemtl initialShadingGroup
f 5/35/1 1/51/2 27/49/3 30/47/4
s 2
f 15/39/5 2/50/6 28/48/7 29/42/8
f 10/43/9 9/44/10 31/45/11 26/46/12
s 1
f 19/8/13 20/11/14 18/14/15 12/17/16
s 2
f 16/1/17 7/2/18 25/3/19
f 8/4/20 9/5/10 10/6/9 11/7/21
s 1
f 2/40/22 5/35/1 30/47/4 28/41/23
f 6/18/24 5/19/1 2/20/22 4/21/25
f 13/22/26 7/31/27 18/14/15
s 2
f 7/2/18 17/9/28 25/3/19
f 14/10/29 15/12/5 9/5/10 8/4/20
f 9/44/10 15/39/5 29/42/30 31/45/11
f 1/36/31 10/43/9 26/46/32 27/53/33
f 11/7/21 10/6/9 1/13/31 3/15/34
f 12/16/35 16/1/17 24/23/36 19/24/37
f 21/25/38 22/26/39 17/9/28 13/27/40
f 2/28/6 15/12/5 14/10/29 4/29/41
f 7/2/18 16/1/17 12/16/35
f 13/27/40 17/9/28 7/2/18
s 1
f 18/14/15 7/31/27 12/17/16
f 3/32/42 6/18/24 20/11/14 19/8/13
f 20/11/14 6/18/24 4/21/25 21/33/43
s 2
f 4/29/41 14/10/29 22/26/39 21/25/38
f 23/30/44 22/26/39 14/10/29 8/4/20
f 24/23/36 23/30/44 8/4/20 11/7/21
f 19/24/37 24/23/36 11/7/21 3/15/34
f 25/3/19 17/9/28 22/26/39 23/30/44
f 16/1/17 25/3/19 23/30/44 24/23/36
s 1
f 13/22/26 18/14/15 20/11/14 21/33/43
f 3/32/42 1/34/2 5/19/1 6/18/24
s 7
f 30/54/45 31/45/46 29/42/47 28/52/48
f 27/37/49 26/46/50 31/45/46 30/38/45
